<svg width="20" height="20" viewBox="0 0 20 20" fill="none" xmlns="http://www.w3.org/2000/svg">
<path d="M3.50935 17.168H16.7845C18.2747 17.168 19.1667 16.297 19.1667 14.534V5.46704C19.1667 3.70402 18.2641 2.83301 16.4906 2.83301H3.21552C1.71485 2.83301 0.833344 3.70402 0.833344 5.46704V14.534C0.833344 16.297 1.72535 17.168 3.50935 17.168ZM3.44639 15.7408C2.69081 15.7408 2.27104 15.3316 2.27104 14.534V5.45655C2.27104 4.66949 2.69081 4.26021 3.44639 4.26021H16.5431C17.2987 4.26021 17.7289 4.66949 17.7289 5.46704V14.5444C17.7289 15.3316 17.2987 15.7408 16.5431 15.7408H3.44639ZM10.0052 12.2778C10.6139 12.2778 11.1911 12.0364 11.7893 11.4382L18.4215 4.91085L17.4456 3.9349L10.9917 10.3258C10.6349 10.6826 10.3306 10.84 10.0052 10.84C9.66943 10.84 9.36509 10.6721 9.0083 10.3258L2.51241 3.89292L1.54695 4.86888L8.21074 11.4382C8.8089 12.0364 9.38608 12.2778 10.0052 12.2778ZM17.3722 16.0242L18.3376 15.0587L13.1325 9.86409L12.167 10.8296L17.3722 16.0242ZM1.66238 15.0482L2.63833 16.0242L7.84344 10.8296L6.86748 9.86409L1.66238 15.0482Z" fill="#FF8E00"/>
</svg>
