<svg width="20" height="20" viewBox="0 0 20 20" fill="none" xmlns="http://www.w3.org/2000/svg">
<g clip-path="url(#clip0_1051_52)">
<path d="M14.4628 19.1326C16.0804 19.1326 17.1716 18.6696 18.1505 17.5909C18.2225 17.5189 18.2929 17.4392 18.3574 17.3655C18.897 16.7563 19.1667 16.1217 19.1667 15.5328C19.1667 14.8444 18.7913 14.2203 17.9678 13.6474L15.2265 11.7428C14.3665 11.1449 13.3698 11.0937 12.5924 11.8652L11.9061 12.5532C11.6659 12.795 11.4435 12.8075 11.1777 12.6188C10.6784 12.2872 9.73202 11.4583 9.08327 10.8112C8.4209 10.1563 7.75962 9.40027 7.39101 8.83968C7.21482 8.56633 7.22238 8.35309 7.46418 8.11129L8.14464 7.42495C8.92364 6.64922 8.8741 5.64919 8.27622 4.79255L6.33349 2.01142C5.77708 1.21615 5.12815 0.839992 4.43812 0.832435C3.8443 0.824879 3.22615 1.08548 2.61537 1.6218C2.53575 1.69221 2.46203 1.75506 2.39659 1.81293C1.29963 2.81756 0.833344 3.89389 0.833344 5.55943C0.833344 8.27624 2.40877 11.4815 5.47151 14.5276C8.51748 17.5554 11.6954 19.1326 14.4628 19.1326ZM14.4587 17.5941C12.1104 17.6335 9.17504 15.9501 6.63243 13.4315C4.07468 10.8963 2.33817 7.86119 2.37761 5.51299C2.39272 4.52089 2.7488 3.65374 3.44601 3.04868C3.5155 2.98841 3.57152 2.9357 3.64101 2.8863C3.90253 2.6633 4.18083 2.54423 4.43646 2.54423C4.70204 2.54423 4.9433 2.65058 5.1217 2.92703L6.85968 5.52405C7.0731 5.83957 7.08324 6.19694 6.76937 6.50417L6.02478 7.24212C5.33088 7.92275 5.38857 8.71339 5.83606 9.33909C6.33478 10.0387 7.26367 11.0924 8.04456 11.8591C8.8627 12.6781 9.9993 13.6916 10.6782 14.1813C11.3056 14.6304 12.0979 14.6865 12.7752 13.9926L13.5132 13.2497C13.8205 12.9357 14.1702 12.9476 14.495 13.1518L17.0522 14.85C17.326 15.036 17.435 15.2696 17.435 15.5411C17.435 15.7968 17.3176 16.075 17.0929 16.3382C17.036 16.4077 16.9908 16.4637 16.9305 16.5332C16.3255 17.2304 15.4583 17.579 14.4587 17.5941Z" fill="#FF8E00"/>
</g>
<defs>
<clipPath id="clip0_1051_52">
<rect width="20" height="20" fill="white"/>
</clipPath>
</defs>
</svg>
