<svg width="20" height="20" viewBox="0 0 20 20" fill="none" xmlns="http://www.w3.org/2000/svg">
<g clip-path="url(#clip0_1051_45)">
<path d="M18.1522 7.80458C18.1522 3.49418 14.6487 -0.000732422 10.3261 -0.000732422C6.00351 -0.000732422 2.50002 3.49418 2.50002 7.80458C2.50002 10.8763 4.39495 14.584 8.13511 18.9871C9.15853 20.192 10.9691 20.3426 12.1792 19.3235C12.301 19.2209 12.4141 19.1084 12.5171 18.9871C16.2572 14.584 18.1522 10.8763 18.1522 7.80458ZM11.0561 18.0014C10.5794 18.4028 9.86615 18.3435 9.46298 17.8688C5.96385 13.7494 4.23915 10.3749 4.23915 7.80458C4.23915 4.44983 6.96473 1.73092 10.3261 1.73092C13.6875 1.73092 16.4131 4.44983 16.4131 7.80458C16.4131 10.3749 14.6884 13.7495 11.1892 17.8688C11.1486 17.9166 11.1041 17.961 11.0561 18.0014ZM6.84784 7.79172C6.84784 5.87948 8.40561 4.32841 10.3261 4.32841C12.2466 4.32841 13.8044 5.87948 13.8044 7.79172C13.8044 9.70397 12.2466 11.255 10.3261 11.255C8.40561 11.255 6.84784 9.70397 6.84784 7.79172ZM8.58697 7.79172C8.58697 8.7476 9.3661 9.52338 10.3261 9.52338C11.2861 9.52338 12.0652 8.7476 12.0652 7.79172C12.0652 6.83585 11.2861 6.06007 10.3261 6.06007C9.3661 6.06007 8.58697 6.83585 8.58697 7.79172Z" fill="#FF8E00"/>
</g>
<defs>
<clipPath id="clip0_1051_45">
<rect width="20" height="20" fill="white"/>
</clipPath>
</defs>
</svg>
