<svg width="25" height="25" viewBox="0 0 25 25" fill="none" xmlns="http://www.w3.org/2000/svg">
<path class="path" d="M0.5 4.5C0.5 3.94775 0.947754 3.5 1.5 3.5H23.5C24.0522 3.5 24.5 3.94775 24.5 4.5C24.5 5.05225 24.0522 5.5 23.5 5.5H1.5C0.947754 5.5 0.5 5.05225 0.5 4.5Z" fill="black"/>
<path class="path" d="M0.5 12.5C0.5 11.9478 0.947754 11.5 1.5 11.5H23.5C24.0522 11.5 24.5 11.9478 24.5 12.5C24.5 13.0522 24.0522 13.5 23.5 13.5H1.5C0.947754 13.5 0.5 13.0522 0.5 12.5Z" fill="black"/>
<path class="path" d="M1.5 19.5C0.947754 19.5 0.5 19.9478 0.5 20.5C0.5 21.0522 0.947754 21.5 1.5 21.5H23.5C24.0522 21.5 24.5 21.0522 24.5 20.5C24.5 19.9478 24.0522 19.5 23.5 19.5H1.5Z" fill="black"/>
</svg>
