<svg width="80" height="81" viewBox="0 0 80 81" fill="none" xmlns="http://www.w3.org/2000/svg">
<path fill-rule="evenodd" clip-rule="evenodd" d="M40 5C20.1178 5 4 21.1178 4 41C4 60.8823 20.1178 77 40 77C59.8823 77 76 60.8823 76 41C76 21.1178 59.8823 5 40 5ZM57.1429 34.6955C58.2492 33.6394 58.2899 31.8865 57.2339 30.7802C56.1779 29.6739 54.425 29.6332 53.3187 30.6892L34.923 48.2486L26.6813 40.3815C25.575 39.3255 23.8221 39.3662 22.7661 40.4725C21.7101 41.5788 21.7508 43.3317 22.8571 44.3877L33.0109 54.0801C34.081 55.1015 35.7649 55.1015 36.835 54.0801L57.1429 34.6955Z" fill="#13C650"/>
</svg>
