<svg width="36" height="37" viewBox="0 0 36 37" fill="none" xmlns="http://www.w3.org/2000/svg">
<g transform="translate(0, 0.5) scale(0.75)">
<rect width="48" height="48" rx="12" fill="url(#paint0_linear_2834_242)"/>
<path fill-rule="evenodd" clip-rule="evenodd" d="M24.3483 40.0137C21.1734 40.0137 19.698 39.5502 17.1334 37.6963C15.5113 39.782 10.3744 41.4119 10.1503 38.6233C10.1503 36.5299 9.68684 34.761 9.16155 32.8298C8.53587 30.4506 7.8252 27.801 7.8252 23.9619C7.8252 14.7927 15.3491 7.89453 24.2633 7.89453C33.1853 7.89453 40.1762 15.1326 40.1762 24.0468C40.2061 32.8232 33.1246 39.9669 24.3483 40.0137ZM24.4796 15.82C20.1384 15.596 16.7549 18.6009 16.0056 23.313C15.3877 27.214 16.4846 31.9646 17.4192 32.2118C17.8673 32.32 18.9951 31.4084 19.698 30.7055C20.8604 31.5085 22.214 31.9908 23.6222 32.1037C28.1204 32.32 31.9641 28.8955 32.2661 24.4022C32.4419 19.8993 28.9785 16.0855 24.4796 15.8278V15.82Z" fill="white"/>
</g>
<defs>
<linearGradient id="paint0_linear_2834_242" x1="5.65666" y1="36.5057" x2="48" y2="24" gradientUnits="userSpaceOnUse">
<stop stop-color="#44CCFF"/>
<stop offset="0.662" stop-color="#5533EE"/>
<stop offset="1" stop-color="#9933DD"/>
</linearGradient>
</defs>
</svg>
