<svg width="36" height="37" viewBox="0 0 36 37" fill="none" xmlns="http://www.w3.org/2000/svg">
<rect y="0.5" width="36" height="36" rx="8" fill="#34B6FF"/>
<path fill-rule="evenodd" clip-rule="evenodd" d="M7.63315 17.41C13.4636 15.1238 17.3514 13.6166 19.2967 12.8884C24.8509 10.8093 26.005 10.4481 26.7573 10.4362C26.9227 10.4335 27.2926 10.4704 27.5323 10.6454C27.7346 10.7932 27.7903 10.9928 27.8169 11.1329C27.8436 11.273 27.8767 11.5921 27.8504 11.8415C27.5494 14.6877 26.247 21.5948 25.5845 24.7826C25.3041 26.1315 24.7521 26.5837 24.2176 26.628C23.0562 26.7242 22.1743 25.9372 21.0493 25.2736C19.2891 24.2351 18.2947 23.5886 16.586 22.5752C14.6114 21.4041 15.8915 20.7604 17.0168 19.7085C17.3113 19.4332 22.4286 15.2441 22.5277 14.864C22.5401 14.8165 22.5515 14.6394 22.4346 14.5458C22.3177 14.4523 22.1451 14.4843 22.0205 14.5097C21.844 14.5458 19.0319 16.2185 13.5844 19.5281C12.7862 20.0213 12.0632 20.2617 11.4155 20.2491C10.7014 20.2352 9.32772 19.8857 8.30656 19.587C7.05406 19.2205 6.05859 19.0268 6.14528 18.4045C6.19043 18.0804 6.68638 17.7489 7.63315 17.41Z" fill="white"/>
</svg>
