<svg width="24" height="24" viewBox="0 0 72 72" fill="none" xmlns="http://www.w3.org/2000/svg">
<rect width="72" height="72" rx="18" fill="url(#paint0_linear_whatsapp)"/>
<path fill-rule="evenodd" clip-rule="evenodd" d="M36.1755 13.8653C39.0041 13.8586 41.8062 14.4129 44.4191 15.4964C47.032 16.5799 49.4039 18.1709 51.3978 20.1773C53.4028 22.1728 54.992 24.5462 56.0735 27.1601C57.155 29.774 57.7074 32.5764 57.6984 35.4051C57.6939 47.2734 48.0351 56.9294 36.1676 56.9294H36.1593C32.2949 56.9273 28.5054 55.8903 25.2005 53.9289L24.4138 53.4626L16.2644 55.5995L18.4398 47.6571L17.9278 46.8429C15.7716 43.4118 14.6302 39.4403 14.636 35.3879C14.6402 23.5204 24.2988 13.8654 36.1755 13.8653ZM26.9949 23.4265C26.5633 23.4265 25.8621 23.5885 25.2692 24.2362C24.6763 24.884 23.0035 26.4498 23.0034 29.6343C23.0034 32.8189 25.3229 35.8963 25.6461 36.3286C25.9695 36.7614 30.1241 43.5045 36.7033 46.0989C42.1705 48.2549 43.2832 47.826 44.4703 47.7183C45.6575 47.6105 48.3 46.1525 48.839 44.641C49.3779 43.1298 49.3784 41.8351 49.2169 41.5641C49.0553 41.2934 48.6235 41.1323 47.9757 40.8084C47.3276 40.4843 44.1462 38.9186 43.553 38.7024C42.9597 38.4862 42.5285 38.3792 42.0965 39.027C41.6645 39.6748 40.4254 41.1321 40.0477 41.5641C39.6699 41.996 39.2926 42.0503 38.6449 41.7267C37.997 41.4032 35.9126 40.7194 33.4396 38.5143C31.5155 36.7987 30.2169 34.6797 29.8387 34.0322C29.4606 33.3848 29.7985 33.034 30.1231 32.7116C30.4135 32.4214 30.7705 31.9557 31.0947 31.578C31.419 31.2002 31.5257 30.93 31.7411 30.4987C31.9565 30.0674 31.8491 29.6886 31.6871 29.3651C31.5252 29.0415 30.2676 25.8399 29.6923 24.5597C29.2071 23.4822 28.6966 23.4603 28.2358 23.4416L26.9949 23.4265Z" fill="white"/>
<defs>
<linearGradient id="paint0_linear_whatsapp" x1="35.2669" y1="4.3208" x2="35.6318" y2="65.8495" gradientUnits="userSpaceOnUse">
<stop stop-color="#57D163"/>
<stop offset="1" stop-color="#23B33A"/>
</linearGradient>
</defs>
</svg>
