<svg width="60" height="60" viewBox="0 0 60 60" fill="none" xmlns="http://www.w3.org/2000/svg">
<g clip-path="url(#clip0_940_3067)">
<rect width="60" height="60" rx="12" fill="#FF8E00"/>
<path d="M12.7859 66V59.3381L30.4599 42.0121C32.1502 40.3052 33.5588 38.7888 34.6857 37.4631C35.8126 36.1373 36.6578 34.853 37.2212 33.6101C37.7847 32.3672 38.0664 31.0414 38.0664 29.6328C38.0664 28.0253 37.7018 26.6499 36.9727 25.5064C36.2435 24.3464 35.2409 23.4515 33.9648 22.8217C32.6888 22.192 31.2388 21.8771 29.6147 21.8771C27.9409 21.8771 26.4743 22.2251 25.2148 22.9212C23.9554 23.6006 22.9776 24.5701 22.2816 25.8295C21.6022 27.089 21.2624 28.5888 21.2624 30.3288H12.4876C12.4876 27.0973 13.225 24.2884 14.6999 21.902C16.1748 19.5156 18.2049 17.6678 20.7901 16.3587C23.3919 15.0495 26.3749 14.3949 29.739 14.3949C33.1528 14.3949 36.1523 15.0329 38.7376 16.3089C41.3228 17.585 43.328 19.3333 44.7532 21.554C46.195 23.7746 46.9158 26.3101 46.9158 29.1605C46.9158 31.0663 46.5513 32.9389 45.8221 34.7784C45.0929 36.6179 43.8086 38.6562 41.9691 40.8935C40.1462 43.1307 37.5858 45.8402 34.288 49.022L25.5131 57.946V58.294H47.6864V66H12.7859Z" fill="white"/>
</g>
<defs>
<clipPath id="clip0_940_3067">
<rect width="60" height="60" rx="12" fill="white"/>
</clipPath>
</defs>
</svg>
