<svg width="60" height="60" viewBox="0 0 60 60" fill="none" xmlns="http://www.w3.org/2000/svg">
<rect width="60" height="60" rx="12" fill="#FF8E00"/>
<path d="M19.1797 46V41.8125L30.2891 30.9219C31.3516 29.849 32.237 28.8958 32.9453 28.0625C33.6536 27.2292 34.1849 26.4219 34.5391 25.6406C34.8932 24.8594 35.0703 24.026 35.0703 23.1406C35.0703 22.1302 34.8411 21.2656 34.3828 20.5469C33.9245 19.8177 33.2943 19.2552 32.4922 18.8594C31.6901 18.4635 30.7786 18.2656 29.7578 18.2656C28.7057 18.2656 27.7839 18.4844 26.9922 18.9219C26.2005 19.349 25.5859 19.9583 25.1484 20.75C24.7214 21.5417 24.5078 22.4844 24.5078 23.5781H18.9922C18.9922 21.5469 19.4557 19.7813 20.3828 18.2812C21.3099 16.7812 22.5859 15.6198 24.2109 14.7969C25.8464 13.974 27.7214 13.5625 29.8359 13.5625C31.9818 13.5625 33.8672 13.9635 35.4922 14.7656C37.1172 15.5677 38.3776 16.6667 39.2734 18.0625C40.1797 19.4583 40.6328 21.0521 40.6328 22.8438C40.6328 24.0417 40.4036 25.2188 39.9453 26.375C39.487 27.5312 38.6797 28.8125 37.5234 30.2188C36.3776 31.625 34.7682 33.3281 32.6953 35.3281L27.1797 40.9375V41.1563H41.1172V46H19.1797Z" fill="white"/>
</svg>
