<svg width="60" height="60" viewBox="0 0 60 60" fill="none" xmlns="http://www.w3.org/2000/svg">
<g clip-path="url(#clip0_940_3071)">
<rect width="60" height="60" rx="12" fill="#FF8E00"/>
<path d="M29.9969 66.696C26.4173 66.696 23.2355 66.0829 20.4514 64.8565C17.6839 63.6302 15.4964 61.9233 13.8889 59.7358C12.2815 57.5483 11.428 55.0211 11.3286 52.1541H20.6752C20.758 53.5296 21.2137 54.7311 22.0423 55.7585C22.8709 56.7694 23.973 57.5566 25.3485 58.12C26.7239 58.6835 28.2651 58.9652 29.972 58.9652C31.795 58.9652 33.4107 58.6503 34.8193 58.0206C36.228 57.3743 37.33 56.4794 38.1254 55.3359C38.9209 54.1925 39.3103 52.875 39.2938 51.3835C39.3103 49.8423 38.9126 48.4834 38.1006 47.3068C37.2886 46.1302 36.112 45.2105 34.5708 44.5476C33.0461 43.8847 31.2066 43.5533 29.0523 43.5533H24.553V36.4439H29.0523C30.8255 36.4439 32.375 36.1373 33.7007 35.5241C35.0431 34.911 36.0954 34.0492 36.8577 32.9389C37.62 31.812 37.9929 30.5111 37.9763 29.0362C37.9929 27.5945 37.6697 26.3433 37.0068 25.2827C36.3605 24.2055 35.4408 23.3686 34.2476 22.772C33.071 22.1754 31.6872 21.8771 30.0963 21.8771C28.5386 21.8771 27.0968 22.1589 25.771 22.7223C24.4453 23.2857 23.3764 24.0895 22.5644 25.1335C21.7523 26.161 21.3215 27.3873 21.2718 28.8125H12.3975C12.4637 25.9621 13.2841 23.4598 14.8584 21.3054C16.4493 19.1345 18.5705 17.4441 21.222 16.2344C23.8736 15.008 26.8482 14.3949 30.146 14.3949C33.5433 14.3949 36.4931 15.0329 38.9955 16.3089C41.5144 17.5684 43.4616 19.267 44.8371 21.4048C46.2126 23.5426 46.9003 25.9041 46.9003 28.4893C46.9169 31.3563 46.0717 33.7592 44.3648 35.6982C42.6745 37.6371 40.4538 38.9048 37.7029 39.5014V39.8991C41.2824 40.3963 44.0251 41.7221 45.9308 43.8764C47.8532 46.0142 48.8061 48.674 48.7895 51.8558C48.7895 54.7062 47.9775 57.2583 46.3534 59.5121C44.7459 61.7493 42.5253 63.5059 39.6915 64.782C36.8743 66.058 33.6427 66.696 29.9969 66.696Z" fill="white"/>
</g>
<defs>
<clipPath id="clip0_940_3071">
<rect width="60" height="60" rx="12" fill="white"/>
</clipPath>
</defs>
</svg>
