<svg width="60" height="60" viewBox="0 0 60 60" fill="none" xmlns="http://www.w3.org/2000/svg">
<rect width="60" height="60" rx="12" fill="#FF8E00"/>
<path d="M30.498 46.4375C28.248 46.4375 26.248 46.0521 24.498 45.2813C22.7585 44.5104 21.3835 43.4375 20.373 42.0625C19.3626 40.6875 18.8262 39.099 18.7637 37.2969H24.6387C24.6908 38.1615 24.9772 38.9167 25.498 39.5625C26.0189 40.1979 26.7116 40.6927 27.5762 41.0469C28.4408 41.401 29.4095 41.5781 30.4824 41.5781C31.6283 41.5781 32.6439 41.3802 33.5293 40.9844C34.4147 40.5781 35.1074 40.0156 35.6074 39.2969C36.1074 38.5781 36.3522 37.75 36.3418 36.8125C36.3522 35.8438 36.1022 34.9896 35.5918 34.25C35.0814 33.5104 34.3418 32.9323 33.373 32.5156C32.4147 32.099 31.2585 31.8906 29.9043 31.8906H27.0762V27.4219H29.9043C31.0189 27.4219 31.9928 27.2292 32.8262 26.8438C33.6699 26.4583 34.3314 25.9167 34.8105 25.2188C35.2897 24.5104 35.5241 23.6927 35.5137 22.7656C35.5241 21.8594 35.321 21.0729 34.9043 20.4063C34.498 19.7292 33.9199 19.2031 33.1699 18.8281C32.4303 18.4531 31.5605 18.2656 30.5605 18.2656C29.5814 18.2656 28.6751 18.4427 27.8418 18.7969C27.0085 19.151 26.3366 19.6562 25.8262 20.3125C25.3158 20.9583 25.0449 21.7292 25.0137 22.625H19.4355C19.4772 20.8333 19.9928 19.2604 20.9824 17.9063C21.9824 16.5417 23.3158 15.4792 24.9824 14.7188C26.6491 13.9479 28.5189 13.5625 30.5918 13.5625C32.7272 13.5625 34.5814 13.9635 36.1543 14.7656C37.7376 15.5573 38.9616 16.625 39.8262 17.9688C40.6908 19.3125 41.123 20.7969 41.123 22.4219C41.1335 24.224 40.6022 25.7344 39.5293 26.9531C38.4668 28.1719 37.071 28.9688 35.3418 29.3438V29.5938C37.5918 29.9062 39.3158 30.7396 40.5137 32.0938C41.722 33.4375 42.321 35.1094 42.3105 37.1094C42.3105 38.901 41.8001 40.5052 40.7793 41.9219C39.7689 43.3281 38.373 44.4323 36.5918 45.2344C34.821 46.0365 32.7897 46.4375 30.498 46.4375Z" fill="white"/>
</svg>
