<svg width="60" height="60" viewBox="0 0 60 60" fill="none" xmlns="http://www.w3.org/2000/svg">
<g clip-path="url(#clip0_940_3079)">
<rect width="60" height="60" rx="12" fill="#FF8E00"/>
<path d="M30.5746 66.696C27.2602 66.696 24.2938 66.0746 21.6754 64.8317C19.0571 63.5722 16.9773 61.8487 15.4361 59.6612C13.9115 57.4737 13.0994 54.9714 13 52.1541H21.9489C22.1146 54.2422 23.0178 55.9491 24.6584 57.2749C26.299 58.584 28.2711 59.2386 30.5746 59.2386C32.3809 59.2386 33.9884 58.8243 35.397 57.9957C36.8056 57.1671 37.916 56.0154 38.728 54.5405C39.54 53.0656 39.9377 51.3835 39.9212 49.4943C39.9377 47.572 39.5317 45.8651 38.7031 44.3736C37.8745 42.8821 36.7393 41.7138 35.2976 40.8686C33.8558 40.0069 32.1986 39.576 30.326 39.576C28.8014 39.5594 27.3016 39.8411 25.8267 40.4212C24.3518 41.0012 23.1835 41.7635 22.3217 42.7081L13.9943 41.3409L16.6541 15.0909H46.1854V22.7969H24.2855L22.8189 36.2947H23.1172C24.0618 35.1844 25.3958 34.2647 27.1193 33.5355C28.8428 32.7898 30.732 32.4169 32.7869 32.4169C35.8693 32.4169 38.6203 33.1461 41.0398 34.6044C43.4593 36.0462 45.3651 38.0348 46.7571 40.5703C48.1491 43.1058 48.8452 46.0059 48.8452 49.2706C48.8452 52.6347 48.0663 55.6342 46.5085 58.2692C44.9673 60.8875 42.8213 62.9508 40.0703 64.4588C37.3359 65.9503 34.1707 66.696 30.5746 66.696Z" fill="white"/>
</g>
<defs>
<clipPath id="clip0_940_3079">
<rect width="60" height="60" rx="12" fill="white"/>
</clipPath>
</defs>
</svg>
