<svg width="60" height="60" viewBox="0 0 60 60" fill="none" xmlns="http://www.w3.org/2000/svg">
<rect width="60" height="60" rx="12" fill="#FF8E00"/>
<path d="M30.0469 46.4375C27.9635 46.4375 26.099 46.0469 24.4531 45.2656C22.8073 44.474 21.5 43.3906 20.5312 42.0156C19.5729 40.6406 19.0625 39.0677 19 37.2969H24.625C24.7292 38.6094 25.2969 39.6823 26.3281 40.5156C27.3594 41.3385 28.599 41.75 30.0469 41.75C31.1823 41.75 32.1927 41.4896 33.0781 40.9688C33.9635 40.4479 34.6615 39.724 35.1719 38.7969C35.6823 37.8698 35.9323 36.8125 35.9219 35.625C35.9323 34.4167 35.6771 33.3438 35.1562 32.4062C34.6354 31.4688 33.9219 30.7344 33.0156 30.2031C32.1094 29.6615 31.0677 29.3906 29.8906 29.3906C28.9323 29.3802 27.9896 29.5573 27.0625 29.9219C26.1354 30.2865 25.401 30.7656 24.8594 31.3594L19.625 30.5L21.2969 14H39.8594V18.8438H26.0938L25.1719 27.3281H25.3594C25.9531 26.6302 26.7917 26.0521 27.875 25.5938C28.9583 25.125 30.1458 24.8906 31.4375 24.8906C33.375 24.8906 35.1042 25.349 36.625 26.2656C38.1458 27.1719 39.3438 28.4219 40.2188 30.0156C41.0938 31.6094 41.5312 33.4323 41.5312 35.4844C41.5312 37.599 41.0417 39.4844 40.0625 41.1406C39.0938 42.7865 37.7448 44.0833 36.0156 45.0312C34.2969 45.9688 32.3073 46.4375 30.0469 46.4375Z" fill="white"/>
</svg>
