<svg width="60" height="60" viewBox="0 0 60 60" fill="none" xmlns="http://www.w3.org/2000/svg">
<rect width="60" height="60" rx="12" fill="#FF8E00"/>
<path d="M30.7971 46.4375C29.2659 46.4271 27.7711 46.1615 26.3127 45.6406C24.8544 45.1094 23.5419 44.25 22.3752 43.0625C21.2086 41.8646 20.2815 40.276 19.594 38.2969C18.9065 36.3073 18.5679 33.8438 18.5784 30.9063C18.5784 28.1667 18.87 25.724 19.4534 23.5781C20.0367 21.4323 20.8752 19.6198 21.969 18.1406C23.0627 16.651 24.3804 15.5156 25.9221 14.7344C27.4742 13.9531 29.2086 13.5625 31.1252 13.5625C33.1357 13.5625 34.9169 13.9583 36.469 14.75C38.0315 15.5417 39.2919 16.625 40.2502 18C41.2086 19.3646 41.8023 20.9063 42.0315 22.625H36.3284C36.0367 21.3958 35.4377 20.4167 34.5315 19.6875C33.6357 18.9479 32.5002 18.5781 31.1252 18.5781C28.9065 18.5781 27.1981 19.5417 26.0002 21.4688C24.8127 23.3958 24.2138 26.0417 24.2034 29.4063H24.4221C24.9325 28.4896 25.594 27.7031 26.4065 27.0469C27.219 26.3906 28.1357 25.8854 29.1565 25.5313C30.1877 25.1667 31.2763 24.9844 32.4221 24.9844C34.2971 24.9844 35.9794 25.4323 37.469 26.3281C38.969 27.224 40.1565 28.4583 41.0315 30.0313C41.9065 31.5938 42.3388 33.3854 42.3284 35.4063C42.3388 37.5104 41.8596 39.401 40.8909 41.0781C39.9221 42.7448 38.5731 44.0573 36.844 45.0156C35.1148 45.974 33.0992 46.4479 30.7971 46.4375ZM30.7659 41.75C31.9013 41.75 32.9169 41.474 33.8127 40.9219C34.7086 40.3698 35.4169 39.625 35.9377 38.6875C36.4586 37.75 36.7138 36.6979 36.7034 35.5313C36.7138 34.3854 36.4638 33.349 35.9534 32.4219C35.4534 31.4948 34.7607 30.7604 33.8752 30.2188C32.9898 29.6771 31.9794 29.4063 30.844 29.4063C30.0002 29.4063 29.2138 29.5677 28.4846 29.8906C27.7554 30.2135 27.12 30.6615 26.5784 31.2344C26.0367 31.7969 25.6096 32.4531 25.2971 33.2031C24.995 33.9427 24.8388 34.7344 24.8284 35.5781C24.8388 36.6927 25.0992 37.7188 25.6096 38.6563C26.12 39.5938 26.8231 40.3438 27.719 40.9063C28.6148 41.4688 29.6304 41.75 30.7659 41.75Z" fill="white"/>
</svg>
