<svg width="60" height="60" viewBox="0 0 60 60" fill="none" xmlns="http://www.w3.org/2000/svg">
<g clip-path="url(#clip0_940_3083)">
<rect width="60" height="60" rx="12" fill="#FF8E00"/>
<path d="M30.4723 66.696C28.0362 66.6795 25.6581 66.2569 23.3381 65.4283C21.018 64.5831 18.9299 63.2159 17.0739 61.3267C15.2178 59.4209 13.7429 56.8937 12.6491 53.745C11.5554 50.5798 11.0168 46.6605 11.0334 41.9872C11.0334 37.6288 11.4974 33.7427 12.4254 30.3288C13.3535 26.915 14.6875 24.0315 16.4276 21.6783C18.1676 19.3085 20.264 17.5021 22.7166 16.2592C25.1858 15.0163 27.9451 14.3949 30.9943 14.3949C34.1927 14.3949 37.0265 15.0246 39.4957 16.2841C41.9815 17.5436 43.9867 19.267 45.5114 21.4545C47.036 23.6255 47.9806 26.0781 48.3452 28.8125H39.272C38.808 26.857 37.8551 25.2992 36.4134 24.1392C34.9882 22.9626 33.1818 22.3743 30.9943 22.3743C27.4645 22.3743 24.7467 23.9072 22.8409 26.973C20.9517 30.0388 19.9988 34.2481 19.9822 39.6009H20.3303C21.1423 38.1425 22.1946 36.8913 23.4872 35.8473C24.7798 34.8033 26.2382 33.9995 27.8622 33.4361C29.5028 32.8561 31.2346 32.5661 33.0575 32.5661C36.0405 32.5661 38.7169 33.2786 41.0866 34.7038C43.473 36.129 45.3622 38.0928 46.7543 40.5952C48.1463 43.081 48.834 45.9313 48.8175 49.1463C48.834 52.4938 48.0717 55.5017 46.5305 58.1697C44.9893 60.8213 42.8433 62.9093 40.0923 64.4339C37.3414 65.9586 34.1347 66.7126 30.4723 66.696ZM30.4226 59.2386C32.2289 59.2386 33.8447 58.7995 35.2699 57.9212C36.6951 57.0429 37.822 55.858 38.6506 54.3665C39.4792 52.875 39.8852 51.2012 39.8686 49.3452C39.8852 47.5223 39.4875 45.8733 38.6754 44.3984C37.88 42.9235 36.7779 41.7552 35.3693 40.8935C33.9607 40.0317 32.3532 39.6009 30.5469 39.6009C29.2045 39.6009 27.9534 39.8577 26.7933 40.3714C25.6333 40.8852 24.6224 41.5978 23.7607 42.5092C22.8989 43.4041 22.2195 44.4482 21.7223 45.6413C21.2417 46.8179 20.9931 48.0774 20.9766 49.4197C20.9931 51.1929 21.4074 52.8253 22.2195 54.3168C23.0315 55.8082 24.1501 57.0014 25.5753 57.8963C27.0005 58.7912 28.6162 59.2386 30.4226 59.2386Z" fill="white"/>
</g>
<defs>
<clipPath id="clip0_940_3083">
<rect width="60" height="60" rx="12" fill="white"/>
</clipPath>
</defs>
</svg>
