<svg width="60" height="60" viewBox="0 0 60 60" fill="none" xmlns="http://www.w3.org/2000/svg">
<rect width="60" height="60" rx="12" fill="#FF8E00"/>
<path d="M30.5174 46.4375C28.1944 46.4375 26.1319 46.0469 24.3299 45.2656C22.5382 44.4844 21.1319 43.4167 20.1111 42.0625C19.1007 40.6979 18.6007 39.151 18.6111 37.4219C18.6007 36.0781 18.8924 34.8438 19.4861 33.7188C20.0799 32.5938 20.8819 31.6563 21.8924 30.9063C22.9132 30.1458 24.0486 29.6615 25.2986 29.4531V29.2344C23.6528 28.8698 22.3194 28.0313 21.2986 26.7188C20.2882 25.3958 19.7882 23.8698 19.7986 22.1406C19.7882 20.4948 20.2465 19.026 21.1736 17.7344C22.1007 16.4427 23.3715 15.4271 24.9861 14.6875C26.6007 13.9375 28.4444 13.5625 30.5174 13.5625C32.5694 13.5625 34.3976 13.9375 36.0017 14.6875C37.6163 15.4271 38.8872 16.4427 39.8142 17.7344C40.7517 19.026 41.2205 20.4948 41.2205 22.1406C41.2205 23.8698 40.7049 25.3958 39.6736 26.7188C38.6528 28.0313 37.3351 28.8698 35.7205 29.2344V29.4531C36.9705 29.6615 38.0955 30.1458 39.0955 30.9063C40.1059 31.6563 40.908 32.5938 41.5017 33.7188C42.1059 34.8438 42.408 36.0781 42.408 37.4219C42.408 39.151 41.8976 40.6979 40.8767 42.0625C39.8559 43.4167 38.4497 44.4844 36.658 45.2656C34.8767 46.0469 32.8299 46.4375 30.5174 46.4375ZM30.5174 41.9688C31.7153 41.9688 32.7569 41.7656 33.6424 41.3594C34.5278 40.9427 35.2153 40.3594 35.7049 39.6094C36.1944 38.8594 36.4444 37.9948 36.4549 37.0156C36.4444 35.9948 36.1788 35.0938 35.658 34.3125C35.1476 33.5208 34.4444 32.901 33.5486 32.4531C32.6632 32.0052 31.6528 31.7813 30.5174 31.7813C29.3715 31.7813 28.3507 32.0052 27.4549 32.4531C26.559 32.901 25.8507 33.5208 25.3299 34.3125C24.8194 35.0938 24.5694 35.9948 24.5799 37.0156C24.5694 37.9948 24.809 38.8594 25.2986 39.6094C25.7882 40.349 26.4757 40.9271 27.3611 41.3438C28.2569 41.7604 29.309 41.9688 30.5174 41.9688ZM30.5174 27.3906C31.4965 27.3906 32.3611 27.1927 33.1111 26.7969C33.8715 26.401 34.4705 25.849 34.908 25.1406C35.3455 24.4323 35.5694 23.6146 35.5799 22.6875C35.5694 21.7708 35.3507 20.9688 34.9236 20.2812C34.4965 19.5833 33.9028 19.0469 33.1424 18.6719C32.3819 18.2865 31.5069 18.0937 30.5174 18.0937C29.5069 18.0937 28.6163 18.2865 27.8455 18.6719C27.0851 19.0469 26.4913 19.5833 26.0642 20.2812C25.6476 20.9688 25.4444 21.7708 25.4549 22.6875C25.4444 23.6146 25.6528 24.4323 26.0799 25.1406C26.5174 25.8385 27.1163 26.3906 27.8767 26.7969C28.6476 27.1927 29.5278 27.3906 30.5174 27.3906Z" fill="white"/>
</svg>
