<svg width="60" height="60" viewBox="0 0 60 60" fill="none" xmlns="http://www.w3.org/2000/svg">
<g clip-path="url(#clip0_940_3091)">
<rect width="60" height="60" rx="12" fill="#FF8E00"/>
<path d="M30.028 66.696C26.3324 66.696 23.0512 66.0746 20.1842 64.8317C17.3338 63.5888 15.0966 61.8902 13.4726 59.7358C11.8651 57.5649 11.0696 55.1039 11.0862 52.353C11.0696 50.2152 11.5336 48.2514 12.4782 46.4616C13.4229 44.6719 14.6989 43.1804 16.3064 41.9872C17.9304 40.7775 19.7368 40.0069 21.7254 39.6754V39.3274C19.107 38.7474 16.9858 37.4134 15.3618 35.3253C13.7543 33.2206 12.9588 30.7928 12.9754 28.0419C12.9588 25.4235 13.688 23.0869 15.1629 21.032C16.6378 18.977 18.6596 17.3613 21.2282 16.1847C23.7969 14.9915 26.7301 14.3949 30.028 14.3949C33.2926 14.3949 36.201 14.9915 38.7531 16.1847C41.3218 17.3613 43.3435 18.977 44.8185 21.032C46.3099 23.0869 47.0557 25.4235 47.0557 28.0419C47.0557 30.7928 46.2354 33.2206 44.5947 35.3253C42.9707 37.4134 40.8743 38.7474 38.3057 39.3274V39.6754C40.2943 40.0069 42.0841 40.7775 43.675 41.9872C45.2825 43.1804 46.5585 44.6719 47.5031 46.4616C48.4643 48.2514 48.9449 50.2152 48.9449 52.353C48.9449 55.1039 48.1328 57.5649 46.5088 59.7358C44.8847 61.8902 42.6475 63.5888 39.7971 64.8317C36.9633 66.0746 33.7069 66.696 30.028 66.696ZM30.028 59.5866C31.9337 59.5866 33.5909 59.2635 34.9996 58.6172C36.4082 57.9543 37.5019 57.0263 38.2808 55.8331C39.0597 54.6399 39.4574 53.2644 39.474 51.7067C39.4574 50.0826 39.0348 48.6491 38.2062 47.4062C37.3942 46.1468 36.2756 45.1607 34.8504 44.4482C33.4418 43.7356 31.8343 43.3793 30.028 43.3793C28.205 43.3793 26.581 43.7356 25.1558 44.4482C23.7306 45.1607 22.6037 46.1468 21.7751 47.4062C20.9631 48.6491 20.5654 50.0826 20.5819 51.7067C20.5654 53.2644 20.9465 54.6399 21.7254 55.8331C22.5043 57.0097 23.598 57.9295 25.0067 58.5923C26.4318 59.2552 28.1056 59.5866 30.028 59.5866ZM30.028 36.3942C31.5857 36.3942 32.9612 36.0793 34.1544 35.4496C35.3641 34.8198 36.317 33.9415 37.0131 32.8146C37.7091 31.6877 38.0654 30.3868 38.0819 28.9119C38.0654 27.4536 37.7174 26.1776 37.0379 25.0838C36.3585 23.9735 35.4139 23.12 34.2041 22.5234C32.9943 21.9103 31.6023 21.6037 30.028 21.6037C28.4205 21.6037 27.0036 21.9103 25.7773 22.5234C24.5675 23.12 23.6229 23.9735 22.9434 25.0838C22.2806 26.1776 21.9574 27.4536 21.974 28.9119C21.9574 30.3868 22.2889 31.6877 22.9683 32.8146C23.6643 33.925 24.6172 34.8033 25.827 35.4496C27.0533 36.0793 28.4536 36.3942 30.028 36.3942Z" fill="white"/>
</g>
<defs>
<clipPath id="clip0_940_3091">
<rect width="60" height="60" rx="12" fill="white"/>
</clipPath>
</defs>
</svg>
