<svg width="8" height="16" viewBox="0 0 8 16" fill="none" xmlns="http://www.w3.org/2000/svg">
<path d="M7.06445 7.99964C7.06445 8.21817 6.98042 8.40808 6.80978 8.58219L2.23602 13.115C2.0946 13.2626 1.908 13.3337 1.69821 13.3337C1.26839 13.3337 0.935701 13.0023 0.935701 12.5752C0.935701 12.3627 1.02109 12.1742 1.16929 12.0211L5.23024 7.9983L1.16929 3.97816C1.01974 3.82514 0.935701 3.63041 0.935701 3.42544C0.935701 2.99832 1.26839 2.66699 1.69821 2.66699C1.90936 2.66699 2.0946 2.73808 2.23602 2.88567L6.80978 7.41711C6.97906 7.59121 7.0631 7.77976 7.06445 7.99964Z" fill="#FF8E00"/>
</svg>
