<svg width="154" height="20" viewBox="0 0 154 20" fill="none" xmlns="http://www.w3.org/2000/svg">
<path d="M13.5714 3.54286L5.91429 15.6H13.7143V20H0V16.4571L7.65714 4.4H0.142857V0H13.5714V3.54286Z" fill="white"/>
<path d="M41.0011 20H36.0011L35.0011 16.8571H27.5725L26.5725 20H21.5725L28.3726 0H34.2011L41.0011 20ZM31.2868 5.22857L28.944 12.5714H33.6297L31.2868 5.22857Z" fill="white"/>
<path d="M65.2779 0H69.8493V20H65.2779V8.37143L60.1065 16.8571H59.5922L54.4208 8.37143V20H49.8493V0H54.4208L59.8493 8.88571L65.2779 0Z" fill="white"/>
<path d="M95.8583 0H100.43V20H95.8583V8.37143L90.6869 16.8571H90.1726L85.0011 8.37143V20H80.4297V0H85.0011L90.4297 8.88571L95.8583 0Z" fill="white"/>
<path d="M128.724 20H123.724L122.724 16.8571H115.296L114.296 20H109.296L116.096 0H121.924L128.724 20ZM119.01 5.22857L116.667 12.5714H121.353L119.01 5.22857Z" fill="white"/>
<path d="M148.715 10.8571V0H153.287V20H149.858L142.144 9.14286V20H137.573V0H141.001L148.715 10.8571Z" fill="white"/>
</svg>
