<svg width="13" height="25" viewBox="0 0 13 25" fill="none" xmlns="http://www.w3.org/2000/svg">
<path d="M11.0964 12.499C11.0944 12.1692 10.9776 11.8863 10.7144 11.6252L3.85381 4.82802C3.64168 4.60663 3.37307 4.5 3.05635 4.5C2.41161 4.5 1.90332 4.997 1.90332 5.63767C1.90332 5.94513 2.03864 6.23723 2.2537 6.46675L8.35439 12.497L2.2537 18.5312C2.04067 18.7608 1.90332 19.0436 1.90332 19.3623C1.90332 20.003 2.41161 20.5 3.05635 20.5C3.37104 20.5 3.64168 20.3934 3.85381 20.172L10.7144 13.3728C10.9797 13.1116 11.0964 12.8268 11.0964 12.499Z" fill="black"/>
</svg>
