<svg width="200" height="120" viewBox="0 0 200 120" fill="none" xmlns="http://www.w3.org/2000/svg">
<path d="M108.444 53.5815C108.521 53.3495 108.623 53.1433 108.674 52.9113C108.956 51.8286 109.237 50.7202 109.519 49.6375C109.595 49.354 109.744 48.89 109.846 48.6064C109.953 48.6064 109.928 48.6064 110.03 48.6064C111.897 48.6064 113.739 48.6064 115.606 48.6064C115.606 48.6064 115.638 48.6064 115.7 48.6064C115.419 49.5602 115.12 50.5655 114.865 51.5193C114.379 53.2979 113.841 55.0508 113.407 56.8552C113.151 57.9121 113.023 58.9947 113.407 60.1032C113.816 61.2889 114.634 61.9592 115.837 62.1912C116.374 62.2943 116.911 62.32 117.448 62.3974C117.832 62.4489 118.011 62.2169 118.088 61.8818C118.369 60.7476 118.65 59.6134 118.932 58.505C119.75 55.3601 120.569 52.2153 121.362 49.0704C121.439 48.7869 121.396 48.9442 121.471 48.6837C128.454 48.6837 135.789 48.6837 142.772 48.6837C145.202 48.6837 147.504 49.2251 149.55 50.6686C151.008 51.6997 152.134 52.9628 152.389 54.8188C152.389 54.8703 152.446 55.1981 152.446 55.4217C152.533 55.144 152.677 54.6606 152.722 54.4837C153.182 52.6793 153.735 50.5397 154.17 48.7353C154.403 48.7353 154.206 48.7353 154.436 48.7353C156.559 48.7353 158.656 48.7353 160.779 48.7353C160.779 48.7353 160.788 48.7353 160.841 48.7353C160.662 49.5086 160.473 50.282 160.293 51.0553C159.987 52.3184 159.705 53.5815 159.424 54.8188C159.347 55.1281 159.304 55.3575 159.224 55.7141C159.185 55.8865 159.103 56.1957 159.045 56.4645C159.761 55.6912 160.549 54.8703 161.214 54.1486C162.826 52.3699 164.463 50.6171 166.1 48.8642C166.202 48.7611 166.381 48.658 166.535 48.6322C168.811 48.6322 171.114 48.6322 173.39 48.6322C173.518 48.6322 173.646 48.6322 173.876 48.658C173.62 48.9415 173.441 49.1735 173.237 49.3797C172.623 49.9984 172.009 50.6171 171.42 51.2357C170.142 52.6019 168.863 54.0197 167.584 55.3859C166.919 56.1077 166.253 56.8294 165.588 57.5254C165.256 57.8605 165.463 57.6587 165.121 57.9982C166.554 60.5244 168.249 63.6347 169.655 66.1867C171.088 68.816 172.546 71.4711 174.004 74.1004C174.567 75.1315 175.155 76.1883 175.718 77.2194C175.769 77.3225 175.82 77.4241 175.897 77.6303C175.667 77.6303 175.488 77.6303 175.309 77.6303C173.237 77.6303 171.165 77.6303 169.093 77.6303C168.863 77.6303 168.984 77.6303 168.725 77.6303C166.116 72.8614 163.363 67.888 160.754 63.1191C160.063 61.8818 159.373 60.6445 158.708 59.4072C158.651 59.3027 158.593 59.1984 158.541 59.1087C158.469 58.9639 158.504 59.0334 158.454 58.9293C158.351 59.3417 158.17 59.9743 158.068 60.3867C157.48 62.9129 156.677 66.3156 156.089 68.816C155.629 68.816 156.089 68.816 155.203 68.816C153.822 68.816 152.415 68.816 151.034 68.8418C150.829 68.8418 150.599 68.8418 150.343 68.8418C150.804 67.1147 151.238 65.4391 151.673 63.7636L151.571 63.712C150.241 66.3929 148.169 68.1973 145.304 69.048C142.388 69.8986 139.728 69.4346 137.323 67.424C138.295 65.6969 139.267 63.944 140.214 62.2427C140.776 62.5263 141.288 62.8356 141.825 63.0676C144.23 64.0471 146.557 62.552 147.018 60.0516C147.197 59.0463 147.197 57.9636 146.557 57.0614C145.764 55.9014 144.69 55.1023 143.258 55.0766C140.828 55.025 138.398 55.0766 135.968 55.0508C135.686 55.0508 135.934 55.0508 135.715 55.0508C135.332 56.649 134.817 58.6339 134.433 60.2578C133.742 63.0676 133.077 65.8773 132.361 68.7129H127.066C128.115 64.176 129.138 59.665 130.187 55.1023C130.008 55.1023 129.905 55.0766 129.777 55.0766C128.652 55.0766 127.111 55.0766 125.986 55.0766C125.926 55.3262 125.966 55.123 125.889 55.4632C125.634 56.5974 125.301 57.7316 125.02 58.8401C124.61 60.361 124.227 61.8818 123.817 63.4027C123.408 64.9494 122.913 66.8311 122.504 68.3778C122.387 68.3778 122.411 68.3778 122.18 68.3778C119.853 68.3262 117.499 68.3004 115.172 68.1973C114.327 68.1458 113.483 67.9653 112.665 67.7333C111.284 67.3467 110.235 66.4702 109.493 65.2329C109.109 64.5885 108.751 63.9182 108.342 63.1707C108.086 63.5316 107.83 63.8925 107.6 64.2534C106.807 65.4649 105.937 66.6249 104.761 67.5013C103.635 68.3262 102.071 68.8868 100.694 69.2458C100.694 69.1964 100.694 69.1985 100.694 69.1511C100.694 68.6871 100.694 68.2489 100.694 67.8107C100.694 66.5218 100.619 64.8224 100.619 63.5336C101.05 63.3238 100.898 63.4027 101.18 63.248C102.126 62.6809 102.996 62.0107 103.559 61.0312C104.249 59.8712 104.326 58.6339 103.891 57.3965C103.252 55.6437 101.998 54.4579 100.182 54.0455C98.7497 53.7104 97.4452 54.097 96.3452 55.1281C95.0663 56.3139 94.3756 57.809 93.9919 59.4845C93.199 62.9129 92.3805 66.3671 91.5875 69.7955C91.0248 72.2702 90.42 75.0541 89.8572 77.5288C89.6216 77.5288 89.8225 77.5288 89.5667 77.5288C87.7762 77.5288 85.9856 77.503 84.1951 77.4772C84.1183 77.4772 84.0506 77.4772 83.9023 77.4772C84.1326 76.5492 84.3997 75.647 84.6043 74.7448C85.2183 72.2702 85.8322 69.8213 86.4461 67.3467C86.8297 65.8258 87.2134 64.3307 87.5971 62.8098C88.2622 60.1805 88.8761 57.5512 89.6179 54.9477C90.2574 52.7308 91.6131 50.9779 93.5059 49.6375C96.6266 47.4206 101.717 47.4722 104.812 49.354C106.168 50.1788 107.268 51.2615 108.009 52.6535C108.163 52.937 108.265 53.2721 108.393 53.5815C108.419 53.5815 108.444 53.5815 108.495 53.5815H108.444Z" fill="#0190CA"/>
<path d="M158.835 62.088C158.963 62.32 159.116 62.552 159.244 62.8097C161.086 66.2124 162.928 69.5892 164.795 72.9919C165.741 74.7447 166.88 76.7811 167.826 78.5598C168.092 78.5598 167.915 78.5598 168.146 78.5598C170.473 78.5598 173.176 78.5598 175.504 78.5598C175.714 78.8979 175.532 78.5957 175.743 78.9465C175.954 79.2972 176.209 79.6167 176.439 79.9776C176.285 79.9776 176.152 79.9776 176.075 79.9776C173.313 79.9776 170.55 79.9776 167.788 79.9776C167.404 79.9776 167.66 79.9776 167.355 79.9776C166.101 77.6576 164.59 74.8994 163.337 72.5794C162.083 70.311 160.83 68.0426 159.602 65.7742C159.5 65.5679 159.292 65.2262 159.097 64.8675C158.978 65.3553 158.886 65.7742 158.809 66.1093C158.528 67.3466 158.272 68.6097 157.991 69.847C157.914 70.1821 157.802 70.8365 157.709 71.239C157.506 71.239 157.607 71.239 157.351 71.239C157.121 71.239 156.865 71.239 156.635 71.239C154.026 71.239 150.431 71.239 147.822 71.2132C147.504 71.2101 147.834 71.1431 146.633 71.6514C145.355 72.1928 144.024 72.5279 142.643 72.399C140.162 72.1928 137.809 71.471 135.686 69.9759C135.916 69.5634 136.304 69.024 136.559 68.6373C136.652 68.6921 136.618 68.671 136.76 68.7643C137.988 69.7697 139.446 70.311 140.98 70.6203C141.825 70.775 142.643 70.9729 143.776 70.8647C144.737 70.773 145.355 70.5172 146.147 70.1821C147.094 69.7697 147.964 69.1252 148.859 68.5839C148.961 68.5066 149.064 68.4035 149.217 68.3519C149.038 68.919 148.859 69.4861 148.654 70.1048C148.987 70.1048 149.268 70.1048 149.575 70.1048C151.877 70.1048 154.205 70.079 156.507 70.079C156.686 70.079 156.61 70.079 156.796 70.079C157.052 68.9448 157.428 67.5786 157.709 66.4701C157.965 65.3875 158.221 64.3048 158.477 63.2222C158.553 62.8613 158.656 62.5004 158.732 62.1395C158.75 62.0562 158.752 62.0499 158.767 61.9731L158.835 62.088Z" fill="#0190CA"/>
<path d="M127.091 69.6922C127.219 69.6922 127.347 69.6922 127.45 69.6922C129.189 69.6922 130.928 69.6922 132.668 69.718C133 69.718 132.883 69.718 133.112 69.718C133.93 66.2638 134.919 62.3456 135.763 58.8914C135.942 58.1439 136.191 57.0879 136.396 56.3403C136.525 56.3403 136.479 56.3403 136.581 56.3403C137.579 56.3403 138.561 56.3403 139.6 56.3403C139.192 57.0194 138.756 57.5252 137.988 57.5768C137.758 57.5768 137.656 57.6799 137.605 57.9119C137.144 59.7937 136.658 61.6496 136.198 63.5314C135.635 65.774 134.85 68.8416 134.261 71.0842C134.049 71.0842 133.874 71.0842 133.435 71.0842C131.619 71.0842 129.803 71.0842 127.987 71.0842C127.629 71.0842 127.373 71.0326 127.373 70.5944C127.373 70.3882 127.194 70.2078 127.091 70.0015C127.066 69.9242 127.091 69.8211 127.091 69.6922Z" fill="#0190CA"/>
<path d="M142.695 56.2366C144.306 56.2366 145.508 57.3966 145.559 58.9174C145.611 60.6703 144.101 61.9076 142.822 61.9076C141.288 61.9076 139.881 60.6187 139.881 59.0205C139.881 57.4481 141.083 56.2623 142.695 56.2366Z" fill="#0190CA"/>
<path d="M167.744 59.6537C167.412 59.1382 167.08 58.5878 166.791 58.0888C166.865 57.9955 166.97 57.8863 167.072 57.7574C168.147 56.5716 169.246 55.3859 170.321 54.2001C171.574 52.8081 172.828 51.4161 174.107 50.0242C174.183 49.9468 174.266 49.8499 174.365 49.7354C174.621 50.1993 175.002 50.8323 175.207 51.2963C175.113 51.3906 175.079 51.4677 174.976 51.5708C174.413 52.241 173.825 52.8855 173.237 53.5299C171.6 55.3343 169.963 57.1645 168.326 58.969C168.121 59.1752 167.984 59.3798 167.754 59.6376L167.744 59.6537Z" fill="#0190CA"/>
<path d="M115.503 60C114.838 59.5103 114.608 58.8916 114.787 58.1441C115.171 56.5716 115.606 54.9992 116.04 53.4268C116.424 52.0606 116.916 50.385 117.3 49.0188C117.51 49.0188 117.319 49.0188 117.575 49.0188C117.908 49.0188 118.24 49.0188 118.624 49.0188C117.601 52.6792 116.578 56.3138 115.529 59.9743L115.503 60Z" fill="#0190CA"/>
<path d="M160.754 53.1432C161.035 51.9574 161.342 50.7717 161.624 49.5859C161.7 49.3024 161.751 49.0188 161.828 48.7095H163.261C163.184 48.993 162.706 50.9049 162.629 51.1884C161.71 52.1818 161.966 51.839 161.07 52.8538C161.07 52.8538 160.921 53.0028 160.819 53.0897C160.794 53.1109 160.754 53.1432 160.754 53.1432Z" fill="#0190CA"/>
<path fill-rule="evenodd" clip-rule="evenodd" d="M49.3677 85.2398C63.2702 85.2398 74.5404 73.9396 74.5404 60C74.5404 46.0604 63.2702 34.7602 49.3677 34.7602C35.4652 34.7602 24.1949 46.0604 24.1949 60C24.1949 73.9396 35.4652 85.2398 49.3677 85.2398ZM49.3677 87C64.2397 87 76.2959 74.9117 76.2959 60C76.2959 45.0883 64.2397 33 49.3677 33C34.4956 33 22.4395 45.0883 22.4395 60C22.4395 74.9117 34.4956 87 49.3677 87Z" fill="#0190CA"/>
<path d="M36.7117 80.7465C34.5975 79.4471 32.6972 77.832 31.0762 75.9665C31.1383 75.7023 31.2076 75.4586 31.257 75.2845L31.2713 75.2344C32.5247 70.3883 33.7781 65.5163 34.9803 60.6444C35.5942 58.2213 36.2592 55.8498 37.4615 53.6587C38.9195 50.9778 40.8891 48.7867 43.5749 47.3174C45.6724 46.1574 47.9746 45.745 50.3279 45.9254C54.1648 46.209 57.3877 47.8072 59.9457 50.7458C61.3525 52.344 62.3757 54.2 62.8873 56.2622C63.3733 58.2471 63.5524 60.2577 63.1942 62.2941C62.1711 68.0683 57.7714 72.3731 52.7579 73.6362C52.0673 73.8167 51.351 73.9456 50.6348 73.9971C50.2453 74.0313 49.8445 74.0202 49.4326 74.0088C49.2473 74.0037 49.0597 73.9985 48.8698 73.9974V67.1145C49.1511 67.0759 49.4324 67.0437 49.7137 67.0114C49.9952 66.9792 50.2766 66.947 50.5581 66.9083C53.7299 66.5216 55.9553 64.0986 56.3134 61.0568C56.518 59.2782 56.3134 57.5253 55.2902 55.9786C54.2671 54.3804 52.8091 53.4525 50.9673 53.1173C49.0489 52.7822 47.2328 52.9885 45.5445 54.0453C44.0354 54.9991 43.0889 56.4169 42.6285 58.1182C41.9226 60.7321 41.2377 63.3567 40.5537 65.9782C40.1719 67.4414 39.7903 68.9036 39.4055 70.3625L37.9475 76.0078C37.5638 77.4771 37.1801 78.9722 36.822 80.4415C36.822 80.4977 36.7992 80.5463 36.7701 80.6081C36.7517 80.6472 36.7309 80.6916 36.7117 80.7465Z" fill="#E61D27"/>
<path d="M48.8698 73.9974C48.8443 73.9972 48.8187 73.9971 48.7931 73.9971L48.8698 74.0229V73.9974Z" fill="#E61D27"/>
<path fill-rule="evenodd" clip-rule="evenodd" d="M46.2087 68.8158C46.2087 68.8158 45.9785 68.9963 45.9529 69.0736C45.8762 69.3701 45.8123 69.6665 45.7483 69.963C45.6844 70.2594 45.6204 70.5558 45.5437 70.8523C45.0321 72.8629 44.5269 74.8736 44.0217 76.8842C43.5165 78.8949 43.0113 80.9055 42.4997 82.9161C42.4574 83.087 42.4267 83.2106 42.3915 83.2953C41.8231 83.1244 41.2634 82.9332 40.7133 82.7224C40.7156 82.6801 40.7233 82.6332 40.7348 82.581C41.4329 79.8962 42.123 77.2034 42.8141 74.507L42.8142 74.5065L42.8149 74.5037C43.3644 72.3601 43.9143 70.2142 44.4693 68.0683C45.2367 65.0523 46.0297 62.0364 46.8226 59.0462C47.0528 58.1697 47.2831 57.2675 47.4877 56.3911C47.4877 56.3345 47.4954 56.278 47.5066 56.1959L47.5066 56.1954C47.5158 56.1279 47.5273 56.0432 47.5389 55.9271C47.4287 55.9906 47.3257 56.0467 47.2293 56.0992L47.2287 56.0996C47.0122 56.2176 46.8283 56.3179 46.6692 56.4427C45.7227 57.1129 45.2623 58.0924 44.9553 59.2008C44.3811 61.3872 43.8068 63.5799 43.2325 65.7727L43.2292 65.7854C42.6535 67.9835 42.0778 70.1815 41.5021 72.3731C40.7092 75.3891 39.9418 78.3793 39.1744 81.3953L39.1743 81.396C39.1333 81.5818 39.0923 81.7678 39.0381 82.0068C38.5132 81.7587 37.9986 81.4923 37.4952 81.2084C37.4964 81.1604 37.5023 81.1144 37.5118 81.0859C37.7036 80.3512 37.8891 79.6165 38.0746 78.8818C38.26 78.1472 38.4454 77.4126 38.6373 76.678C38.9904 75.2842 39.352 73.8904 39.7123 72.5015C39.9784 71.4759 40.2438 70.4529 40.5045 69.4345C40.9137 67.8495 41.3166 66.2708 41.7194 64.6922C42.1223 63.1131 42.5252 61.534 42.9346 59.9484C42.9686 59.8181 43.0022 59.6879 43.0357 59.5577C43.2543 58.7092 43.4716 57.8659 43.8043 57.0613C44.5717 55.3084 46.0297 54.3289 47.8202 53.9165C50.3526 53.3236 52.578 53.9165 54.2918 55.9787C55.1615 57.0098 55.5708 58.2471 55.6219 59.6133C55.6731 61.1857 55.315 62.6293 54.3685 63.8666C53.3454 65.207 51.9897 65.9803 50.3014 66.1608C49.868 66.2076 49.4346 66.2261 48.9955 66.2448L48.9949 66.2448L48.9944 66.2448L48.9938 66.2449L48.9932 66.2449C48.7076 66.2571 48.4192 66.2694 48.1272 66.2897V74.9251C48.6643 74.8993 49.2015 74.8736 49.7387 74.822C49.9945 74.7962 50.2503 74.7762 50.5061 74.7561C51.0177 74.716 51.5292 74.6759 52.0408 74.59C55.3661 73.9971 58.1287 72.3474 60.3797 69.847C63.4492 66.4185 64.6002 62.3715 64.0119 57.8089C63.9341 57.1815 63.7527 56.5691 63.5691 55.9489C63.5112 55.7536 63.4532 55.5576 63.398 55.36C63.0143 53.968 62.3237 52.7049 61.5051 51.5449C60.3285 49.8436 58.8193 48.4774 57.0799 47.3174C55.315 46.1574 53.3709 45.5388 51.3246 45.281C48.6899 44.9459 46.132 45.281 43.702 46.4152C41.5277 47.4463 39.7116 48.993 38.2791 50.952C37.5885 51.9316 36.8979 52.9369 36.3351 53.968C35.9439 54.6825 35.693 55.4677 35.4482 56.2335L35.4143 56.3395C35.005 57.6542 34.6213 58.9946 34.2888 60.3351C33.8923 61.8688 33.5022 63.4025 33.1122 64.9362C32.7221 66.47 32.332 68.0038 31.9355 69.5376C31.5547 71.0725 31.1565 72.5897 30.7552 74.1185L30.7518 74.1314C30.669 74.4469 30.586 74.763 30.503 75.0798C30.503 75.12 30.4875 75.1603 30.4563 75.225C29.9603 74.6065 29.4939 73.9631 29.0592 73.297C29.0618 73.2806 29.0656 73.2647 29.0706 73.2496C29.8117 70.391 30.5528 67.5581 31.2939 64.7252L31.296 64.7172C31.6413 63.3897 31.9866 62.0557 32.332 60.7217C32.6773 59.3877 33.0226 58.0537 33.3679 56.7262C33.462 56.3604 33.5774 56.0017 33.6916 55.6463C33.7947 55.3257 33.8969 55.0077 33.9818 54.6898C34.1481 54.0195 34.308 53.3493 34.4679 52.679C34.6277 52.0088 34.7876 51.3387 34.9538 50.6685C35.4397 48.7357 35.9512 46.8287 36.4626 44.9217L36.463 44.9201C36.646 44.1917 36.8323 43.4666 37.0183 42.7425L37.0186 42.7413C37.3525 41.4413 37.6857 40.1442 37.9978 38.8366C38.0295 38.6928 38.071 38.5639 38.1254 38.4483C38.7761 38.1064 39.4443 37.7932 40.1281 37.5105C39.8788 38.7453 39.5489 39.962 39.2209 41.1714C39.0097 41.9504 38.7992 42.7264 38.6117 43.5023C38.2732 44.9208 37.8974 46.3141 37.519 47.7174L37.5186 47.7189C37.3539 48.3298 37.1886 48.9426 37.0258 49.5601C37.0513 49.5601 37.1025 49.5858 37.1281 49.6116C37.2048 49.5343 37.2816 49.457 37.3327 49.3796C37.5465 49.131 37.7497 48.8718 37.9526 48.613C38.3807 48.0668 38.8072 47.5227 39.3279 47.0854C41.2208 45.4872 43.3439 44.2499 45.7995 43.7086C45.9222 43.6811 46.0523 43.6609 46.1823 43.6407C46.54 43.5853 46.8977 43.5298 47.104 43.3219C47.2973 43.1448 47.3578 42.8096 47.4182 42.4751C47.4457 42.3226 47.4732 42.1702 47.5133 42.033C47.8458 40.8473 48.1783 39.6615 48.4597 38.45C48.5413 38.1119 48.6358 37.7738 48.7306 37.4346C48.892 36.8566 49.0545 36.2751 49.1559 35.6847C49.2261 35.6841 49.2964 35.6838 49.3667 35.6838C49.902 35.6838 50.4332 35.7012 50.9598 35.7355C50.314 38.2386 49.6675 40.7445 48.9969 43.3477H49.9177C50.3519 43.3477 50.563 43.3477 50.6941 43.245C50.8181 43.148 50.8707 42.9591 50.9729 42.5915L50.9921 42.5228L50.9933 42.518C51.4533 40.7667 51.9133 39.0155 52.3733 37.29C52.4352 37.0654 52.4792 36.8409 52.5225 36.6192C52.5687 36.383 52.6143 36.1498 52.6803 35.9238C52.6803 35.9189 52.6807 35.914 52.6815 35.9091C53.2727 35.9901 53.8571 36.0925 54.4339 36.2154C54.0535 37.6777 53.6809 39.1323 53.3066 40.5939L53.3054 40.5985C53.0478 41.6045 52.7893 42.6139 52.5268 43.6312C52.8746 43.7364 53.2225 43.8296 53.5863 43.9272L53.5873 43.9274L53.588 43.9276L53.5912 43.9285C53.761 43.974 53.9343 44.0204 54.1127 44.0694C54.1397 43.9699 54.1666 43.8695 54.1937 43.7686C54.3209 43.2949 54.4511 42.8099 54.5987 42.3424C54.829 41.569 55.0592 40.7957 55.2638 40.0224C55.3796 39.5724 55.4739 39.1116 55.5677 38.654L55.5679 38.6528L55.5681 38.6521L55.5682 38.6516C55.6193 38.4023 55.6702 38.1539 55.7242 37.9086C55.7626 37.7153 55.8074 37.5284 55.8521 37.3416C55.8969 37.1547 55.9416 36.9678 55.98 36.7744C55.992 36.7078 56.0111 36.6554 56.0359 36.6149C56.6133 36.7801 57.1819 36.9663 57.7408 37.1725C57.7046 37.3184 57.67 37.464 57.6356 37.6086C57.5718 37.8769 57.5088 38.1416 57.438 38.3984C56.952 40.2544 56.4404 42.1361 55.9289 43.9921C55.8407 44.3222 55.7959 44.4897 55.8496 44.6147C55.9049 44.7436 56.0647 44.8274 56.3893 44.9974C56.561 45.084 56.7268 45.1705 56.8981 45.2598L56.8995 45.2606L56.9013 45.2615L56.9022 45.262C57.0868 45.3583 57.2777 45.458 57.4892 45.5645C57.7194 44.7654 57.924 44.0437 58.1287 43.3219C58.3589 42.4455 58.5827 41.5755 58.8065 40.7055L58.8072 40.7029C59.0308 39.8338 59.2544 38.9646 59.4844 38.0891C59.5032 38.0197 59.5219 37.9642 59.5433 37.9219C60.0667 38.1648 60.58 38.4259 61.0824 38.7044C61.0984 38.7622 61.1046 38.8183 61.0959 38.8624C60.8912 39.6615 60.6866 40.4542 60.482 41.2468C60.2773 42.0395 60.0727 42.8321 59.8681 43.6312L59.1007 46.4152C59.1007 46.4271 59.0995 46.4408 59.0976 46.4557C59.0956 46.4718 59.0928 46.4892 59.0899 46.507C59.0784 46.5787 59.066 46.6555 59.1007 46.673C59.5611 47.0339 60.0471 47.369 60.6099 47.7556C61.3144 45.0426 61.9941 42.3794 62.6735 39.6679C63.2023 40.0166 63.7168 40.3854 64.2157 40.7734C64.1136 41.1717 64.0116 41.5637 63.9096 41.9557L63.9093 41.9568C63.8071 42.3496 63.7049 42.7423 63.6026 43.1415L62.4516 47.6267C62.3493 48.0392 62.2214 48.4516 62.0935 48.864C62.0168 49.1217 62.0167 49.3281 62.1958 49.5601C62.4165 49.8301 62.6275 50.1198 62.8528 50.4291L62.8532 50.4297L62.854 50.4308L62.8551 50.4323C62.9945 50.6238 63.1396 50.823 63.2957 51.0294L63.3418 50.8593C63.5533 50.0781 63.7426 49.3792 63.9096 48.6578C64.1142 47.9103 64.3189 47.137 64.4979 46.3894C64.5798 46.0801 64.6534 45.7708 64.7271 45.4615C64.8376 44.9975 64.9481 44.5335 65.0863 44.0694C65.162 43.8023 65.2272 43.5316 65.2936 43.256C65.3937 42.8408 65.4965 42.4142 65.6418 41.9725C66.1245 42.4109 66.5896 42.8685 67.0357 43.3441C67.0383 43.3816 67.0368 43.4179 67.0303 43.4508C66.884 44.0406 66.7205 44.6133 66.554 45.1968C66.5168 45.3273 66.4793 45.4585 66.442 45.5903C66.3397 45.9895 66.2439 46.3951 66.1481 46.8007L66.1478 46.8019L66.1476 46.8028C66.0517 47.2085 65.9559 47.6142 65.8536 48.0134C65.7769 48.3356 65.681 48.6579 65.585 48.9801C65.4891 49.3023 65.3932 49.6245 65.3165 49.9467C65.2099 50.3333 65.1122 50.7289 65.0142 51.1259C64.8769 51.6819 64.7388 52.2409 64.5747 52.7822C64.4723 53.1174 64.4723 53.3751 64.6258 53.7102C64.8752 54.2815 65.0844 54.8932 65.2891 55.4916C65.3153 55.5683 65.3415 55.6447 65.3676 55.7209C65.3932 55.7724 65.4252 55.824 65.4572 55.8755C65.4891 55.927 65.5211 55.9787 65.5467 56.0302C65.5841 56.0302 65.6079 56.0164 65.638 55.9989C65.649 55.9925 65.6609 55.9855 65.6746 55.9787L68.4988 45.0556C68.9579 45.6455 69.3904 46.2573 69.7945 46.889C69.7909 46.9847 69.758 47.1003 69.7263 47.212C69.7135 47.2569 69.701 47.3011 69.6905 47.3432C69.4731 48.1938 69.2621 49.0445 69.051 49.8952C68.84 50.7458 68.629 51.5965 68.4116 52.4471C68.0026 54.0311 67.5937 55.6086 67.1848 57.1862L67.1836 57.1908L67.1791 57.2083C66.7714 58.7811 66.3637 60.354 65.956 61.9333C64.9839 65.671 64.0375 69.4087 63.0911 73.1465C62.8225 74.2163 62.5475 75.2798 62.2725 76.3432C61.9975 77.4064 61.7225 78.4696 61.454 79.5393L61.4081 79.7249C61.2743 80.2663 61.1367 80.8232 60.9618 81.3619C60.2955 81.7263 59.6104 82.0602 58.9081 82.3618C59.3853 80.5117 59.8569 78.6786 60.3285 76.8455C60.8209 74.9316 61.3133 73.0176 61.8121 71.0843C61.7313 71.1192 61.6661 71.1383 61.6142 71.1536C61.5511 71.1721 61.5076 71.1849 61.4796 71.2132C61.0552 71.6066 60.6421 72.0114 60.2328 72.4125L60.2309 72.4144C60.024 72.617 59.8182 72.8188 59.6123 73.0176C59.3821 73.2496 59.2542 73.4816 59.1774 73.8425C59.077 74.3199 58.9442 74.781 58.811 75.2441L58.8108 75.2446C58.7067 75.6064 58.6021 75.9699 58.5124 76.3429C58.4228 76.678 58.3525 77.0131 58.2822 77.3482C58.2118 77.6833 58.1415 78.0184 58.0519 78.3535C57.6533 79.9604 57.2304 81.5673 56.8069 83.1503C56.1622 83.3585 55.5057 83.5403 54.8387 83.6945C55.2171 82.2501 55.5851 80.8264 55.9532 79.4027L55.9533 79.4021L55.9545 79.3972C56.351 77.8636 56.7474 76.3299 57.1567 74.7705L57.111 74.7819L57.0549 74.7957C56.9076 74.8319 56.806 74.8569 56.7218 74.8993C56.5681 74.9716 56.4144 75.0481 56.259 75.1253L56.2584 75.1256C56.0262 75.2411 55.7903 75.3584 55.5452 75.4664C55.1615 75.6469 55.0336 75.982 54.9569 76.3429C54.3231 78.8976 53.6893 81.4776 53.0805 84.0327C52.4529 84.1294 51.8174 84.202 51.1749 84.2495L51.1871 84.2024C51.2601 83.9189 51.3332 83.6356 51.4063 83.3525L51.5343 82.8563L51.535 82.8539C52.0873 80.7141 52.6396 78.5744 53.1919 76.3687C53.1514 76.3721 53.1114 76.3754 53.072 76.3786C53.019 76.3829 52.9669 76.387 52.9157 76.3911L52.9012 76.3923L52.9007 76.3923L52.8998 76.3924C52.4193 76.4307 52.0165 76.4629 51.6315 76.5491C51.5036 76.5491 51.3502 76.7811 51.299 76.9358C51.002 78.0047 50.7226 79.0914 50.4462 80.1663L50.2758 80.8282L50.1349 81.3949L50.1346 81.396L50.1339 81.3987C49.9005 82.3361 49.6701 83.2616 49.4573 84.205C49.4463 84.2457 49.4342 84.2826 49.4208 84.316C49.4028 84.316 49.3848 84.3161 49.3667 84.3161C48.7625 84.3161 48.1635 84.2939 47.5704 84.2504C47.8533 83.1696 48.1283 82.1011 48.4024 81.0358L48.4028 81.0342L48.4038 81.0302C48.7679 79.6152 49.1305 78.2059 49.5085 76.7811H47.59C47.4351 77.3728 47.2775 77.9698 47.119 78.5703C46.7804 79.8534 46.4375 81.1528 46.1064 82.4522C46.0425 82.7228 45.9721 82.9871 45.9018 83.2513C45.8323 83.5121 45.7629 83.7729 45.6996 84.0399C45.1023 83.949 44.5121 83.8363 43.9299 83.7026C44.0585 83.1968 44.1872 82.7214 44.3159 82.2459C44.501 81.5292 44.6787 80.8124 44.856 80.0971C45.1442 78.9345 45.4316 77.7754 45.7483 76.6264C46.0808 75.4149 46.132 74.1776 46.1576 72.9145V68.8674L46.2087 68.8158ZM47.4365 64.5368C47.379 64.5561 47.2639 64.5175 47.2099 64.4969C47.3112 64.1004 47.4124 63.7187 47.5115 63.3454L47.5117 63.3447C47.6365 62.874 47.7579 62.4165 47.8714 61.959C48.1016 61.018 48.3319 60.0706 48.5621 59.1232C48.7923 58.176 49.0225 57.2288 49.2527 56.288C49.3806 55.6951 49.4061 55.6951 50.02 55.6951H50.1479C51.1711 55.7982 51.2223 55.9013 50.9665 56.9066C50.8611 57.3137 50.7557 57.72 50.6505 58.1258L50.6498 58.1286C50.1421 60.086 49.6375 62.0319 49.1504 63.9955C49.048 64.3821 48.8946 64.4852 48.5109 64.4852C48.3062 64.4705 48.1016 64.4894 47.8969 64.5084C47.7435 64.5226 47.59 64.5368 47.4365 64.5368ZM50.8642 64.1501C50.8642 64.1501 50.9409 64.2017 50.9665 64.2275C52.3222 63.6088 53.2942 62.6292 53.6779 61.1342C53.9848 59.8968 53.729 58.6595 53.1151 57.5511C53.0573 57.4539 52.9704 57.3714 52.8873 57.2925C52.8754 57.2812 52.8636 57.27 52.8519 57.2588C52.837 57.2445 52.8223 57.2302 52.8082 57.216C52.789 57.2482 52.7682 57.2804 52.7474 57.3126C52.6851 57.4093 52.6227 57.506 52.6036 57.6026C52.3861 58.4404 52.1687 59.2846 51.9513 60.1288C51.7339 60.9731 51.5164 61.8173 51.299 62.655C51.2351 62.8999 51.1647 63.1448 51.0944 63.3897C51.024 63.6346 50.9537 63.8795 50.8897 64.1243L50.8642 64.1501Z" fill="#0190CA"/>
<path d="M71.1364 49.272C72.7255 52.5078 73.6182 56.1494 73.6182 59.9999C73.6182 68.2659 69.5047 75.5684 63.2183 79.962L71.1364 49.272Z" fill="#0190CA"/>
<path d="M27.7996 71.1309C26.0839 67.7957 25.1152 64.0112 25.1152 59.9999C25.1152 51.5683 29.3953 44.1389 35.8959 39.777C34.5231 45.0764 33.1567 50.3758 31.7869 55.6887L31.786 55.6923C30.4634 60.8219 29.1376 65.9641 27.7996 71.1309Z" fill="#0190CA"/>
<path d="M99.8262 70.7667C99.6392 70.7775 99.5789 70.7791 99.3894 70.7914V70.6718V61.9122C99.517 61.8953 99.5893 61.8796 99.717 61.8491L100.071 61.7457C100.663 61.4725 100.942 61.2952 101.41 60.799C102.254 59.8453 102.587 58.7626 102.254 57.5253C102.07 56.8388 101.604 56.1798 100.888 55.7673C99.9671 55.226 98.4425 55.3538 97.6755 55.9013C96.4477 56.7777 95.8083 58.015 95.4502 59.4328C95.2361 60.2598 95.0469 61.0743 94.8565 61.8937C94.7739 62.2492 94.6912 62.6056 94.606 62.9643L93.5317 67.3723C93.4294 67.8105 93.3399 68.2551 93.2503 68.6998C93.1608 69.1445 93.0713 69.5891 92.9689 70.0274C92.7558 70.9467 92.5398 71.8661 92.3238 72.7855C91.8918 74.6243 91.3416 76.9271 90.9323 78.7659C90.6787 78.7659 90.8459 78.7659 90.4878 78.7659C89.717 78.7651 87.1863 78.7646 84.5273 78.7643V80.0737C85.4714 80.075 86.3639 80.0765 87.1118 80.0778C88.0453 80.0794 88.7534 80.0806 89.0553 80.0806H92.2596C92.3362 79.6366 92.4664 79.048 92.5806 78.5314C92.6189 78.3582 92.6555 78.193 92.6876 78.0442C93.4038 74.6931 94.1456 71.342 94.8874 67.9909C95.1688 66.7278 95.4757 65.439 95.7827 64.1759C95.8033 64.0783 95.8239 63.9806 95.8445 63.8827C96.08 62.7654 96.319 61.6315 96.6012 60.5412C96.8058 59.7937 97.0616 59.0462 97.3686 58.3502C97.6244 57.7573 98.0848 57.3448 98.7499 57.2159C99.4149 57.0871 99.9777 57.2933 100.285 57.8604C100.643 58.479 100.592 59.0977 100.182 59.5359C99.6707 60.0773 99.0312 60.4124 98.3406 60.5412C98.1838 60.5644 98.1903 60.5644 97.9569 60.5644V72.3989C98.3417 72.3747 98.719 72.3555 99.0903 72.3366C99.9037 72.2953 100.689 72.2554 101.461 72.1669C103.942 71.9091 106.066 70.9038 107.779 69.0478L108.623 68.1198C109.161 68.558 109.698 68.9963 110.235 69.4087C111.514 70.3882 112.998 70.9296 114.558 71.0069C116.842 71.0806 119.125 71.0884 121.409 71.0963C122.323 71.0995 123.236 71.1027 124.15 71.11C124.431 71.11 124.264 71.11 124.514 71.11C124.654 70.5429 124.905 69.6214 125.058 69.0607C125.212 68.5 125.365 67.9394 125.506 67.3723C125.902 65.8382 126.293 64.2977 126.683 62.7572C127.073 61.2173 127.463 59.6774 127.859 58.1439C127.946 57.8078 128.025 57.4717 128.105 57.1309C128.166 56.8706 128.227 56.6075 128.294 56.3395H126.913C126.606 57.525 126.299 58.6847 125.992 59.8444L125.992 59.8453C125.57 61.4435 125.148 63.0352 124.726 64.627C124.304 66.2187 123.801 68.1456 123.379 69.7438C123.108 69.7438 123.28 69.7438 123.025 69.7438H115.735C115.121 69.7438 114.481 69.6923 113.842 69.6149C112.512 69.4603 111.412 68.8158 110.465 67.9394C110.022 67.5441 109.624 67.1031 109.226 66.662C109.027 66.4414 108.828 66.2209 108.623 66.0061C108.617 66.0004 108.61 65.9948 108.604 65.9892C108.461 65.8688 108.361 65.7843 108.214 66.0061C108.112 66.1478 107.997 66.2767 107.882 66.4056C107.767 66.5345 107.651 66.6634 107.549 66.8052C106.833 67.7847 105.963 68.6354 104.966 69.3314C103.942 70.0531 102.791 70.414 101.589 70.6202C101.005 70.6987 100.421 70.7324 99.8262 70.7667Z" fill="#0190CA"/>
</svg>
