<svg width="200" height="120" viewBox="0 0 200 120" fill="none" xmlns="http://www.w3.org/2000/svg">
<path d="M32.8142 41.0254C35.8521 48.8373 30.8887 53.8717 25.9681 58.906C21.3898 64.0272 17.3249 69.3654 25.4546 79.0001C22.4167 71.1881 27.3801 66.1538 32.3007 61.1194C36.8791 55.9549 40.9439 50.6167 32.8142 41.0254Z" fill="#EF3E42"/>
<path d="M25.4548 31C28.4928 38.8119 23.5293 43.8463 18.6087 48.8806C14.0304 54.0452 9.96552 59.3834 18.0953 68.9747C15.0573 61.1627 20.0207 56.1284 24.9414 51.094C29.5625 45.9729 33.5845 40.6347 25.4548 31Z" fill="#00B274"/>
<path d="M150.311 61.9873V78.0018H157.199V72.1428H164.773V68.6274H157.199V65.5027H172.261V78.0018H179.15V65.5027H185.44V61.9873" fill="#00B274"/>
<path d="M135.506 74.5298V71.7522H144.491V68.2368H135.506V65.5027H147.059V61.9873H128.574V78.0018H147.187V74.5298" fill="#00B274"/>
<path d="M62.7239 61.9873H43.5977V65.5027H49.7164V78.0018H56.6052V65.5027H62.7239" fill="#EF3E42"/>
<path d="M67.9424 71.9258L71.1516 65.7197L74.1895 71.9258H67.9424ZM76.3289 61.9873H68.9266L60.3262 78.0018H64.8189L66.2309 75.2676H75.901L77.313 78.0018H84.9721" fill="#EF3E42"/>
<path d="M120.146 61.9873V69.9728L109.106 61.9873H103.758V78.0018H108.465V69.1916L119.803 78.0018H124.852V62.0307" fill="#00B274"/>
<path d="M101.403 61.9873H82.6621V65.5027H88.7808V78.0018H95.6697V65.5027H101.361" fill="#EF3E42"/>
</svg>
