<svg width="200" height="120" viewBox="0 0 200 120" fill="none" xmlns="http://www.w3.org/2000/svg">
<path fill-rule="evenodd" clip-rule="evenodd" d="M56.8026 54.9914V54.323H73.2357C85.0504 54.323 95.1804 63.3446 95.1804 75.4719V99.3706C95.1777 100.275 94.8114 101.142 94.1616 101.782C93.5117 102.422 92.6311 102.783 91.7121 102.785H91.1338C90.2149 102.783 89.3344 102.422 88.6847 101.782C88.035 101.142 87.669 100.275 87.6665 99.3706V74.0415C87.6665 57.2012 70.4949 54.7906 56.8026 54.9914ZM52.9498 58.0576V57.5487H68.947C77.9361 57.5487 85.6437 64.4128 85.6437 73.6408V91.8252C85.642 92.5137 85.3634 93.1734 84.869 93.6602C84.3746 94.147 83.7045 94.4212 83.0053 94.4229H82.5657C81.8665 94.4212 81.1964 94.147 80.7019 93.6602C80.2075 93.1734 79.929 92.5137 79.9272 91.8252V72.8183C79.9272 59.9722 64.4311 57.9045 52.9498 58.0576ZM49.7246 61.0991V60.7204H65.3726C72.0818 60.7204 77.8346 65.8432 77.8346 72.7312V86.3035C77.8331 86.8172 77.6252 87.3094 77.2563 87.6726C76.8874 88.0358 76.3875 88.2404 75.8658 88.2419H75.537C75.0153 88.2404 74.5154 88.0358 74.1465 87.6726C73.7776 87.3094 73.5697 86.8172 73.5682 86.3035V72.1838C73.5673 61.6832 57.5002 61.144 49.7246 61.0991Z" fill="#41A4DC"/>
<path fill-rule="evenodd" clip-rule="evenodd" d="M98.2044 102.132H97.5255V76.2046C97.5255 64.5725 106.69 54.6 119.006 54.6H138.959C139.878 54.6027 140.758 54.9633 141.408 55.6031C142.058 56.2429 142.424 57.1099 142.426 58.0146V58.584C142.424 59.4888 142.058 60.3557 141.408 60.9956C140.758 61.6354 139.878 61.996 138.959 61.9987H117.555C100.62 61.9987 98.0517 78.5666 98.1998 91.9785C98.2007 92.1133 98.2026 101.997 98.2044 102.132ZM101.319 99.5816H100.802V80.428C100.802 71.5778 107.774 63.9884 117.147 63.9884H135.001C135.7 63.9906 136.369 64.265 136.864 64.7517C137.358 65.2384 137.636 65.8979 137.638 66.5861V67.0198C137.637 67.708 137.358 68.3676 136.864 68.8544C136.37 69.3411 135.7 69.6155 135.001 69.6174H116.311C103.418 69.6174 101.215 84.5165 101.315 95.7755C101.315 95.9102 101.317 99.4468 101.319 99.5816ZM104.023 96.7666V83.9471C104.023 77.3416 109.228 71.6777 116.222 71.6777H129.39C129.911 71.6789 130.412 71.8835 130.781 72.2468C131.15 72.61 131.358 73.1023 131.359 73.6161V73.9398C131.358 74.4538 131.15 74.9463 130.781 75.3097C130.412 75.6732 129.912 75.8779 129.39 75.8791H115.668C106.096 75.8791 104.671 88.6207 104.45 96.7666H104.023ZM13 27.8065V31.0103H16.0454V39.0214H19.7651V31.0103H22.8105V27.8065H13ZM32.1786 39.0214H35.8983V33.872C35.8983 30.5766 34.1083 28.6538 32.1097 27.9441C31.3423 27.669 30.5293 27.5782 29.7153 27.5782C28.6694 27.5782 27.6003 27.7616 26.6699 28.2191C24.6713 29.1801 23.3218 31.3083 23.3218 33.6437C23.3218 37.26 26.2741 39.2553 29.1332 39.2553C29.9239 39.2553 30.4818 39.0948 31.2026 38.8619V35.5894C30.668 35.7499 30.0636 35.8635 29.5989 35.8635C29.1574 35.8635 28.6918 35.7489 28.2969 35.5206C27.9189 35.3199 27.6029 35.0227 27.3819 34.6601C27.161 34.2976 27.0434 33.8831 27.0415 33.4603C27.0415 32.5443 27.5528 31.7209 28.2969 31.3083C28.6917 31.0808 29.1415 30.9623 29.5989 30.9653C30.0403 30.9653 30.4818 31.057 30.8543 31.2624C31.97 31.8575 32.1796 32.9789 32.1796 34.2149L32.1786 39.0214ZM36.6182 27.8065V31.0103H39.6636V39.0214H43.3833V31.0103H46.4287V27.8065H36.6182ZM47.2651 39.0214H50.9847V34.6954H53.8439V39.0214H57.5636V27.8065H53.8439V31.3541H50.9847V27.8065H47.2651V39.0214ZM68.6751 33.894C68.0008 35.1529 66.7687 35.9993 65.3512 35.9993C63.4914 35.9993 62.4455 34.5808 62.4455 33.2301C62.4455 31.8795 63.3983 30.5976 65.0029 30.5976C65.4677 30.5976 66.1187 30.7123 66.6998 31.3064L63.4681 33.2063L64.6304 35.2199L70.86 31.6723C69.9529 29.269 67.8844 27.5755 64.9089 27.5755C61.1426 27.5755 58.7249 30.2529 58.7249 33.32C58.7249 36.6154 61.328 39.2516 65.0011 39.2516C67.3955 39.2516 69.6269 38.0348 70.9755 35.9974L68.6751 33.894ZM82.4372 23H78.7175V35.6792C77.1604 35.8856 76.0204 34.7412 76.0204 33.3906C76.0204 32.4067 76.6016 31.4678 77.7415 31.1478V27.8065C74.44 28.0348 72.3017 30.5756 72.3017 33.3906C72.3017 37.625 75.9981 39.048 78.7175 39.0214V43.8316H82.4372V31.1478C83.9944 30.9415 85.1343 32.0858 85.1343 33.4364C85.1343 34.4203 84.5532 35.3592 83.4142 35.6792V39.0214C86.7148 38.7922 88.8531 36.2514 88.8531 33.4374C88.8531 29.203 85.1567 27.7836 82.4372 27.8074V23ZM89.1781 27.8065V31.0103H92.2235V39.0214H95.9432V31.0103H98.9886V27.8065H89.1781ZM109.449 33.894C108.774 35.1529 107.543 35.9993 106.124 35.9993C104.265 35.9993 103.22 34.5808 103.22 33.2301C103.22 31.8795 104.172 30.5976 105.777 30.5976C106.241 30.5976 106.892 30.7123 107.474 31.3064L104.241 33.2063L105.404 35.2199L111.633 31.6723C110.727 29.269 108.658 27.5755 105.681 27.5755C101.916 27.5755 99.498 30.2529 99.498 33.32C99.498 36.6154 102.101 39.2516 105.775 39.2516C108.169 39.2516 110.401 38.0348 111.749 35.9974L109.449 33.894ZM119.096 27.5773C115.656 27.5773 112.889 30.163 112.889 33.4135C112.889 36.6631 115.656 39.2534 119.096 39.2534C122.537 39.2534 125.304 36.6631 125.304 33.4135C125.304 30.1639 122.537 27.5773 119.096 27.5773ZM116.609 33.4135C116.609 32.0858 117.748 30.9644 119.096 30.9644C120.445 30.9644 121.584 32.0858 121.584 33.4135C121.584 34.7412 120.445 35.8617 119.096 35.8617C117.748 35.8626 116.609 34.7412 116.609 33.4135ZM125.722 27.8065V31.0103H128.767V39.0214H132.487V31.0103H135.532V27.8065H125.722ZM138.251 43.4419C140.11 43.8307 140.623 43.9682 142.226 43.9682C143.483 43.9682 144.947 43.8078 146.247 42.7781C147.875 41.4971 148.225 39.8027 148.225 37.8074V33.9857C148.225 32.315 147.875 29.7972 145.341 28.3548C144.364 27.8056 143.226 27.5764 142.063 27.5764C140.832 27.5764 139.576 27.8515 138.552 28.5144C137.064 29.4753 136.042 31.2606 136.042 33.3209C136.042 35.6783 137.39 37.5553 138.855 38.3567C139.715 38.8371 140.739 39.0205 141.738 39.0205C142.505 39.0205 142.993 38.9518 143.528 38.6996V35.3125C143.133 35.4959 142.575 35.6325 142.111 35.6325C141.803 35.6333 141.497 35.5741 141.212 35.4583C140.927 35.3424 140.667 35.1721 140.449 34.9573C140.231 34.7425 140.058 34.4874 139.941 34.2065C139.823 33.9257 139.763 33.6247 139.764 33.3209C139.764 31.9932 140.809 30.9635 142.111 30.9635C143.11 30.9635 144.505 31.5586 144.505 34.0985V37.7854C144.505 39.2305 144.598 40.627 141.808 40.627C140.415 40.627 139.647 40.3748 138.252 40.009L138.251 43.4419ZM158.196 39.0214H161.916V33.872C161.916 30.5766 160.126 28.6538 158.127 27.9441C157.36 27.669 156.547 27.5782 155.734 27.5782C154.688 27.5782 153.619 27.7616 152.687 28.2191C150.689 29.1801 149.34 31.3083 149.34 33.6437C149.34 37.26 152.293 39.2553 155.152 39.2553C155.943 39.2553 156.499 39.0948 157.222 38.8619V35.5894C156.687 35.7499 156.081 35.8635 155.617 35.8635C155.175 35.8635 154.709 35.7489 154.315 35.5206C153.937 35.3201 153.621 35.0229 153.4 34.6603C153.179 34.2977 153.062 33.8831 153.06 33.4603C153.06 32.5443 153.571 31.7209 154.315 31.3083C154.71 31.0808 155.16 30.9623 155.617 30.9653C156.06 30.9653 156.499 31.057 156.873 31.2624C157.988 31.8575 158.197 32.9789 158.197 34.2149L158.196 39.0214ZM163.288 27.8065V31.6512C163.288 32.9551 163.473 34.3745 165.263 35.3134C166.356 35.8856 167.542 35.9314 168.704 35.9314H169.541V39.0214H173.26V27.8074H169.541V32.5901H168.959C168.865 32.5901 168.006 32.5901 167.611 32.3838C166.983 32.0638 167.007 31.4916 167.007 30.8507V27.8074L163.288 27.8065ZM183.28 39.0214H187V33.872C187 30.5766 185.21 28.6538 183.21 27.9441C182.444 27.669 181.629 27.5782 180.816 27.5782C179.77 27.5782 178.701 27.7616 177.771 28.2191C175.772 29.1801 174.423 31.3083 174.423 33.6437C174.423 37.26 177.376 39.2553 180.235 39.2553C181.025 39.2553 181.583 39.0948 182.303 38.8619V35.5894C181.769 35.7499 181.164 35.8635 180.699 35.8635C180.256 35.8635 179.793 35.7489 179.399 35.5206C179.02 35.3202 178.704 35.023 178.483 34.6604C178.261 34.2979 178.143 33.8833 178.141 33.4603C178.141 32.5443 178.654 31.7209 179.399 31.3083C179.793 31.081 180.242 30.9626 180.699 30.9653C181.141 30.9653 181.583 31.057 181.954 31.2624C183.071 31.8575 183.28 32.9789 183.28 34.2149V39.0214Z" fill="#363637"/>
</svg>
