<svg width="200" height="120" viewBox="0 0 200 120" fill="none" xmlns="http://www.w3.org/2000/svg">
<path d="M27.8756 98.6728H25.9328L25.1605 95.7678H21.6247L20.8946 98.6728H19L22.4453 85.8841H24.3338L27.8756 98.6728ZM24.5872 93.6131L23.3684 88.8675L22.1737 93.6131H24.5872Z" fill="#3D3F95"/>
<path d="M28.298 92.3569C28.298 91.0542 28.4328 89.9609 28.7023 89.0769C28.9034 88.4256 29.1769 87.8411 29.5229 87.3235C29.8728 86.8059 30.2549 86.4221 30.6693 86.172C31.2203 85.8347 31.8559 85.666 32.5759 85.666C33.8792 85.666 34.921 86.2505 35.7014 87.4194C36.4858 88.5884 36.878 90.2139 36.878 92.2959C36.878 94.3604 36.4898 95.9772 35.7135 97.1462C34.9371 98.3093 33.8993 98.8909 32.6001 98.8909C31.2847 98.8909 30.2389 98.3122 29.4625 97.1549C28.6862 95.9917 28.298 94.3924 28.298 92.3569ZM30.1383 92.2697C30.1383 93.7178 30.3696 94.817 30.8322 95.5672C31.2948 96.3116 31.882 96.6838 32.594 96.6838C33.306 96.6838 33.8893 96.3145 34.3438 95.5759C34.8024 94.8315 35.0317 93.7178 35.0317 92.2348C35.0317 90.7693 34.8084 89.6759 34.3619 88.9548C33.9194 88.2336 33.3301 87.8731 32.594 87.8731C31.8579 87.8731 31.2646 88.2395 30.8141 88.9722C30.3636 89.6992 30.1383 90.7983 30.1383 92.2697Z" fill="#3D3F95"/>
<path d="M44.6374 90.0976L43.0686 94.0319L44.6374 98.0621H43.3039L41.3973 94.0319L43.3039 90.0976H44.6374ZM47.0026 90.0976L45.4399 94.0319L47.0026 98.0621H45.6692L43.7625 94.0319L45.6692 90.0976H47.0026Z" fill="#3D3F95"/>
<path d="M54.2552 93.9708L55.9869 94.7646C55.7214 96.1604 55.2789 97.1985 54.6594 97.8789C54.044 98.5536 53.2616 98.8909 52.3123 98.8909C51.1377 98.8909 50.1723 98.3122 49.4161 97.1549C48.6599 95.9917 48.2818 94.4041 48.2818 92.3918C48.2818 90.2633 48.6619 88.6117 49.4221 87.4369C50.1824 86.2563 51.182 85.666 52.4209 85.666C53.503 85.666 54.3819 86.1284 55.0577 87.0531C55.4599 87.5997 55.7616 88.3848 55.9627 89.4084L54.1948 90.019C54.0902 89.3561 53.871 88.8327 53.5372 88.4488C53.2073 88.065 52.8051 87.8731 52.3304 87.8731C51.6747 87.8731 51.1418 88.2133 50.7315 88.8937C50.3252 89.5741 50.1221 90.6762 50.1221 92.1999C50.1221 93.8167 50.3232 94.9682 50.7254 95.6544C51.1277 96.3407 51.6506 96.6838 52.2942 96.6838C52.7689 96.6838 53.1771 96.4657 53.5191 96.0295C53.861 95.5934 54.1063 94.9071 54.2552 93.9708Z" fill="#3D3F95"/>
<path d="M58.9374 92.2348L57.3988 91.8335C57.5717 90.9379 57.8694 90.2749 58.2917 89.8446C58.7141 89.4142 59.3416 89.199 60.1743 89.199C60.9305 89.199 61.4937 89.3299 61.8637 89.5916C62.2338 89.8475 62.4932 90.1761 62.6421 90.5774C62.7949 90.9728 62.8714 91.7027 62.8714 92.767L62.8533 95.6283C62.8533 96.4425 62.8794 97.0444 62.9317 97.434C62.988 97.8179 63.0906 98.2308 63.2394 98.6728H61.562C61.5178 98.5099 61.4635 98.2686 61.3991 97.9487C61.371 97.8033 61.3509 97.7074 61.3388 97.6608C61.0492 98.0679 60.7394 98.3733 60.4096 98.5768C60.0797 98.7804 59.7278 98.8821 59.3537 98.8821C58.694 98.8821 58.1731 98.6233 57.7909 98.1057C57.4128 97.5881 57.2238 96.9339 57.2238 96.143C57.2238 95.6195 57.3103 95.1543 57.4832 94.7472C57.6562 94.3343 57.8975 94.0202 58.2073 93.8051C58.521 93.5841 58.9715 93.3921 59.5588 93.2293C60.3513 93.0141 60.9003 92.8135 61.206 92.6274V92.3831C61.206 91.9121 61.1256 91.5776 60.9647 91.3799C60.8038 91.1764 60.5001 91.0746 60.0536 91.0746C59.7519 91.0746 59.5166 91.1618 59.3476 91.3363C59.1787 91.505 59.0419 91.8045 58.9374 92.2348ZM61.206 94.2238C60.9888 94.3285 60.6449 94.4535 60.1743 94.5989C59.7036 94.7443 59.3959 94.8868 59.2511 95.0263C59.0299 95.2532 58.9193 95.541 58.9193 95.89C58.9193 96.2331 59.0077 96.5297 59.1847 96.7798C59.3617 97.0298 59.587 97.1549 59.8605 97.1549C60.1662 97.1549 60.4579 97.0095 60.7354 96.7187C60.9406 96.4977 61.0753 96.2273 61.1397 95.9074C61.1839 95.6981 61.206 95.2997 61.206 94.7123V94.2238Z" fill="#3D3F95"/>
<path d="M64.597 89.4084H66.6968L68.2897 95.8638L69.8946 89.4084H71.9883V98.6728H70.5463V92.575L68.9835 98.6728H67.5354L66.0451 92.575V98.6728H64.597V89.4084Z" fill="#3D3F95"/>
<path d="M74.794 92.2348L73.2554 91.8335C73.4284 90.9379 73.7261 90.2749 74.1484 89.8446C74.5708 89.4142 75.1983 89.199 76.031 89.199C76.7872 89.199 77.3503 89.3299 77.7204 89.5916C78.0905 89.8475 78.3499 90.1761 78.4988 90.5774C78.6516 90.9728 78.728 91.7027 78.728 92.767L78.7099 95.6283C78.7099 96.4425 78.7361 97.0444 78.7884 97.434C78.8447 97.8179 78.9473 98.2308 79.0961 98.6728H77.4187C77.3745 98.5099 77.3202 98.2686 77.2558 97.9487C77.2276 97.8033 77.2075 97.7074 77.1955 97.6608C76.9058 98.0679 76.5961 98.3733 76.2663 98.5768C75.9364 98.7804 75.5845 98.8821 75.2104 98.8821C74.5507 98.8821 74.0298 98.6233 73.6476 98.1057C73.2695 97.5881 73.0805 96.9339 73.0805 96.143C73.0805 95.6195 73.1669 95.1543 73.3399 94.7472C73.5129 94.3343 73.7542 94.0202 74.064 93.8051C74.3777 93.5841 74.8282 93.3921 75.4155 93.2293C76.2079 93.0141 76.757 92.8135 77.0627 92.6274V92.3831C77.0627 91.9121 76.9823 91.5776 76.8214 91.3799C76.6605 91.1764 76.3568 91.0746 75.9103 91.0746C75.6086 91.0746 75.3733 91.1618 75.2043 91.3363C75.0354 91.505 74.8986 91.8045 74.794 92.2348ZM77.0627 94.2238C76.8455 94.3285 76.5016 94.4535 76.031 94.5989C75.5603 94.7443 75.2526 94.8868 75.1078 95.0263C74.8866 95.2532 74.7759 95.541 74.7759 95.89C74.7759 96.2331 74.8644 96.5297 75.0414 96.7798C75.2184 97.0298 75.4437 97.1549 75.7172 97.1549C76.0229 97.1549 76.3145 97.0095 76.5921 96.7187C76.7972 96.4977 76.932 96.2273 76.9964 95.9074C77.0406 95.6981 77.0627 95.2997 77.0627 94.7123V94.2238Z" fill="#3D3F95"/>
<path d="M80.3571 89.4084H81.938V90.7693C82.1431 90.304 82.4207 89.926 82.7706 89.6352C83.1206 89.3444 83.5088 89.199 83.9352 89.199C84.6793 89.199 85.3109 89.6207 85.8298 90.4639C86.3487 91.3072 86.6081 92.482 86.6081 93.9882C86.6081 95.5352 86.3466 96.7391 85.8237 97.5998C85.3008 98.4547 84.6673 98.8821 83.9231 98.8821C83.5691 98.8821 83.2473 98.7804 82.9577 98.5768C82.6721 98.3733 82.3704 98.0243 82.0526 97.53V102.197H80.3571V89.4084ZM82.0345 93.8836C82.0345 94.9246 82.1773 95.6951 82.4629 96.1953C82.7485 96.6896 83.0965 96.9368 83.5068 96.9368C83.901 96.9368 84.2288 96.71 84.4903 96.2564C84.7517 95.7969 84.8825 95.0467 84.8825 94.0057C84.8825 93.0345 84.7477 92.3133 84.4782 91.8423C84.2087 91.3712 83.8748 91.1357 83.4766 91.1357C83.0623 91.1357 82.7184 91.3683 82.4448 91.8335C82.1713 92.293 82.0345 92.9763 82.0345 93.8836Z" fill="#3D3F95"/>
<path d="M89.2268 92.2348L87.6881 91.8335C87.8611 90.9379 88.1588 90.2749 88.5811 89.8446C89.0035 89.4142 89.631 89.199 90.4637 89.199C91.2199 89.199 91.7831 89.3299 92.1531 89.5916C92.5232 89.8475 92.7826 90.1761 92.9315 90.5774C93.0843 90.9728 93.1608 91.7027 93.1608 92.767L93.1427 95.6283C93.1427 96.4425 93.1688 97.0444 93.2211 97.434C93.2774 97.8179 93.38 98.2308 93.5288 98.6728H91.8514C91.8072 98.5099 91.7529 98.2686 91.6885 97.9487C91.6604 97.8033 91.6403 97.7074 91.6282 97.6608C91.3386 98.0679 91.0288 98.3733 90.699 98.5768C90.3691 98.7804 90.0172 98.8821 89.6431 98.8821C88.9834 98.8821 88.4625 98.6233 88.0803 98.1057C87.7022 97.5881 87.5132 96.9339 87.5132 96.143C87.5132 95.6195 87.5997 95.1543 87.7726 94.7472C87.9456 94.3343 88.1869 94.0202 88.4967 93.8051C88.8104 93.5841 89.2609 93.3921 89.8482 93.2293C90.6407 93.0141 91.1897 92.8135 91.4954 92.6274V92.3831C91.4954 91.9121 91.415 91.5776 91.2541 91.3799C91.0932 91.1764 90.7895 91.0746 90.343 91.0746C90.0413 91.0746 89.806 91.1618 89.637 91.3363C89.4681 91.505 89.3313 91.8045 89.2268 92.2348ZM91.4954 94.2238C91.2782 94.3285 90.9343 94.4535 90.4637 94.5989C89.993 94.7443 89.6853 94.8868 89.5405 95.0263C89.3193 95.2532 89.2086 95.541 89.2086 95.89C89.2086 96.2331 89.2971 96.5297 89.4741 96.7798C89.6511 97.0298 89.8764 97.1549 90.1499 97.1549C90.4556 97.1549 90.7473 97.0095 91.0248 96.7187C91.23 96.4977 91.3647 96.2273 91.4291 95.9074C91.4733 95.6981 91.4954 95.2997 91.4954 94.7123V94.2238Z" fill="#3D3F95"/>
<path d="M94.7959 89.4084H96.425V95.227L99.0316 89.4084H100.697V98.6728H99.0678V92.7495L96.425 98.6728H94.7959V89.4084Z" fill="#3D3F95"/>
<path d="M102.374 89.4084H104.07V92.8018H106.495V89.4084H108.197V98.6728H106.495V94.7821H104.07V98.6728H102.374V89.4084Z" fill="#3D3F95"/>
<path d="M109.929 89.4084H113.639C114.4 89.4084 114.969 89.609 115.347 90.0103C115.725 90.4116 115.914 91.0164 115.914 91.8248C115.914 92.3424 115.809 92.7931 115.6 93.177C115.395 93.5608 115.136 93.8167 114.822 93.9446C115.264 94.1017 115.594 94.3953 115.811 94.8257C116.029 95.2561 116.137 95.7271 116.137 96.2389C116.137 96.9601 115.954 97.5474 115.588 98.0011C115.222 98.4489 114.681 98.6728 113.965 98.6728H109.929V89.4084ZM111.636 93.2555H112.728C113.255 93.2555 113.635 93.1595 113.869 92.9676C114.106 92.7757 114.225 92.4733 114.225 92.0603C114.225 91.6707 114.114 91.3945 113.893 91.2316C113.675 91.063 113.287 90.9786 112.728 90.9786H111.636V93.2555ZM111.636 97.1025H112.976C113.458 97.1025 113.81 97.0182 114.031 96.8496C114.253 96.6809 114.363 96.3785 114.363 95.9423C114.363 95.4887 114.237 95.1776 113.983 95.0089C113.73 94.8344 113.237 94.7472 112.505 94.7472H111.636V97.1025Z" fill="#3D3F95"/>
<path d="M121.055 95.7242L122.744 96.1342C122.527 97.0298 122.183 97.7132 121.712 98.1843C121.246 98.6495 120.661 98.8821 119.957 98.8821C118.842 98.8821 118.018 98.3558 117.483 97.3032C117.06 96.4599 116.849 95.3956 116.849 94.1104C116.849 92.575 117.127 91.3741 117.682 90.5076C118.237 89.6352 118.939 89.199 119.788 89.199C120.741 89.199 121.493 89.6556 122.044 90.5686C122.595 91.4759 122.859 92.8687 122.835 94.7472H118.587C118.599 95.4742 118.736 96.0412 118.997 96.4483C119.259 96.8496 119.585 97.0502 119.975 97.0502C120.24 97.0502 120.463 96.9455 120.644 96.7362C120.825 96.5268 120.962 96.1895 121.055 95.7242ZM121.151 93.2467C121.139 92.5372 121.013 91.9993 120.771 91.6329C120.53 91.2607 120.236 91.0746 119.89 91.0746C119.52 91.0746 119.214 91.2694 118.973 91.6591C118.732 92.0487 118.613 92.5779 118.617 93.2467H121.151Z" fill="#3D3F95"/>
<path d="M129.641 92.1476L127.969 92.5838C127.913 92.1011 127.784 91.7376 127.583 91.4933C127.386 91.2491 127.129 91.1269 126.811 91.1269C126.389 91.1269 126.051 91.3392 125.797 91.7638C125.548 92.1825 125.423 92.8862 125.423 93.8748C125.423 94.974 125.55 95.7504 125.803 96.204C126.061 96.6576 126.405 96.8845 126.835 96.8845C127.157 96.8845 127.42 96.7536 127.626 96.4919C127.831 96.2244 127.975 95.7678 128.06 95.1223L129.725 95.5323C129.552 96.6373 129.22 97.4718 128.73 98.036C128.239 98.6001 127.581 98.8821 126.757 98.8821C125.819 98.8821 125.071 98.4547 124.512 97.5998C123.957 96.7449 123.679 95.5614 123.679 94.0493C123.679 92.5198 123.959 91.3305 124.518 90.4814C125.077 89.6265 125.833 89.199 126.787 89.199C127.567 89.199 128.187 89.4433 128.645 89.9318C129.108 90.4145 129.44 91.1531 129.641 92.1476Z" fill="#3D3F95"/>
<path d="M130.172 89.4084H135.97V91.3886H133.919V98.6728H132.223V91.3886H130.172V89.4084Z" fill="#3D3F95"/>
<path d="M136.924 89.4084H138.619V92.8018H141.045V89.4084H142.746V98.6728H141.045V94.7821H138.619V98.6728H136.924V89.4084Z" fill="#3D3F95"/>
<path d="M148.17 95.7242L149.86 96.1342C149.643 97.0298 149.299 97.7132 148.828 98.1843C148.361 98.6495 147.776 98.8821 147.072 98.8821C145.958 98.8821 145.133 98.3558 144.598 97.3032C144.176 96.4599 143.965 95.3956 143.965 94.1104C143.965 92.575 144.242 91.3741 144.798 90.5076C145.353 89.6352 146.055 89.199 146.903 89.199C147.857 89.199 148.609 89.6556 149.16 90.5686C149.711 91.4759 149.974 92.8687 149.95 94.7472H145.703C145.715 95.4742 145.851 96.0412 146.113 96.4483C146.374 96.8496 146.7 97.0502 147.09 97.0502C147.356 97.0502 147.579 96.9455 147.76 96.7362C147.941 96.5268 148.078 96.1895 148.17 95.7242ZM148.267 93.2467C148.255 92.5372 148.128 91.9993 147.887 91.6329C147.645 91.2607 147.352 91.0746 147.006 91.0746C146.636 91.0746 146.33 91.2694 146.089 91.6591C145.847 92.0487 145.729 92.5779 145.733 93.2467H148.267Z" fill="#3D3F95"/>
<path d="M155.025 85.8841H156.708V90.5861C156.913 90.1266 157.159 89.7835 157.444 89.5567C157.73 89.3241 158.056 89.2078 158.422 89.2078C159.11 89.2078 159.671 89.6905 160.105 90.6559C160.544 91.6155 160.763 92.764 160.763 94.1017C160.763 95.4451 160.517 96.5791 160.027 97.5038C159.54 98.4227 158.963 98.8821 158.295 98.8821C157.993 98.8821 157.71 98.7745 157.444 98.5594C157.179 98.3384 156.933 98.0127 156.708 97.5823V102.197H155.025V97.5823C154.779 98.0127 154.516 98.3384 154.234 98.5594C153.957 98.7745 153.661 98.8821 153.347 98.8821C152.655 98.8821 152.084 98.4198 151.634 97.4951C151.183 96.5704 150.958 95.4073 150.958 94.0057C150.958 92.6157 151.215 91.4672 151.73 90.5599C152.245 89.6527 152.802 89.199 153.402 89.199C153.727 89.199 154.025 89.3095 154.295 89.5305C154.564 89.7515 154.808 90.083 155.025 90.525V85.8841ZM153.89 91.0746C153.577 91.0746 153.301 91.3479 153.064 91.8946C152.83 92.4355 152.714 93.1508 152.714 94.0406C152.714 94.9362 152.822 95.6544 153.04 96.1953C153.261 96.7362 153.534 97.0066 153.86 97.0066C154.19 97.0066 154.47 96.7362 154.699 96.1953C154.928 95.6544 155.043 94.9158 155.043 93.9795C155.043 92.9618 154.918 92.2232 154.669 91.7638C154.419 91.3043 154.16 91.0746 153.89 91.0746ZM157.855 91.092C157.509 91.092 157.227 91.3857 157.01 91.9731C156.793 92.5547 156.684 93.2845 156.684 94.1627C156.684 95.0409 156.799 95.7388 157.028 96.2564C157.261 96.7681 157.537 97.024 157.855 97.024C158.172 97.024 158.446 96.7332 158.675 96.1517C158.904 95.5701 159.019 94.8839 159.019 94.0929C159.019 93.2497 158.914 92.5401 158.705 91.9644C158.496 91.3828 158.213 91.092 157.855 91.092Z" fill="#3D3F95"/>
<path d="M161.221 89.4084H167.02V91.3886H164.968V98.6728H163.273V91.3886H161.221V89.4084Z" fill="#3D3F95"/>
<path d="M168.076 89.4084H169.771V93.2555H171.473C172.14 93.2555 172.653 93.3253 173.011 93.4648C173.369 93.6044 173.667 93.9068 173.904 94.3721C174.142 94.8315 174.26 95.3666 174.26 95.9772C174.26 96.8728 174.047 97.5474 173.621 98.0011C173.198 98.4489 172.563 98.6728 171.714 98.6728H168.076V89.4084ZM169.771 97.12H171.352C171.847 97.12 172.163 97.0037 172.299 96.771C172.44 96.5384 172.511 96.2622 172.511 95.9423C172.511 95.4945 172.39 95.1863 172.148 95.0176C171.911 94.849 171.487 94.7646 170.875 94.7646H169.771V97.12Z" fill="#3D3F95"/>
<path d="M177.76 98.0621L179.329 94.1191L177.76 90.0976H179.093L181 94.1191L179.093 98.0621H177.76ZM175.395 98.0621L176.963 94.1191L175.395 90.0976H176.728L178.635 94.1191L176.728 98.0621H175.395Z" fill="#3D3F95"/>
<path d="M119.939 25.457C119.042 25.727 118.143 25.9936 117.25 26.2703C116.641 26.457 116.043 26.7103 115.421 26.8403C115.063 26.9136 114.662 26.827 114.284 26.7736C112.776 26.557 111.271 26.2903 109.759 26.107C108.258 25.9236 106.753 25.7636 105.245 25.687C102.871 25.5636 100.493 25.457 98.1189 25.4536C96.1326 25.4503 94.1429 25.5336 92.1633 25.7036C89.9295 25.897 87.699 26.1936 85.4786 26.507C81.7868 27.0303 78.182 27.9336 74.6407 29.0902C71.6478 30.0669 68.7586 31.2869 66.0131 32.8368C63.4717 34.2735 61.0974 35.9268 59.091 38.0601C57.088 40.19 55.6835 42.6566 55.1986 45.5532C54.8442 47.6665 55.1418 49.7398 55.9677 51.7398C56.991 54.2264 58.6697 56.203 60.646 57.983C62.1307 59.3196 63.7559 60.4496 65.4747 61.4563C67.7119 62.7662 70.0627 63.8395 72.4838 64.7562C74.9416 65.6862 77.4563 66.4528 80.0212 67.0228C82.1446 67.4961 84.2881 67.8928 86.435 68.2461C87.9097 68.4894 89.4078 68.6094 90.8959 68.7661C94.1496 69.1161 97.4133 69.2361 100.684 69.1594C102.446 69.1161 104.205 68.9828 105.964 68.8494C107.485 68.7361 109.007 68.6061 110.518 68.4128C111.796 68.2528 113.063 67.9995 114.334 67.7761C117.374 67.2395 120.357 66.4828 123.286 65.5128C126.409 64.4795 129.425 63.2062 132.281 61.5663C134.706 60.1763 136.946 58.543 138.866 56.5064C140.454 54.8197 141.701 52.9031 142.38 50.6765C143.293 47.6832 143.022 44.7733 141.588 41.98C140.668 40.1834 139.454 38.6067 137.989 37.2167C136.114 35.4368 134 33.9835 131.746 32.7302C130.827 32.2202 130.817 32.2368 130.82 31.1802C130.82 30.2902 130.82 29.4036 130.82 28.5136C130.82 28.3669 130.84 28.2203 130.857 27.9903C131.248 28.1203 131.589 28.2136 131.917 28.3436C134.161 29.2269 136.445 30.0236 138.632 31.0302C140.528 31.9069 142.363 32.9402 144.129 34.0568C146.135 35.3235 148.025 36.7801 149.533 38.6401C150.349 39.6467 151.175 40.6733 151.81 41.7967C152.696 43.3566 153.241 45.0499 153.228 46.8932C153.218 48.1499 153.145 49.3865 152.7 50.5631C152.181 51.9231 151.496 53.1964 150.63 54.3831C149.299 56.2064 147.647 57.693 145.861 59.033C144.825 59.813 143.718 60.4996 142.618 61.1896C140.213 62.6929 137.622 63.8162 134.997 64.8729C132.382 65.9262 129.696 66.7561 126.978 67.4895C125.657 67.8461 124.326 68.1828 122.988 68.4694C121.691 68.7461 120.377 68.9428 119.069 69.1728C117.835 69.3894 116.601 69.6261 115.364 69.8128C114.384 69.9628 113.394 70.0494 112.411 70.1661C111.495 70.2727 110.579 70.3894 109.659 70.4894C109.248 70.5361 108.833 70.5661 108.418 70.5861C106.593 70.6727 104.767 70.7861 102.938 70.8294C100.67 70.8861 98.4032 70.8927 96.1393 70.9027C95.126 70.9061 94.1128 70.8827 93.1029 70.8361C91.7787 70.7727 90.4511 70.6961 89.1302 70.5827C87.8829 70.4761 86.639 70.3227 85.395 70.1694C83.9337 69.9894 82.4757 69.7861 81.0177 69.5928C78.0482 69.1961 75.1155 68.6094 72.2163 67.8761C70.3436 67.4028 68.4877 66.8561 66.6385 66.2995C63.7292 65.4228 60.9269 64.2762 58.1948 62.9496C55.8306 61.7996 53.5835 60.4696 51.4935 58.883C50.6708 58.2597 49.8649 57.5997 49.1426 56.8664C48.3902 56.103 47.7281 55.2431 47.056 54.4031C46.0494 53.1464 45.3271 51.7398 44.8723 50.1998C44.4042 48.6132 44.3206 47.0032 44.5981 45.3699C44.879 43.7099 45.5044 42.1933 46.4407 40.8C47.2165 39.6434 48.0792 38.5634 49.0925 37.5901C51.1156 35.6501 53.3628 34.0401 55.8106 32.6702C58.6195 31.1002 61.5489 29.8136 64.5786 28.7369C67.3206 27.7636 70.1095 26.9303 72.9453 26.2936C75.5068 25.717 78.095 25.2403 80.6866 24.7937C82.3085 24.5137 83.9504 24.3503 85.5889 24.1837C87.2409 24.0137 88.9028 23.9203 90.5548 23.757C94.3168 23.3837 98.0855 23.5204 101.854 23.5137C103.008 23.5137 104.165 23.5337 105.315 23.6104C107.248 23.7404 109.181 23.917 111.11 24.0937C112.418 24.2137 113.729 24.3537 115.03 24.5203C116.153 24.6637 117.27 24.8603 118.39 25.037C118.828 25.107 119.263 25.1803 119.698 25.2603C119.785 25.277 119.865 25.3137 119.949 25.3403C119.949 25.3803 119.945 25.4203 119.942 25.4603L119.939 25.457Z" fill="#BDBEC0"/>
<path fill-rule="evenodd" clip-rule="evenodd" d="M91.958 30.6631C91.9602 30.4912 91.9625 30.3162 91.9558 30.1532H91.9424C91.8793 30.1532 91.8171 30.1516 91.7553 30.15C91.6939 30.1484 91.6328 30.1468 91.5712 30.1468H89.0264C89.0097 30.1468 88.9537 30.1484 88.8977 30.1501C88.8417 30.1518 88.7857 30.1534 88.7689 30.1534V30.6467C88.7646 31.2774 88.7646 31.9081 88.7647 32.5387V32.5411C88.7649 33.3529 88.765 34.1648 88.7556 34.9767C88.7556 35.1133 88.6352 35.3333 88.5248 35.3666C86.9732 35.8433 85.4149 36.3033 83.8566 36.7533C83.5322 36.8466 83.2915 36.7599 83.1711 36.3833C83.0513 36.0093 82.9118 35.6422 82.7724 35.2753L82.7721 35.2746C82.6743 35.0171 82.5765 34.7597 82.4856 34.5C82.4327 34.3481 82.3779 34.1966 82.3231 34.045L82.3228 34.0442L82.3225 34.0432C82.1455 33.5535 81.9683 33.0636 81.8535 32.56C81.7633 32.1667 81.576 32.1034 81.2784 32.2034C80.6464 32.4156 80.0189 32.6389 79.3909 32.8624L79.3904 32.8626C79.1015 32.9654 78.8125 33.0682 78.5229 33.17C77.5297 33.5233 76.5332 33.8733 75.5367 34.2233C75.005 34.4133 74.47 34.6033 73.9349 34.79C73.7443 34.8533 73.6641 34.96 73.7443 35.16C73.803 35.3063 73.863 35.4517 73.9228 35.5969C74.0607 35.9313 74.1983 36.265 74.3195 36.6066C74.4215 36.8938 74.5235 37.181 74.6256 37.4682C75.3103 39.3945 75.9955 41.3221 76.6503 43.2598C76.7684 43.6061 76.8143 43.9748 76.8603 44.3437C76.8807 44.5074 76.9011 44.6712 76.9278 44.8331C76.9245 44.8498 76.922 44.8673 76.9195 44.8848C76.917 44.9023 76.9144 44.9198 76.9111 44.9364C76.7424 44.9425 76.5731 44.9458 76.4037 44.9491C76.0089 44.9568 75.6131 44.9645 75.2224 45.0064C75.1453 45.015 75.0675 45.0229 74.9894 45.0309C74.5181 45.0789 74.0341 45.1282 73.6239 45.3198C72.4803 45.8598 71.9285 46.8197 71.9285 48.0997C71.9352 51.6963 71.9319 55.2896 71.9252 58.8862C71.9252 59.0735 71.9128 59.2623 71.9005 59.451C71.8794 59.7727 71.8584 60.0944 71.8984 60.4095C71.9553 60.8228 71.8182 60.9228 71.4671 60.9228H70.1328C70.1328 61.0913 70.1341 61.2536 70.1354 61.4115C70.1382 61.7532 70.1409 62.0746 70.1295 62.3961C70.1194 62.6961 70.2465 62.7794 70.5274 62.7661C70.6575 62.7597 70.7877 62.753 70.918 62.7463C71.5344 62.7146 72.1523 62.6828 72.7679 62.6828C78.2772 62.6828 83.7855 62.6871 89.2939 62.6915C93.4246 62.6947 97.5554 62.698 101.687 62.6994C105.873 62.7039 110.059 62.7024 114.244 62.7009H114.251C116.345 62.7002 118.439 62.6994 120.534 62.6994H124.042C124.072 62.6994 124.103 62.7011 124.133 62.7028C124.164 62.7044 124.195 62.7061 124.225 62.7061C124.254 62.2404 124.28 61.7767 124.306 61.3209L124.329 60.9095H120.213C120.179 60.8861 120.149 60.8661 120.116 60.8461C120.01 60.5416 119.903 60.2373 119.796 59.9329C119.538 59.2014 119.281 58.4696 119.036 57.7329C118.887 57.2928 118.75 56.8491 118.613 56.4051L118.612 56.4046C118.488 56.0012 118.363 55.5976 118.23 55.1962C118.104 54.8194 117.97 54.4448 117.835 54.0699L117.835 54.0693C117.686 53.6553 117.537 53.2409 117.4 52.823C117.239 52.3344 117.09 51.8413 116.941 51.3479C116.805 50.8987 116.669 50.4494 116.524 50.003C115.872 47.9864 115.21 45.9698 114.545 43.9565C114.311 43.2473 114.071 42.5403 113.831 41.8331C113.558 41.0312 113.286 40.2291 113.023 39.4232C112.549 37.9729 112.088 36.5173 111.623 35.0529C111.442 34.4811 111.26 33.908 111.077 33.3334C111.086 33.3289 111.097 33.3224 111.11 33.3147C111.146 33.2936 111.198 33.2638 111.254 33.2467C112.862 32.78 114.471 32.3134 116.083 31.8567C116.593 31.7113 117.106 31.57 117.618 31.4286L117.619 31.4284C118.328 31.2328 119.038 31.0371 119.744 30.8301C120.226 30.6875 120.704 30.5365 121.183 30.3855C121.745 30.2081 122.307 30.0306 122.874 29.8668C122.985 29.8368 123.226 29.9534 123.279 30.0634C123.525 30.5751 123.76 31.0926 123.995 31.61C124.23 32.1275 124.465 32.645 124.71 33.1567C125.138 34.05 125.623 34.9067 126.362 35.59C126.924 36.1066 127.493 36.2133 128.081 35.5633C129.031 34.5133 129.486 33.2067 129.536 31.8567C129.593 30.2607 129.459 28.6528 129.325 27.0527L129.302 26.7702C129.185 25.3435 128.991 23.9135 128.459 22.5702C128.205 21.9236 127.82 21.3169 127.416 20.7469C126.797 19.8736 125.041 19.6936 124.199 20.5969C123.628 21.2079 122.992 21.7574 122.356 22.3063C122.08 22.5449 121.804 22.7835 121.534 23.0269C121.119 23.4002 120.922 23.8202 121.102 24.3969C121.197 24.7009 121.257 25.0157 121.319 25.341C121.348 25.4972 121.378 25.6558 121.413 25.8168C121.006 25.9302 120.605 26.0403 120.208 26.1491C119.357 26.3825 118.527 26.6102 117.701 26.8535C117.125 27.0209 116.554 27.202 115.983 27.383C115.496 27.5371 115.01 27.6912 114.521 27.8368C113.851 28.0365 113.178 28.2237 112.506 28.411C112.134 28.5144 111.762 28.6179 111.391 28.7234L111.39 28.7238C109.504 29.2637 107.619 29.8035 105.733 30.3467L105.067 30.5384C103.818 30.8972 102.572 31.2555 101.326 31.6234C100.623 31.8302 99.9215 32.042 99.2202 32.2538C98.6441 32.4279 98.0677 32.602 97.4901 32.7734C96.411 33.0932 95.3318 33.4096 94.2527 33.7259L94.2518 33.7261C93.5321 33.9371 92.8125 34.148 92.0929 34.36C92.0608 34.3694 92.031 34.3858 92.0019 34.4018C91.9864 34.4103 91.9711 34.4188 91.9558 34.4259C91.9537 34.3947 91.9568 34.2985 91.9595 34.217C91.9611 34.1679 91.9625 34.1242 91.9625 34.1033C91.9602 34.0811 91.961 34.0588 91.9617 34.0365C91.9619 34.0322 91.962 34.0279 91.9621 34.0237C91.9623 34.0168 91.9625 34.01 91.9625 34.0032C91.9625 33.4861 91.9608 32.9707 91.9591 32.4558V32.4533C91.9575 31.94 91.9558 31.4271 91.9558 30.9134C91.9558 30.8322 91.9569 30.7485 91.958 30.6641L91.958 30.6631ZM87.9452 48.268C88.2167 48.2655 88.4876 48.263 88.7589 48.263C88.7589 49.6086 88.7664 50.9556 88.774 52.3022L88.774 52.3034L88.774 52.3047C88.7815 53.6518 88.789 54.9984 88.789 56.3429C89.0743 56.3439 89.3653 56.3437 89.6585 56.3434H89.66C90.3216 56.3429 90.9943 56.3424 91.6381 56.3562C91.9524 56.3629 91.9691 56.2029 91.9691 55.9729C91.9591 55.1833 91.9591 54.3971 91.9591 53.6076V53.2563C91.9602 52.8174 91.9617 52.379 91.9632 51.9407L91.9632 51.9243C91.9662 51.0399 91.9691 50.1565 91.9691 49.273C91.9658 49.2397 91.9658 49.203 91.9658 49.1697V48.223H92.7617L93.1262 48.233C93.8084 48.2397 94.4905 48.2397 95.1727 48.2397H95.4636C95.5339 48.243 95.6041 48.243 95.6743 48.243H96.0054C96.0054 48.3121 96.0054 48.3443 96.0054 48.4591C96.0054 48.6209 96.0031 48.7421 96.0054 48.8897C96.0073 48.9912 96.0093 49.0927 96.0114 49.1941C96.0418 50.6896 96.0722 52.1857 95.6275 53.6496C94.9353 55.9262 93.5241 57.5829 91.3639 58.5695C89.742 59.3128 88.0199 59.6195 86.2342 59.6028C85.8797 59.5995 85.8128 59.4562 85.8128 59.1562C85.8262 57.9362 85.8362 56.7129 85.8262 55.4929C85.8095 53.6171 85.7811 51.7436 85.7528 49.8705L85.7528 49.8675C85.7471 49.4949 85.7415 49.1223 85.7359 48.7497C85.7359 48.3795 85.771 48.3031 86.5652 48.303C86.5296 48.3564 86.4968 48.4116 86.4643 48.4662L86.4641 48.4665C86.4054 48.5653 86.3475 48.6627 86.2743 48.7464C86.0469 49.0064 85.9617 49.3637 86.2225 49.6537C86.4762 49.9082 86.806 49.9897 87.1705 49.7864C87.5952 49.5497 87.652 49.1064 87.331 48.7097C87.2638 48.6243 87.2223 48.518 87.1809 48.412C87.1626 48.365 87.1442 48.3181 87.1237 48.273C87.3989 48.2731 87.6723 48.2705 87.9452 48.268ZM97.8914 59.0262C97.771 59.3828 97.654 59.7395 97.5369 60.0961L97.5302 60.0995C97.5172 60.1529 97.5046 60.2064 97.492 60.2598C97.4528 60.4262 97.4137 60.5921 97.363 60.7561C97.3491 60.8001 97.3061 60.8329 97.2632 60.8655C97.2443 60.8799 97.2255 60.8942 97.2092 60.9095C97.1926 60.8851 97.1712 60.8612 97.15 60.8375C97.1072 60.7897 97.0654 60.7429 97.0654 60.6961C97.068 60.5192 97.0903 60.3423 97.1127 60.1654C97.1194 60.1123 97.1261 60.0592 97.1323 60.0061C97.1334 59.9513 97.1349 59.8968 97.1364 59.8424C97.1394 59.7349 97.1423 59.6279 97.1423 59.5195C97.149 59.4878 97.1549 59.4553 97.1607 59.4228C97.164 59.4045 97.1673 59.3863 97.1707 59.3682C97.1734 59.3541 97.1762 59.34 97.1791 59.3262C97.1801 58.2052 97.1862 57.0839 97.1922 55.9625V55.9616C97.2065 53.322 97.2207 50.6817 97.1691 48.0431C97.1356 46.3731 96.0789 45.0764 94.2096 44.9964C93.7262 44.9763 93.2397 44.9817 92.7278 44.9875L92.7272 44.9875C92.478 44.9903 92.2229 44.9931 91.9591 44.9931V39.4199C91.8755 39.0099 92.0227 38.8132 92.454 38.6966C94.641 38.1033 96.8246 37.4799 99.0016 36.8433C99.7012 36.639 100.396 36.4184 101.091 36.1979C101.654 36.019 102.218 35.8402 102.784 35.67C103.166 35.5535 103.555 35.4558 103.944 35.3582C104.168 35.3022 104.391 35.2462 104.613 35.1866C104.854 35.1221 105.095 35.0521 105.363 34.9738L105.364 34.9735C105.511 34.9305 105.667 34.8851 105.837 34.8367C105.739 35.1253 105.644 35.3982 105.553 35.6613L105.553 35.6633L105.553 35.6639C105.39 36.1349 105.238 36.5744 105.094 37.0166C105.001 37.2982 104.917 37.583 104.832 37.8678C104.759 38.1154 104.685 38.3635 104.606 38.6099C104.375 39.3366 104.135 40.0599 103.891 40.7832C103.759 41.175 103.626 41.5663 103.492 41.9577L103.491 41.9596L103.491 41.9601C103.285 42.5635 103.079 43.1671 102.881 43.7731C102.716 44.2797 102.557 44.7882 102.399 45.2966L102.398 45.2973C102.264 45.7287 102.129 46.1599 101.991 46.5897C101.58 47.8715 101.16 49.1477 100.74 50.426L100.627 50.7697C100.36 51.5899 100.089 52.4076 99.8164 53.2272L99.7005 53.5763C99.3995 54.4846 99.0977 55.3929 98.7959 56.3012C98.4941 57.2095 98.1923 58.1178 97.8914 59.0262ZM100.005 60.8957C99.9215 60.902 99.8379 60.9083 99.754 60.9128V60.9095H99.7607C99.7534 60.8731 99.7416 60.8355 99.7297 60.7979C99.7036 60.7147 99.6775 60.6316 99.7005 60.5628C100.079 59.4191 100.468 58.2755 100.855 57.1339L101.048 56.5662L101.129 56.3344C101.293 55.8609 101.458 55.3852 101.613 54.9096C101.9 54.0337 102.183 53.1579 102.467 52.2821C102.656 51.6979 102.844 51.1138 103.034 50.5297C103.382 49.4598 103.731 48.3912 104.081 47.3223C104.281 46.7128 104.481 46.1032 104.68 45.4931C104.816 45.0776 104.952 44.6621 105.088 44.2466L105.094 44.2279L105.095 44.2257C105.693 42.4015 106.291 40.5768 106.88 38.7499C106.957 38.5066 107.071 38.4232 107.318 38.4232C108.234 38.4332 109.154 38.4366 110.074 38.4232C110.365 38.4166 110.488 38.5466 110.572 38.8099C111.11 40.5065 111.662 42.2032 112.214 43.8965C112.373 44.3806 112.535 44.8641 112.697 45.3475L112.698 45.3492C112.891 45.9235 113.084 46.4978 113.27 47.0731C113.792 48.6814 114.311 50.2897 114.831 51.898L114.831 51.9006C115.352 53.5114 115.872 55.1221 116.394 56.7329C116.631 57.4622 116.873 58.1892 117.115 58.9159L117.116 58.9193L117.117 58.9215L117.118 58.9238C117.29 59.4434 117.463 59.9628 117.634 60.4828C117.657 60.5516 117.667 60.622 117.679 60.7056C117.686 60.7475 117.692 60.7927 117.701 60.8428C117.559 60.8631 117.439 60.8783 117.325 60.8929L117.273 60.8995C117.24 60.8961 117.206 60.8961 117.173 60.8961C111.615 60.8861 106.061 60.8795 100.503 60.8728C100.336 60.8706 100.171 60.8831 100.005 60.8957ZM86.4318 40.4733C87.2041 40.2459 87.9791 40.0176 88.7656 39.7866V45.0031C88.5414 45.0031 88.3192 45.0037 88.0987 45.0044H88.0966C87.4399 45.0062 86.7977 45.0081 86.1573 44.9931C86.0603 44.9931 85.9232 44.8598 85.8764 44.7565C85.7604 44.4987 85.6594 44.235 85.5583 43.9713L85.5579 43.9701C85.5075 43.8386 85.4571 43.7072 85.4049 43.5765C85.0772 42.7498 84.7461 41.9198 84.405 41.0699C85.0823 40.8707 85.756 40.6723 86.4318 40.4733ZM108.745 32.3039C109.15 32.3039 109.478 31.9744 109.478 31.5679C109.478 31.1613 109.15 30.8318 108.745 30.8318C108.339 30.8318 108.011 31.1613 108.011 31.5679C108.011 31.9744 108.339 32.3039 108.745 32.3039ZM91.2111 36.784C91.2111 37.1906 90.8826 37.5201 90.4775 37.5201C90.0723 37.5201 89.7439 37.1906 89.7439 36.784C89.7439 36.3775 90.0723 36.048 90.4775 36.048C90.8826 36.048 91.2111 36.3775 91.2111 36.784ZM90.4775 55.4518C90.8826 55.4518 91.2111 55.1223 91.2111 54.7157C91.2111 54.3092 90.8826 53.9796 90.4775 53.9796C90.0723 53.9796 89.7439 54.3092 89.7439 54.7157C89.7439 55.1223 90.0723 55.4518 90.4775 55.4518Z" fill="#3D3F95"/>
</svg>
