<svg width="200" height="120" viewBox="0 0 200 120" fill="none" xmlns="http://www.w3.org/2000/svg">
<path d="M109.614 43.4333C107.342 48.0603 103.574 51.3741 98.6318 53.0599L96.8351 53.672C94.3752 54.5105 92.5606 55.6373 91.2344 56.7463C93.0804 56.0232 95.4416 55.4731 98.354 55.4731H100.254C112.849 55.4731 117.011 43.4333 117.011 43.4333H109.618H109.614Z" fill="#0061AF"/>
<path d="M102.614 36.8369C101.987 41.8542 99.5632 46.144 95.5262 49.3203L94.0387 50.4915C91.9149 52.1595 90.5573 53.894 89.6836 55.4245C91.207 54.0936 93.3039 52.745 96.1759 51.7647L97.9726 51.1525C109.882 47.0934 109.855 34.366 109.855 34.366L102.614 36.8325V36.8369Z" fill="#0061AF"/>
<path d="M92.7656 48.9166L94.2531 47.7454C104.115 39.9865 99.809 28 99.809 28L90.0638 35.6701C82.2542 41.8143 81.0579 49.1872 85.7849 59.4791C85.7894 59.4924 86.0716 60.1268 86.0761 60.1268C86.0761 60.1268 86.1389 54.138 92.7701 48.921L92.7656 48.9166Z" fill="#0061AF"/>
<path d="M34.2143 87.1874C32.2966 89.0639 29.8995 89.9999 27.0185 89.9999C24.1375 89.9999 21.7494 89.0683 19.8496 87.2007C17.9499 85.3331 17 83.0484 17 80.3424C17 77.6363 17.9588 75.3783 19.8765 73.4973C21.7942 71.6208 24.1913 70.6848 27.0723 70.6848C29.9533 70.6848 32.3414 71.6164 34.2412 73.484C36.1409 75.3517 37.0908 77.6363 37.0908 80.3424C37.0908 83.0484 36.132 85.3109 34.2143 87.1874ZM22.9681 84.5035C24.0479 85.6436 25.4145 86.2114 27.0723 86.2114C28.7301 86.2114 30.0877 85.648 31.1496 84.5168C32.2115 83.3856 32.7447 81.9971 32.7447 80.3424C32.7447 78.6877 32.2025 77.3169 31.1227 76.1812C30.0429 75.0411 28.6718 74.4733 27.0185 74.4733C25.3652 74.4733 24.0031 75.0367 22.9412 76.1679C21.8793 77.2992 21.3461 78.6877 21.3461 80.3424C21.3461 81.9971 21.8883 83.3678 22.9681 84.5035Z" fill="#0061AF"/>
<path d="M57.0733 71.0043V89.6806H52.9692V77.4368L44.707 89.6806H40.791V71.0043H44.8952V83.2482L53.2111 71.0043H57.0733ZM52.0641 68.5245C51.2621 69.2343 50.2405 69.5936 48.9994 69.5936C47.7583 69.5936 46.7367 69.2387 45.9347 68.5245C45.1327 67.8147 44.6443 66.8166 44.4651 65.5345L46.8666 65.1086C47.243 66.302 47.9554 66.8964 48.9994 66.8964C50.0434 66.8964 50.7558 66.302 51.1321 65.1086L53.5337 65.5345C53.3545 66.8166 52.8616 67.8103 52.0596 68.5245H52.0641Z" fill="#0061AF"/>
<path d="M64.1221 71.0044H77.6265V89.6807H73.4685V74.713H68.0157V76.1282C68.0157 79.7747 67.7962 82.6006 67.3526 84.6101C66.909 86.6197 66.2683 88.0083 65.4215 88.7713C64.5746 89.5343 63.3962 89.9202 61.8818 89.9202C61.035 89.9202 60.3047 89.8404 59.6953 89.6807L59.9641 86.2915C60.2151 86.3269 60.4301 86.3447 60.6138 86.3447C61.2277 86.3447 61.725 86.216 62.1103 85.9587C62.4957 85.7014 62.8586 85.1824 63.1901 84.3972C63.5217 83.6164 63.7592 82.4453 63.907 80.8882C64.0504 79.3311 64.1221 77.3259 64.1221 74.8727V71.0044Z" fill="#0061AF"/>
<path d="M82.5684 71.0044H94.639V72.9253H84.7011V89.6807H82.5684V71.0044Z" fill="#0061AF"/>
<path d="M102.229 70.8711H104.227L112.843 89.6805H110.549L108.336 84.743H98.044L95.8037 89.6805H93.6172L102.233 70.8711H102.229ZM107.493 82.8488L103.201 73.3243L98.8818 82.8488H107.498H107.493Z" fill="#0061AF"/>
<path d="M114.406 86.9878L115.674 85.5194C117.592 87.3072 119.59 88.1856 122.319 88.1856C124.64 88.1856 126.723 86.797 126.723 84.5834C126.723 82.1568 124.51 81.1409 121.62 81.1409H119.541V79.4064H121.62C124.322 79.4064 126.239 78.0977 126.239 75.8841C126.239 73.9632 124.456 72.548 121.974 72.548C119.841 72.548 118.058 73.1869 116.409 74.6552L115.168 73.1869C117.059 71.5854 119.03 70.707 122.028 70.707C125.782 70.707 128.403 72.8142 128.403 75.6977C128.403 78.2042 126.674 79.4862 124.945 80.0984C127.185 80.7638 128.914 82.2056 128.914 84.6854C128.914 87.6488 126.239 89.9955 122.297 89.9955C119.03 89.9955 116.624 88.9796 114.411 86.9789L114.406 86.9878Z" fill="#0061AF"/>
<path d="M138.199 72.9253H131.85V71.0044H146.703V72.9253H140.354V89.6807H138.194V72.9253H138.199Z" fill="#0061AF"/>
<path d="M149.162 86.7173L150.73 85.3288C152.54 87.0367 154.131 88.0748 156.725 88.0748C160.588 88.0748 163.585 85.1114 163.988 81.2164H154.454V79.2956H163.961C163.5 75.4538 160.561 72.5969 156.725 72.5969C154.158 72.5969 152.379 73.6927 150.784 75.1832L149.435 73.7415C151.326 71.9803 153.271 70.6716 156.698 70.6716C162.263 70.6716 166.26 75.0457 166.26 80.3292C166.26 85.6127 162.236 89.9867 156.779 89.9867C153.347 89.9867 151.134 88.6781 149.162 86.704V86.7173Z" fill="#0061AF"/>
<path d="M174.492 72.9253H168.143V71.0044H182.996V72.9253H176.647V89.6807H174.487V72.9253H174.492Z" fill="#0061AF"/>
</svg>
