<svg width="200" height="120" viewBox="0 0 200 120" fill="none" xmlns="http://www.w3.org/2000/svg">
<path d="M6.00391 83.5461V57.772L11.8502 72.8737L6.00391 83.5461Z" fill="#B31D29"/>
<path d="M6.00391 83.5461L11.8502 72.8737L27.9351 70.3896L6.00391 83.5461Z" fill="#591216"/>
<path d="M11.8502 72.8738L6.00391 57.772L27.9351 70.3896L11.8502 72.8738Z" fill="#EB1E2D"/>
<path d="M33.4121 79.6099V61.3193L42.7937 70.7433V74.2548L36.6305 68.45V79.6099H33.4121Z" fill="#EB1E2D"/>
<path d="M52.1753 79.6099V61.3193L42.7937 70.7433V74.2548L48.9569 68.45V79.6099H52.1753Z" fill="#EB1E2D"/>
<path fill-rule="evenodd" clip-rule="evenodd" d="M66.139 76.5964C69.619 76.5964 72.4402 73.7753 72.4402 70.2952C72.4402 66.8151 69.619 63.994 66.139 63.994C62.6589 63.994 59.8377 66.8151 59.8377 70.2952C59.8377 73.7753 62.6589 76.5964 66.139 76.5964ZM66.139 79.5221C71.2348 79.5221 75.3658 75.3911 75.3658 70.2952C75.3658 65.1994 71.2348 61.0684 66.139 61.0684C61.0431 61.0684 56.9121 65.1994 56.9121 70.2952C56.9121 75.3911 61.0431 79.5221 66.139 79.5221Z" fill="#EB1E2D"/>
<path fill-rule="evenodd" clip-rule="evenodd" d="M145.448 76.5964C148.928 76.5964 151.749 73.7753 151.749 70.2952C151.749 66.8151 148.928 63.994 145.448 63.994C141.967 63.994 139.146 66.8151 139.146 70.2952C139.146 73.7753 141.967 76.5964 145.448 76.5964ZM145.448 79.5221C150.543 79.5221 154.674 75.3911 154.674 70.2952C154.674 65.1994 150.543 61.0684 145.448 61.0684C140.352 61.0684 136.221 65.1994 136.221 70.2952C136.221 75.3911 140.352 79.5221 145.448 79.5221Z" fill="#A8A8A8"/>
<path d="M80.166 79.6658V61.4629H83.3193V76.5125H92.3132V79.6658H80.166Z" fill="#EB1E2D"/>
<path d="M110.823 77.0175C111.366 76.5061 111.848 75.9295 112.255 75.3002V69.0632H104.163V72.0437H109.032V74.676C107.886 75.8602 106.28 76.5964 104.502 76.5964C101.022 76.5964 98.201 73.7753 98.201 70.2952C98.201 66.8151 101.022 63.994 104.502 63.994C106.368 63.994 108.044 64.8048 109.198 66.0932L111.393 64.1591C109.703 62.2626 107.242 61.0684 104.502 61.0684C99.4064 61.0684 95.2754 65.1994 95.2754 70.2952C95.2754 75.3911 99.4064 79.5221 104.502 79.5221C106.148 79.5221 107.694 79.0911 109.032 78.3358C109.682 77.9688 110.283 77.5253 110.823 77.0175Z" fill="#A8A8A8"/>
<path fill-rule="evenodd" clip-rule="evenodd" d="M117.055 79.6658V61.4629H126.359C129.724 61.4629 132.452 64.191 132.452 67.5564C132.452 70.1174 130.872 72.3094 128.634 73.2109L132.582 79.6389L132.582 79.6388L132.599 79.6658H128.898L125.203 73.6498H120.208V76.5125H120.208V79.6658H117.055ZM120.244 64.6521H126.359C127.963 64.6521 129.263 65.9524 129.263 67.5564C129.263 69.1604 127.963 70.4606 126.359 70.4606H120.244V64.6521Z" fill="#A8A8A8"/>
<path fill-rule="evenodd" clip-rule="evenodd" d="M178.643 79.6658V61.4629H187.946C191.312 61.4629 194.04 64.191 194.04 67.5564C194.04 70.9217 191.312 73.6498 187.946 73.6498H181.796V76.5125H181.796V79.6658H178.643ZM181.832 64.6521H187.946C189.55 64.6521 190.851 65.9524 190.851 67.5564C190.851 69.1604 189.55 70.4606 187.946 70.4606H181.832V64.6521Z" fill="#A8A8A8"/>
<path d="M161.642 61.3962H158.717V71.9317C158.717 76.1239 162.115 79.5224 166.307 79.5224C170.5 79.5224 173.898 76.1239 173.898 71.9317V61.3962H170.973L170.973 71.9317C170.973 74.5081 168.884 76.5967 166.307 76.5967C163.731 76.5967 161.642 74.5081 161.642 71.9317V61.3962Z" fill="#A8A8A8"/>
<path fill-rule="evenodd" clip-rule="evenodd" d="M133.221 44.5547H140.443C141.813 44.5547 142.932 45.6334 142.996 46.9882H144.922C144.856 44.5705 142.876 42.6307 140.443 42.6307H133.221C130.746 42.6307 128.74 44.6367 128.74 47.1114V51.4501C128.74 53.9247 130.746 55.9308 133.221 55.9308H140.443C142.876 55.9308 144.856 53.991 144.922 51.5733H142.996C142.932 52.9281 141.813 54.0068 140.443 54.0068H133.221C131.809 54.0068 130.664 52.8621 130.664 51.4501V47.1114C130.664 45.6994 131.809 44.5547 133.221 44.5547ZM145.449 51.5733C145.384 54.2821 143.167 56.458 140.443 56.458H133.221C130.455 56.458 128.213 54.2159 128.213 51.4501V47.1114C128.213 44.3456 130.455 42.1035 133.221 42.1035H140.443C143.167 42.1035 145.384 44.2793 145.449 46.9882C145.45 47.0291 145.45 47.0702 145.45 47.1114V47.5153H142.472V47.1114C142.472 45.9905 141.564 45.0819 140.443 45.0819H133.221C132.1 45.0819 131.191 45.9905 131.191 47.1114V51.4501C131.191 52.571 132.1 53.4796 133.221 53.4796H140.443C141.564 53.4796 142.472 52.571 142.472 51.4501V51.0462H145.45V51.4501C145.45 51.4913 145.45 51.5324 145.449 51.5733Z" fill="#B31D29"/>
<path fill-rule="evenodd" clip-rule="evenodd" d="M89.0977 49.8097H103.357V47.1114C103.357 44.6367 101.351 42.6307 98.8763 42.6307H91.6543C89.1797 42.6307 87.1736 44.6367 87.1736 47.1114V51.4501C87.1736 53.9247 89.1797 55.9308 91.6543 55.9308H103.357V54.0066H101.433V54.0068H91.6543C90.2423 54.0068 89.0977 52.8621 89.0977 51.4501V49.8097ZM103.884 53.4795V56.458H91.6543C88.8886 56.458 86.6465 54.2159 86.6465 51.4501V47.1114C86.6465 44.3456 88.8886 42.1035 91.6543 42.1035H98.8763C101.642 42.1035 103.884 44.3456 103.884 47.1114V50.3368H89.6248V51.4501C89.6248 52.571 90.5335 53.4796 91.6543 53.4796H100.906V53.4795H103.884ZM89.0977 47.8856V47.1114C89.0977 45.6994 90.2423 44.5547 91.6543 44.5547H98.8763C100.288 44.5547 101.433 45.6994 101.433 47.1114V47.8856H89.0977ZM100.887 46.8313C100.75 45.843 99.9021 45.0819 98.8763 45.0819H91.6543C90.6285 45.0819 89.7804 45.843 89.644 46.8313C89.6314 46.9229 89.6248 47.0163 89.6248 47.1114V47.3585H100.906V47.1114C100.906 47.0163 100.899 46.9229 100.887 46.8313Z" fill="#B31D29"/>
<path fill-rule="evenodd" clip-rule="evenodd" d="M73.6467 39.8574V56.4578H77.1684V39.8574H83.8015V36.4265H67.0137V39.8574H73.6467ZM67.5408 39.3303H74.1738V55.9307H76.6413V39.3303H83.2743V36.9537H67.5408V39.3303Z" fill="#B31D29"/>
<path fill-rule="evenodd" clip-rule="evenodd" d="M50.6943 42.1035H47.168V56.458H50.6943L61.1429 46.0625V56.458H64.6692V42.1035H61.1429L50.6943 52.3527V42.1035ZM61.3583 42.6307L50.1672 53.6082V42.6307H47.6951V55.9308H50.4767L61.6701 44.7945V55.9308H64.1421V42.6307H61.3583Z" fill="#B31D29"/>
<path fill-rule="evenodd" clip-rule="evenodd" d="M53.6562 37.4307C53.6552 37.4283 53.6532 37.4235 53.6532 37.411V36H50.8066V37.411C50.8066 39.0122 52.1047 40.3103 53.7059 40.3103H57.4777C59.0789 40.3103 60.377 39.0122 60.377 37.411V36H57.5304V37.411C57.5304 37.4235 57.5284 37.4283 57.5274 37.4307C57.5256 37.4349 57.5218 37.4415 57.515 37.4483C57.5081 37.4551 57.5016 37.459 57.4973 37.4608C57.495 37.4617 57.4902 37.4637 57.4777 37.4637H53.7059C53.6934 37.4637 53.6886 37.4617 53.6863 37.4608C53.682 37.459 53.6755 37.4551 53.6686 37.4483C53.6618 37.4415 53.658 37.4349 53.6562 37.4307ZM53.2959 37.821C53.3505 37.8756 53.4138 37.9179 53.4809 37.9462C53.4809 37.9462 53.4809 37.9463 53.4809 37.9463C53.5482 37.9747 53.6228 37.9909 53.7059 37.9909H57.4777C57.5608 37.9909 57.6354 37.9747 57.7028 37.9462C57.7698 37.9179 57.8331 37.8756 57.8877 37.821C57.9422 37.7665 57.9845 37.7033 58.0129 37.6361C58.0414 37.5687 58.0576 37.4941 58.0576 37.411V36.5271H59.8498V37.411C59.8498 38.7211 58.7878 39.7831 57.4777 39.7831H53.7059C52.3958 39.7831 51.3338 38.7211 51.3338 37.411V36.5271H53.1261V37.411C53.1261 37.4941 53.1422 37.5687 53.1707 37.6361L53.1708 37.6362C53.1991 37.7031 53.2412 37.7664 53.2959 37.821Z" fill="#B31D29"/>
<path fill-rule="evenodd" clip-rule="evenodd" d="M40.8919 44.5547V54.0068H31.1133C29.7013 54.0068 28.5567 52.8621 28.5567 51.4501V47.1114C28.5567 45.6994 29.7013 44.5547 31.1133 44.5547H40.8919ZM31.1133 42.6307C28.6387 42.6307 26.6326 44.6367 26.6326 47.1114V51.4501C26.6326 53.9247 28.6387 55.9308 31.1133 55.9308H42.8159V42.6307H31.1133ZM26.1055 47.1114C26.1055 44.3456 28.3476 42.1035 31.1133 42.1035H43.3431V56.458H31.1133C28.3476 56.458 26.1055 54.2159 26.1055 51.4501V47.1114ZM40.3647 45.0819V53.4796H31.1133C29.9924 53.4796 29.0838 52.571 29.0838 51.4501V47.1114C29.0838 45.9905 29.9924 45.0819 31.1133 45.0819H40.3647Z" fill="#B31D29"/>
<path fill-rule="evenodd" clip-rule="evenodd" d="M8.87872 38.8587H19.5897V36.9029H6.52714V55.9311H22.7105V47.9186C22.7105 45.444 20.7044 43.4379 18.2298 43.4379H8.99919V39.9021C8.99919 39.7524 8.98827 39.6056 8.96726 39.4624L8.87872 38.8587ZM20.1169 39.3859V36.3757H6V56.4582H23.2376V47.9186C23.2376 45.1529 20.9955 42.9108 18.2298 42.9108H9.52633V39.9021C9.52633 39.7267 9.51354 39.5544 9.48882 39.3859H20.1169ZM8.99919 54.007V45.362H18.2298C19.6418 45.362 20.7864 46.5066 20.7864 47.9186V54.007H8.99919ZM20.2593 47.9186C20.2593 46.7978 19.3506 45.8891 18.2298 45.8891H9.52633V53.4799H20.2593V47.9186Z" fill="#B31D29"/>
<path d="M123.942 42.7964L119.717 47.4766L119.182 48.0699L119.938 48.3285C120.474 48.512 120.978 48.7768 121.436 49.1158C121.889 49.4511 122.287 49.8517 122.619 50.3066C123.308 51.2502 123.675 52.3688 123.681 53.5414C123.681 53.5501 123.681 53.5588 123.681 53.5672V55.937H121.809V53.5335C121.8 52.562 121.416 51.65 120.725 50.9655C120.035 50.2808 119.119 49.9036 118.146 49.9036H110.672V54.0656V55.937H108.217V42.7964H110.672V48.0323H115.909L116.066 47.8583L120.634 42.7964H123.942ZM125.128 42.2693H120.4L115.674 47.5051H111.199V42.2693H107.689V56.4639H111.199V53.5382V50.4305H118.146C119.869 50.4305 121.267 51.8192 121.283 53.538V56.4639H124.208V53.567C124.208 53.5572 124.208 53.5477 124.208 53.5382C124.196 50.8896 122.485 48.6424 120.109 47.8298L125.128 42.2693Z" fill="#B31D29"/>
</svg>
