<svg width="200" height="120" viewBox="0 0 200 120" fill="none" xmlns="http://www.w3.org/2000/svg">
<path d="M58.9267 59.0675V56.0856C58.9267 54.5418 57.6674 53.2904 56.1139 53.2904C54.5604 53.2904 53.3011 54.5418 53.3011 56.0856V80.8161H41.4395V56.0856C41.4395 48.0321 48.0094 41.5034 56.1139 41.5034C64.2184 41.5034 70.7883 48.0321 70.7883 56.0856V83.4316C70.847 84.6292 71.8498 85.6047 73.049 85.7015H159.438V90.4935H70.7883V90.497H62.7542C60.641 90.497 58.9279 88.7947 58.9279 86.6947V86.6957H58.9267V69.886H55.4669V59.0675H58.9267Z" fill="#BDBDBD"/>
<path fill-rule="evenodd" clip-rule="evenodd" d="M73.6191 80.4826V41.501H85.4808V77.2185C85.5394 78.416 86.5422 79.3916 87.7414 79.4883H159.439V84.2804H85.4808V84.2839H77.4467C75.3335 84.2839 73.6203 82.5815 73.6203 80.4816V80.4826H73.6191Z" fill="#BDBDBD"/>
<path d="M118.987 52.7474C119.609 52.7474 120.216 52.8138 120.801 52.9397C121.179 53.0212 121.53 52.6759 121.4 52.3141C119.129 46.0107 113.065 41.501 105.941 41.501C98.8177 41.501 92.7541 46.0098 90.4828 52.312C90.3525 52.6736 90.7038 53.0189 91.0815 52.9379C91.6633 52.8131 92.2672 52.7474 92.8866 52.7474C95.6096 52.7474 98.0342 54.0174 99.5931 55.9939C99.8769 56.3537 100.59 56.236 100.77 55.8156C101.628 53.8204 103.62 52.422 105.941 52.422C108.261 52.422 110.253 53.8188 111.111 55.8123C111.292 56.2316 112 56.3485 112.284 55.9898C113.843 54.0156 116.266 52.7474 118.987 52.7474Z" fill="#BDBDBD"/>
<path d="M118.987 53.4336C119.56 53.4336 120.119 53.4947 120.656 53.6105C120.834 53.6488 121.009 53.6459 121.172 53.6101C121.79 55.3139 122.127 57.1512 122.127 59.0668C122.127 67.9495 114.881 75.1503 105.942 75.1503C97.0026 75.1503 89.7559 67.9495 89.7559 59.0668C89.7559 57.1506 90.0931 55.3126 90.7118 53.6083C90.8746 53.6439 91.0487 53.6467 91.2254 53.6088C91.7602 53.4941 92.3159 53.4336 92.8866 53.4336C95.3917 53.4336 97.6207 54.6011 99.0545 56.4189C99.236 56.6491 99.4707 56.7803 99.7092 56.8441C99.4583 57.5384 99.3217 58.2867 99.3217 59.0668C99.3217 62.6994 102.285 65.6447 105.942 65.6447C109.598 65.6447 112.561 62.6994 112.561 59.0668C112.561 58.2846 112.424 57.5344 112.172 56.8385C112.409 56.7745 112.642 56.6435 112.822 56.4151C114.256 54.5994 116.484 53.4336 118.987 53.4336Z" fill="#BDBDBD"/>
<path d="M125.252 40.9826C125.252 40.7201 125.466 40.5073 125.73 40.5073H136.433C136.697 40.5073 136.911 40.7201 136.911 40.9826V60.8612C136.911 61.2132 136.54 61.4431 136.222 61.2876L125.519 56.0522C125.356 55.9722 125.252 55.8068 125.252 55.6257V40.9826Z" fill="#BDBDBD"/>
<path d="M126.107 57.103V75.1603H136.056V61.9597C136.011 61.944 135.965 61.9253 135.921 61.9035L126.107 57.103Z" fill="#BDBDBD"/>
<path d="M151.135 40.9826C151.135 40.7201 150.921 40.5073 150.656 40.5073H139.954C139.69 40.5073 139.475 40.7201 139.475 40.9826V60.8612C139.475 61.2132 139.847 61.4431 140.165 61.2876L150.868 56.0522C151.031 55.9722 151.135 55.8068 151.135 55.6257V40.9826Z" fill="#BDBDBD"/>
<path d="M140.455 61.9089C140.459 61.9071 140.463 61.9052 140.467 61.9033L150.404 57.0425V65.047H159.439V70.3673H159.44V75.1593H159.439V75.1628L144.283 75.1628C142.169 75.1628 140.456 73.4605 140.456 71.3606V71.3616H140.455V61.9089Z" fill="#BDBDBD"/>
<path d="M131.081 26.0012C127.397 26.0019 124.41 28.9701 124.41 32.6314C124.41 36.2932 127.397 39.2616 131.082 39.2616C134.767 39.2616 137.754 36.2932 137.754 32.6314C137.754 28.9699 134.768 26.0016 131.083 26.0012C131.097 26.816 132.007 29.1028 133.021 30.0786C133.1 30.1547 133.196 30.24 133.305 30.3361C134.125 31.0641 135.639 32.4064 135.639 35.015C135.639 37.8594 133.176 39.1695 131.082 39.2616C128.989 39.1695 126.525 37.8594 126.525 35.015C126.525 32.4064 128.039 31.0641 128.86 30.3361C128.968 30.24 129.064 30.1547 129.143 30.0786C130.157 29.1028 131.067 26.816 131.081 26.0012Z" fill="#BDBDBD"/>
<path d="M131.083 26.0012C131.083 26.0012 131.083 26.0012 131.083 26.0012C131.083 26.0012 131.081 26.0012 131.081 26.0012L131.082 26.005L131.083 26.0012Z" fill="#BDBDBD"/>
</svg>

