<svg width="200" height="120" viewBox="0 0 200 120" fill="none" xmlns="http://www.w3.org/2000/svg">
<path d="M58.4873 59.0675V56.0856C58.4873 54.5418 57.2279 53.2904 55.6744 53.2904C54.121 53.2904 52.8616 54.5418 52.8616 56.0856V80.8161H41V56.0856C41 48.0321 47.57 41.5034 55.6744 41.5034C63.7789 41.5034 70.3489 48.0321 70.3489 56.0856V83.4316C70.4075 84.6292 71.4103 85.6047 72.6095 85.7015H158.999V90.4935H70.3489V90.497H62.3148C60.2016 90.497 58.4885 88.7947 58.4885 86.6947V86.6957H58.4873V69.886H55.0274V59.0675H58.4873Z" fill="#EB4226"/>
<path fill-rule="evenodd" clip-rule="evenodd" d="M73.1797 80.4826V41.501H85.0413V77.2185C85.0999 78.416 86.1027 79.3916 87.3019 79.4883H158.999V84.2804H85.0413V84.2839H77.0072C74.894 84.2839 73.1809 82.5815 73.1809 80.4816V80.4826H73.1797Z" fill="#33743A"/>
<path d="M118.547 52.7474C119.17 52.7474 119.777 52.8138 120.361 52.9397C120.739 53.0212 121.091 52.6759 120.961 52.3141C118.69 46.0107 112.626 41.501 105.502 41.501C98.3782 41.501 92.3147 46.0098 90.0433 52.312C89.913 52.6736 90.2643 53.0189 90.6421 52.9379C91.2239 52.8131 91.8278 52.7474 92.4471 52.7474C95.1702 52.7474 97.5947 54.0174 99.1537 55.9939C99.4374 56.3537 100.15 56.236 100.331 55.8156C101.188 53.8204 103.181 52.422 105.502 52.422C107.822 52.422 109.814 53.8188 110.672 55.8123C110.852 56.2316 111.561 56.3485 111.844 55.9898C113.403 54.0156 115.826 52.7474 118.547 52.7474Z" fill="#E0E0E0"/>
<path d="M118.547 53.4336C119.121 53.4336 119.679 53.4947 120.217 53.6105C120.394 53.6488 120.569 53.6459 120.733 53.6101C121.351 55.3139 121.688 57.1512 121.688 59.0668C121.688 67.9495 114.441 75.1503 105.502 75.1503C96.5632 75.1503 89.3164 67.9495 89.3164 59.0668C89.3164 57.1506 89.6536 55.3126 90.2724 53.6083C90.4351 53.6439 90.6092 53.6467 90.786 53.6088C91.3207 53.4941 91.8764 53.4336 92.4471 53.4336C94.9522 53.4336 97.1813 54.6011 98.6151 56.4189C98.7966 56.6491 99.0312 56.7803 99.2697 56.8441C99.0189 57.5384 98.8822 58.2867 98.8822 59.0668C98.8822 62.6994 101.846 65.6447 105.502 65.6447C109.158 65.6447 112.122 62.6994 112.122 59.0668C112.122 58.2846 111.985 57.5344 111.733 56.8385C111.969 56.7745 112.202 56.6435 112.383 56.4151C113.817 54.5994 116.044 53.4336 118.547 53.4336Z" fill="#0E0C0D"/>
<path d="M124.812 40.9826C124.812 40.7201 125.027 40.5073 125.291 40.5073H135.993C136.258 40.5073 136.472 40.7201 136.472 40.9826V60.8612C136.472 61.2132 136.1 61.4431 135.782 61.2876L125.08 56.0522C124.916 55.9722 124.812 55.8068 124.812 55.6257V40.9826Z" fill="#E0E0E0"/>
<path d="M125.668 57.103V75.1603H135.616V61.9597C135.571 61.944 135.526 61.9253 135.481 61.9035L125.668 57.103Z" fill="#0E0C0D"/>
<path d="M150.695 40.9826C150.695 40.7201 150.481 40.5073 150.217 40.5073H139.514C139.25 40.5073 139.036 40.7201 139.036 40.9826V60.8612C139.036 61.2132 139.408 61.4431 139.726 61.2876L150.428 56.0522C150.592 55.9722 150.695 55.8068 150.695 55.6257V40.9826Z" fill="#E0E0E0"/>
<path d="M140.016 61.9089C140.02 61.9071 140.023 61.9052 140.027 61.9033L149.964 57.0425V65.047H158.999V70.3673H159V75.1593H158.999V75.1628L143.843 75.1628C141.73 75.1628 140.017 73.4605 140.017 71.3606V71.3616H140.016V61.9089Z" fill="#0E0C0D"/>
<path d="M130.642 26.0012C126.957 26.0019 123.971 28.9701 123.971 32.6314C123.971 36.2932 126.958 39.2616 130.643 39.2616C134.328 39.2616 137.315 36.2932 137.315 32.6314C137.315 28.9699 134.328 26.0016 130.644 26.0012C130.658 26.816 131.568 29.1028 132.582 30.0786C132.661 30.1547 132.757 30.24 132.865 30.3361C133.686 31.0641 135.199 32.4064 135.199 35.015C135.199 37.8594 132.736 39.1695 130.643 39.2616C128.55 39.1695 126.086 37.8594 126.086 35.015C126.086 32.4064 127.599 31.0641 128.42 30.3361C128.528 30.24 128.625 30.1547 128.704 30.0786C129.717 29.1028 130.627 26.816 130.642 26.0012Z" fill="#E0E0E0"/>
<path d="M130.644 26.0012C130.643 26.0012 130.644 26.0012 130.644 26.0012C130.643 26.0012 130.642 26.0012 130.642 26.0012L130.643 26.005L130.644 26.0012Z" fill="#E0E0E0"/>
</svg>
