<svg width="200" height="120" viewBox="0 0 200 120" fill="none" xmlns="http://www.w3.org/2000/svg">
<path d="M153.393 60C153.393 89.4879 129.488 113.393 100 113.393C70.5121 113.393 46.6074 89.4879 46.6074 60C46.6074 30.5121 70.5121 6.60742 100 6.60742C129.488 6.60742 153.393 30.5121 153.393 60Z" fill="#469335"/>
<path fill-rule="evenodd" clip-rule="evenodd" d="M100 113.162C129.361 113.162 153.162 89.3606 153.162 60C153.162 30.6394 129.361 6.83792 100 6.83792C70.6394 6.83792 46.8379 30.6394 46.8379 60C46.8379 89.3606 70.6394 113.162 100 113.162ZM100 113.393C129.488 113.393 153.393 89.4879 153.393 60C153.393 30.5121 129.488 6.60742 100 6.60742C70.5121 6.60742 46.6074 30.5121 46.6074 60C46.6074 89.4879 70.5121 113.393 100 113.393Z" fill="#316725"/>
<path d="M143.552 60.0001C143.552 84.0535 124.053 103.553 99.9997 103.553C75.9463 103.553 56.4473 84.0535 56.4473 60.0001C56.4473 35.9468 75.9463 16.4478 99.9997 16.4478C124.053 16.4478 143.552 35.9468 143.552 60.0001Z" fill="#8ECD38"/>
<path fill-rule="evenodd" clip-rule="evenodd" d="M143.783 59.9999C143.783 84.1805 124.18 103.783 99.9997 103.783C75.8191 103.783 56.2168 84.1805 56.2168 59.9999C56.2168 35.8193 75.8191 16.217 99.9997 16.217C124.18 16.217 143.783 35.8193 143.783 59.9999ZM99.9997 103.552C124.053 103.552 143.552 84.0533 143.552 59.9999C143.552 35.9466 124.053 16.4475 99.9997 16.4475C75.9464 16.4475 56.4473 35.9466 56.4473 59.9999C56.4473 84.0533 75.9464 103.552 99.9997 103.552Z" fill="#316725"/>
<path d="M107.259 17.05C104.898 16.6539 102.473 16.4478 99.9997 16.4478C97.5264 16.4478 95.1012 16.6539 92.7405 17.05H107.259Z" fill="#53952B"/>
<path d="M83.3434 19.7463C84.2615 19.366 85.1955 19.0161 86.144 18.6981H113.855C114.804 19.0161 115.738 19.366 116.656 19.7463H83.3434Z" fill="#53952B"/>
<path d="M77.9351 22.4426C78.5541 22.0781 79.1829 21.7286 79.821 21.3944H120.178C120.816 21.7286 121.445 22.0781 122.064 22.4426H77.9351Z" fill="#53952B"/>
<path d="M73.8897 25.1389C74.3685 24.7797 74.8549 24.4302 75.3486 24.0907H124.651C125.144 24.4302 125.631 24.7797 126.11 25.1389H73.8897Z" fill="#53952B"/>
<path d="M70.6356 27.8352C71.0258 27.4787 71.4226 27.1292 71.8257 26.7869H128.174C128.577 27.1292 128.973 27.4787 129.364 27.8352H70.6356Z" fill="#53952B"/>
<path d="M67.9305 30.5315C68.2568 30.1766 68.5889 29.8271 68.9267 29.4832H131.073C131.41 29.8271 131.743 30.1766 132.069 30.5315H67.9305Z" fill="#53952B"/>
<path d="M65.6453 33.2278C65.9214 32.8739 66.2029 32.5245 66.4896 32.1795H133.51C133.796 32.5245 134.078 32.8739 134.354 33.2278H65.6453Z" fill="#53952B"/>
<path d="M63.7014 35.9241C63.9361 35.571 64.1757 35.2215 64.4203 34.8758H135.579C135.824 35.2215 136.063 35.571 136.298 35.9241H63.7014Z" fill="#53952B"/>
<path d="M62.0473 38.6204C62.2463 38.2679 62.45 37.9184 62.6585 37.5721H137.341C137.549 37.9184 137.753 38.2679 137.952 38.6204H62.0473Z" fill="#53952B"/>
<path d="M60.6471 41.3167C60.8145 40.9646 60.9865 40.6152 61.1631 40.2684H138.836C139.013 40.6152 139.185 40.9646 139.352 41.3167H60.6471Z" fill="#53952B"/>
<path d="M59.4752 44.0129C59.614 43.6613 59.7573 43.3118 59.905 42.9647H140.094C140.242 43.3118 140.385 43.6613 140.524 44.0129H59.4752Z" fill="#53952B"/>
<path d="M58.5125 46.7092C58.625 46.3579 58.7418 46.0084 58.8629 45.661H141.136C141.258 46.0084 141.374 46.3579 141.487 46.7092H58.5125Z" fill="#53952B"/>
<path d="M57.7449 49.4055C57.8327 49.0544 57.9247 48.705 58.0209 48.3573H141.978C142.075 48.705 142.167 49.0544 142.254 49.4055H57.7449Z" fill="#53952B"/>
<path d="M57.1617 52.1018C57.2259 51.7509 57.2944 51.4015 57.3671 51.0536H142.632C142.705 51.4015 142.773 51.7509 142.838 52.1018H57.1617Z" fill="#53952B"/>
<path d="M56.7547 54.7981C56.7965 54.4474 56.8424 54.098 56.8924 53.7499H143.107C143.157 54.098 143.203 54.4474 143.245 54.7981H56.7547Z" fill="#53952B"/>
<path d="M56.5181 57.4944C56.538 57.1439 56.5621 56.7945 56.5902 56.4462H143.409C143.437 56.7945 143.461 57.1439 143.481 57.4944H56.5181Z" fill="#53952B"/>
<path d="M56.4477 60.1907C56.4474 60.1272 56.4473 60.0637 56.4473 60.0001C56.4473 59.7136 56.45 59.4277 56.4555 59.1425H143.544C143.549 59.4277 143.552 59.7136 143.552 60.0001C143.552 60.0637 143.552 60.1272 143.552 60.1907H56.4477Z" fill="#53952B"/>
<path d="M56.5414 62.887C56.5186 62.5387 56.4999 62.1893 56.4854 61.8388H143.514C143.499 62.1893 143.481 62.5387 143.458 62.887H56.5414Z" fill="#53952B"/>
<path d="M56.8018 65.5833C56.7572 65.2351 56.7168 64.8857 56.6805 64.5351H143.319C143.283 64.8857 143.242 65.2351 143.198 65.5833H56.8018Z" fill="#53952B"/>
<path d="M57.2332 68.2796C57.1663 67.9316 57.1035 67.5822 57.0448 67.2314H142.954C142.896 67.5822 142.833 67.9316 142.766 68.2796H57.2332Z" fill="#53952B"/>
<path d="M57.842 70.9759C57.7517 70.6281 57.6656 70.2787 57.5838 69.9276H142.416C142.334 70.2787 142.248 70.6281 142.157 70.9759H57.842Z" fill="#53952B"/>
<path d="M58.6365 73.6722C58.5217 73.3247 58.4111 72.9752 58.3049 72.6239H141.694C141.588 72.9752 141.478 73.3247 141.363 73.6722H58.6365Z" fill="#53952B"/>
<path d="M59.6277 76.3685C59.4868 76.0213 59.3503 75.6718 59.2181 75.3202H140.781C140.649 75.6718 140.512 76.0213 140.372 76.3685H59.6277Z" fill="#53952B"/>
<path d="M60.8306 79.0648C60.6615 78.7179 60.4968 78.3685 60.3367 78.0165H139.663C139.502 78.3685 139.338 78.7179 139.169 79.0648H60.8306Z" fill="#53952B"/>
<path d="M62.265 81.7611C62.0648 81.4146 61.8692 81.0652 61.6783 80.7128H138.321C138.13 81.0652 137.935 81.4146 137.734 81.7611H62.265Z" fill="#53952B"/>
<path d="M63.9576 84.4573C63.7224 84.1115 63.4921 83.762 63.2668 83.4091H136.733C136.507 83.762 136.277 84.1115 136.042 84.4573H63.9576Z" fill="#53952B"/>
<path d="M65.9461 87.1536C65.6706 86.8085 65.4001 86.459 65.1349 86.1054H134.864C134.599 86.459 134.329 86.8085 134.053 87.1536H65.9461Z" fill="#53952B"/>
<path d="M68.2851 89.8499C67.9611 89.5058 67.6425 89.1563 67.3297 88.8017H132.67C132.357 89.1563 132.038 89.5058 131.714 89.8499H68.2851Z" fill="#53952B"/>
<path d="M71.0583 92.5462C70.6731 92.2035 70.2941 91.854 69.9214 91.498H130.078C129.705 91.854 129.326 92.2035 128.941 92.5462H71.0583Z" fill="#53952B"/>
<path d="M74.4056 95.2425C73.9377 94.9021 73.4768 94.5526 73.0232 94.1943H126.976C126.522 94.5526 126.062 94.9021 125.594 95.2425H74.4056Z" fill="#53952B"/>
<path d="M78.5956 97.9388C78.0013 97.6028 77.4157 97.2533 76.8392 96.8906H123.16C122.584 97.2533 121.998 97.6028 121.404 97.9388H78.5956Z" fill="#53952B"/>
<path d="M84.2951 100.635C83.4561 100.311 82.6297 99.9609 81.8167 99.5869H118.183C117.37 99.9609 116.543 100.311 115.704 100.635H84.2951Z" fill="#53952B"/>
<path d="M95.5835 103.331C93.5159 103.123 91.4909 102.77 89.5189 102.283H110.48C108.508 102.77 106.483 103.123 104.416 103.331H95.5835Z" fill="#53952B"/>
<path d="M77.2051 28.5286H123.759L101.4 58.9222H77.2051V28.5286Z" fill="#1F1A17"/>
<path d="M77.2051 62.459H98.7168L77.2051 91.7001V62.459Z" fill="#1F1A17"/>
<path d="M111.269 70.499C111.269 68.3994 109.09 65.9818 108 65.0354C117.758 67.97 117.854 74.189 117.854 76.0103C117.854 77.8316 116.509 80.1855 113.75 80.1855C111.221 80.1855 109.376 78.7302 109.376 76.0103C109.376 73.5209 111.269 73.1234 111.269 70.499Z" fill="#1F1A17"/>
<path d="M98.9728 11.9439L98.9788 13.4093C98.9798 13.6512 98.9932 13.8023 99.0191 13.8626C99.0472 13.923 99.0998 13.9762 99.1767 14.0223C99.256 14.0661 99.3619 14.0876 99.4945 14.0869L99.6515 14.0861L99.652 14.2152L97.1784 14.2283L97.1778 14.0992L97.3348 14.0984C97.4721 14.0976 97.5825 14.0726 97.666 14.0233C97.7263 13.9905 97.7726 13.9344 97.8049 13.8551C97.8302 13.7992 97.8424 13.6526 97.8414 13.4153L97.8287 10.3032C97.8277 10.0613 97.8143 9.91015 97.7885 9.84981C97.7626 9.78947 97.7101 9.73741 97.6308 9.69364C97.5539 9.64753 97.4491 9.62482 97.3165 9.62553L97.1595 9.62636L97.159 9.49727L99.6327 9.48413L99.6332 9.61323L99.4762 9.61406C99.3389 9.61479 99.2286 9.6398 99.145 9.68909C99.0847 9.72197 99.0372 9.77805 99.0027 9.85732C98.9773 9.91328 98.9651 10.0599 98.9661 10.2971L98.9716 11.6369L100.643 11.628L100.637 10.2883C100.636 10.0464 100.623 9.89523 100.597 9.83489C100.571 9.77456 100.519 9.7225 100.439 9.67873C100.36 9.63263 100.254 9.60993 100.122 9.61063L99.9681 9.61145L99.9676 9.48236L102.438 9.46924L102.438 9.59833L102.285 9.59915C102.145 9.59989 102.035 9.6249 101.954 9.67417C101.893 9.70706 101.846 9.76313 101.811 9.8424C101.786 9.89836 101.774 10.045 101.775 10.2822L101.787 13.3944C101.788 13.6363 101.802 13.7874 101.828 13.8477C101.854 13.9081 101.906 13.9613 101.985 14.0074C102.065 14.0512 102.171 14.0727 102.303 14.072L102.457 14.0712L102.457 14.2003L99.987 14.2134L99.9864 14.0843L100.14 14.0835C100.28 14.0827 100.39 14.0577 100.471 14.0085C100.531 13.9756 100.579 13.9195 100.613 13.8402C100.639 13.7843 100.651 13.6377 100.65 13.4004L100.644 11.935L98.9728 11.9439Z" fill="white"/>
<path fill-rule="evenodd" clip-rule="evenodd" d="M95.5562 10.2474C95.0337 9.84282 94.4003 9.70208 93.6561 9.8252C92.9605 9.88583 92.4035 10.1797 91.985 10.7068C91.5685 11.2312 91.4027 11.8421 91.4875 12.5394C91.5631 13.1605 91.8108 13.6741 92.2304 14.0801C92.7615 14.5938 93.4493 14.7968 94.2938 14.689C95.136 14.5815 95.7512 14.1982 96.1396 13.539C96.4329 13.0419 96.5433 12.4956 96.4708 11.8999C96.386 11.2026 96.0811 10.6518 95.5562 10.2474ZM92.8253 10.8246C92.9957 10.3573 93.2955 10.0963 93.7246 10.0416C93.9577 10.0118 94.1707 10.0491 94.3638 10.1534C94.5593 10.2574 94.7335 10.4568 94.8865 10.7515C95.0393 11.0438 95.1534 11.5006 95.229 12.1217C95.2925 12.6435 95.2876 13.0744 95.2142 13.4144C95.1404 13.7521 95.0111 14.0078 94.826 14.1815C94.6809 14.3172 94.4895 14.4003 94.2518 14.4306C93.8988 14.4757 93.6079 14.3768 93.3792 14.134C93.0511 13.7866 92.8382 13.2123 92.7407 12.4111C92.6587 11.7369 92.6868 11.2081 92.8253 10.8246Z" fill="white"/>
<path d="M88.6664 11.5914C88.604 11.3433 88.5331 11.1836 88.4537 11.1125C88.376 11.0386 88.2221 11.0307 87.9921 11.0888L87.8398 11.1272L87.8095 11.0017L90.2688 10.3807L90.2991 10.5062L90.1401 10.5464C89.9282 10.5999 89.797 10.6762 89.7468 10.7752C89.6988 10.8737 89.7082 11.0608 89.7749 11.3367L90.5064 14.3617C90.5747 14.6443 90.6537 14.8174 90.7433 14.8812C90.8323 14.9426 90.9817 14.9469 91.1915 14.8939L91.3504 14.8538L91.3808 14.9793L88.9215 15.6002L88.8911 15.4748L89.0434 15.4363C89.2576 15.3822 89.3873 15.3051 89.4325 15.2049C89.4794 15.1019 89.4697 14.9137 89.4036 14.6401L88.8 12.1442L87.7981 15.0959C87.8511 15.3152 87.9164 15.4666 87.9941 15.5501C88.0712 15.6314 88.2292 15.6419 88.4683 15.5815L88.6273 15.5414L88.6576 15.6669L86.1983 16.2878L86.168 16.1624L86.3202 16.1239C86.5344 16.0698 86.6653 15.9924 86.7127 15.8917C86.7596 15.7887 86.75 15.6004 86.6838 15.3268L85.9523 12.3019C85.8856 12.026 85.8154 11.8543 85.7416 11.7865C85.6677 11.7188 85.5102 11.7154 85.2689 11.7763L85.1167 11.8148L85.0863 11.6893L87.5456 11.0683L87.576 11.1938L87.417 11.234C87.2095 11.2863 87.0817 11.3666 87.0337 11.4747C86.9851 11.5805 86.9922 11.7634 87.0551 12.0234L87.6644 14.5431L88.6664 11.5914Z" fill="white"/>
<path d="M80.98 18.1834L81.025 18.3045L84.3108 17.0311C85.1176 16.7185 85.7639 16.9619 86.2497 17.7614L86.37 17.7147L85.8436 16.2987L85.7558 16.3327C85.5649 16.4067 85.4224 16.417 85.3282 16.3637C85.2361 16.3096 85.1398 16.1474 85.0393 15.877L83.9549 12.9599C83.8496 12.6765 83.8186 12.4864 83.8621 12.3898C83.9056 12.2931 84.0173 12.2099 84.1973 12.1401L84.2851 12.1061L84.2402 11.9851L81.9954 12.855L82.0404 12.976L82.1835 12.9205C82.3787 12.8449 82.5217 12.8356 82.6124 12.8927C82.7023 12.9477 82.7963 13.1071 82.8944 13.3709L83.997 16.3371C84.078 16.5551 84.1062 16.6876 84.0815 16.7346C84.0568 16.7816 83.923 16.8522 83.68 16.9463L83.0294 17.1984C82.806 17.285 82.6712 17.3161 82.6248 17.2916C82.5785 17.2672 82.5145 17.1448 82.4326 16.9246L81.3361 13.9748C81.2307 13.6913 81.2019 13.5005 81.2497 13.4021C81.2975 13.3038 81.4277 13.2134 81.6403 13.131L81.7281 13.097L81.6831 12.976L79.3766 13.8699L79.4215 13.9909L79.5614 13.9366C79.7545 13.8618 79.8974 13.8526 79.9903 13.9089C80.0824 13.963 80.1774 14.122 80.2755 14.3858L81.3599 17.3029C81.4547 17.558 81.4901 17.7401 81.4662 17.8491C81.4414 17.956 81.3184 18.0523 81.0972 18.1381L80.98 18.1834Z" fill="white"/>
<path d="M74.3372 16.5284L76.5105 15.3691L76.5694 15.484L76.4986 15.5218C76.2933 15.6313 76.1755 15.7429 76.1449 15.8567C76.1153 15.9674 76.1546 16.1283 76.2628 16.3395L76.9069 17.5972C77.1942 17.4439 77.3762 17.335 77.4528 17.2704C77.5284 17.2037 77.5793 17.1041 77.6055 16.9715C77.6306 16.8369 77.6081 16.6169 77.538 16.3116C77.4569 15.9543 77.413 15.6772 77.4063 15.4804C77.4016 15.2826 77.4417 15.1031 77.5264 14.9419C77.612 14.7776 77.7544 14.6424 77.9535 14.5362C78.1505 14.4311 78.3377 14.4037 78.515 14.4541C78.6913 14.5024 78.8219 14.6094 78.9067 14.775C78.9724 14.9034 78.9844 15.0262 78.9425 15.1434C78.9006 15.2606 78.8202 15.351 78.7011 15.4145C78.4672 15.5393 78.271 15.4699 78.1126 15.2065C78.0344 15.0742 77.9522 15.0311 77.866 15.0771C77.7736 15.1263 77.7217 15.2213 77.7101 15.3619C77.6985 15.5025 77.7247 15.7297 77.7887 16.0435C77.8516 16.35 77.8908 16.5847 77.9063 16.7478C77.9208 16.9087 77.9022 17.061 77.8503 17.2047C77.9986 17.1677 78.1214 17.1576 78.2188 17.1742C78.3182 17.1897 78.4189 17.2256 78.5209 17.2819C78.6218 17.3361 78.8563 17.4878 79.2242 17.737L80.0403 18.2743C80.1643 18.3532 80.2857 18.3965 80.4047 18.4042C80.5246 18.4088 80.6492 18.3766 80.7785 18.3076L80.8373 18.4225L79.4397 19.168L77.7539 18.0113C77.562 17.8816 77.433 17.8108 77.3667 17.7987C77.3014 17.7834 77.1964 17.8105 77.0516 17.8798L77.7815 19.3052C77.8855 19.5081 77.9928 19.6156 78.1035 19.6277C78.2162 19.6387 78.3845 19.5846 78.6082 19.4652L78.667 19.5801L76.4937 20.7394L76.4348 20.6245C76.6728 20.4923 76.8118 20.3734 76.8517 20.2677C76.8927 20.1589 76.8564 19.9937 76.743 19.7722L75.3006 16.9555C75.1744 16.7092 75.0598 16.5594 74.9568 16.5063C74.8538 16.4531 74.6967 16.4829 74.4853 16.5957L74.396 16.6433L74.3372 16.5284Z" fill="white"/>
<path fill-rule="evenodd" clip-rule="evenodd" d="M72.4448 21.8777L73.8232 20.9326L74.3547 21.2829C74.4929 21.3743 74.5696 21.4274 74.585 21.4422C74.6208 21.4713 74.6502 21.5032 74.6732 21.5382C74.7116 21.5965 74.72 21.6556 74.6982 21.7156C74.665 21.8005 74.5726 21.8948 74.4211 21.9988L74.3434 22.052L74.4144 22.1598L76.302 20.8655L76.231 20.7577C76.1057 20.8295 75.9905 20.8577 75.8857 20.8422C75.7469 20.8218 75.5093 20.7041 75.1728 20.4893L71.6315 18.2142L71.5768 18.2517L72.2579 22.3612C72.3239 22.753 72.3438 23.0284 72.3176 23.1874C72.2901 23.3444 72.2134 23.4816 72.0874 23.599L72.1584 23.7068L73.4562 22.8169L73.3852 22.7091C73.1716 22.833 73.0287 22.8972 72.9564 22.9016C72.8336 22.9097 72.7357 22.8583 72.6628 22.7476C72.6078 22.6641 72.5649 22.5398 72.5342 22.3748L72.4448 21.8777ZM72.1057 19.822L73.5833 20.7841L72.4035 21.593L72.1057 19.822Z" fill="white"/>
<path d="M65.746 23.4154L67.0216 24.8583L67.0909 24.7945C67.3118 24.5914 67.4095 24.3736 67.384 24.1411C67.3585 23.9086 67.2377 23.6421 67.0217 23.3416L67.1193 23.2519L68.76 25.1077L68.6625 25.1975C68.4632 25.0142 68.2732 24.8888 68.0924 24.8213C67.9133 24.7522 67.7609 24.736 67.6351 24.7727C67.5077 24.8077 67.361 24.9016 67.1949 25.0543L68.0777 26.0528C68.2503 26.248 68.3635 26.3603 68.4174 26.3897C68.4731 26.4175 68.5355 26.4249 68.6046 26.4118C68.6738 26.3988 68.758 26.3466 68.8573 26.2553L69.0653 26.0639C69.3906 25.7648 69.583 25.4488 69.6426 25.1159C69.7039 24.7815 69.6387 24.4181 69.447 24.0257L69.542 23.9383L70.3814 25.2089L67.3717 27.9771L67.2862 27.8804L67.4018 27.7741C67.5028 27.6812 67.5679 27.5881 67.5972 27.4948C67.6201 27.4295 67.6174 27.3562 67.589 27.2749C67.5708 27.2157 67.4832 27.0973 67.3261 26.9195L65.2647 24.5879C65.1229 24.4276 65.0316 24.3331 64.9907 24.3044C64.9197 24.2591 64.8464 24.2412 64.7709 24.2506C64.6627 24.2616 64.5521 24.3191 64.4391 24.423L64.3236 24.5293L64.238 24.4326L67.1527 21.7519L68.0794 22.8001L67.9818 22.8898C67.7057 22.6793 67.473 22.56 67.2836 22.5319C67.096 22.5023 66.8969 22.5369 66.6863 22.6358C66.5627 22.6926 66.3691 22.8423 66.1055 23.0847L65.746 23.4154Z" fill="white"/>
<path fill-rule="evenodd" clip-rule="evenodd" d="M63.5086 26.0814C62.8534 26.1207 62.2881 26.4335 61.8128 27.0197C61.333 27.5263 61.1092 28.118 61.1416 28.7948C61.1738 29.4683 61.4498 30.0412 61.9696 30.5137C62.4326 30.9345 62.9538 31.1599 63.533 31.1898C64.266 31.2275 64.9126 30.9259 65.4729 30.2849C66.0316 29.6457 66.2403 28.9475 66.0989 28.1905C65.9926 27.6195 65.7175 27.1321 65.2734 26.7285C64.7535 26.256 64.1653 26.0403 63.5086 26.0814ZM61.8464 28.3277C61.6678 27.8605 61.7209 27.4641 62.0056 27.1384C62.1602 26.9615 62.3438 26.8486 62.5563 26.7998C62.7704 26.7493 63.031 26.785 63.3382 26.9071C63.6437 27.0276 64.0279 27.2982 64.491 27.7191C64.88 28.0726 65.1583 28.4026 65.326 28.709C65.492 29.0138 65.5627 29.2934 65.5382 29.5476C65.5186 29.7467 65.43 29.9364 65.2724 30.1168C65.0382 30.3847 64.7562 30.5024 64.4264 30.4698C63.9539 30.4238 63.419 30.1293 62.8217 29.5865C62.3191 29.1297 61.994 28.7101 61.8464 28.3277Z" fill="white"/>
<path d="M59.6412 29.7425L60.6776 30.4945L60.6057 30.5975C60.324 30.485 60.1054 30.4284 59.9499 30.4277C59.7926 30.4256 59.6376 30.4668 59.4849 30.5515C59.4004 30.5994 59.2949 30.7139 59.1684 30.8951L58.9667 31.184L61.9207 33.3272C62.1165 33.4692 62.2462 33.5475 62.3098 33.5621C62.3747 33.5747 62.4479 33.5632 62.5295 33.5276C62.6106 33.4887 62.6897 33.4139 62.7669 33.3033L62.8568 33.1746L62.9613 33.2504L61.5434 35.2816L61.4389 35.2058L61.5287 35.0771C61.6073 34.9645 61.6508 34.8596 61.6592 34.7622C61.6674 34.6935 61.6495 34.6217 61.6055 34.5466C61.5749 34.4928 61.4637 34.3963 61.2716 34.257L58.3177 32.1138L58.122 32.3942C57.9396 32.6555 57.8617 32.8849 57.8884 33.0824C57.925 33.3589 58.0692 33.6216 58.321 33.8703L58.2451 33.9791L57.2087 33.2271L59.6412 29.7425Z" fill="white"/>
<path fill-rule="evenodd" clip-rule="evenodd" d="M56.4867 38.9358L56.1953 39.4881L54.9867 38.8259C54.7847 38.7153 54.6653 38.6326 54.6284 38.5779C54.5926 38.5212 54.5742 38.4514 54.5732 38.3686C54.5732 38.2838 54.6243 38.1421 54.7265 37.9434L54.6132 37.8814L53.477 40.0354L53.5902 40.0974C53.7321 39.8384 53.8514 39.6969 53.9482 39.673C54.046 39.6471 54.2418 39.7146 54.5355 39.8755L57.2924 41.3861C57.5086 41.5045 57.6298 41.6187 57.6561 41.7285C57.6813 41.8352 57.6276 42.0192 57.4949 42.2807L57.6081 42.3427L58.7916 40.0992C59.0011 39.7022 59.1183 39.3779 59.1431 39.1263C59.1691 38.8727 59.1323 38.6311 59.0325 38.4014C58.9339 38.1697 58.7663 37.989 58.5296 37.8593C58.1829 37.6693 57.8344 37.6521 57.4841 37.8076C57.1339 37.9631 56.8014 38.3391 56.4867 38.9358ZM57.716 40.3214L56.4646 39.6357C56.597 39.3847 56.7194 39.2025 56.8318 39.089C56.9453 38.9736 57.1109 38.9039 57.3286 38.8799C57.5443 38.8549 57.7684 38.9061 58.001 39.0335C58.2417 39.1654 58.41 39.3372 58.5061 39.549C58.6032 39.7586 58.5882 39.9838 58.4613 40.2245C58.382 40.3747 58.288 40.4558 58.1792 40.4677C58.0683 40.4786 57.9139 40.4298 57.716 40.3214Z" fill="white"/>
<path d="M60.7598 36.3683L60.6465 36.3063L60.5749 36.4421C60.5076 36.5696 60.4326 36.6571 60.3497 36.7045C60.2659 36.7488 60.1921 36.764 60.1283 36.7503C60.0625 36.7355 59.9327 36.675 59.739 36.5688L57.0096 35.0733C56.8179 34.9683 56.6973 34.8903 56.6479 34.8393C56.5976 34.7852 56.5683 34.7135 56.5602 34.6242C56.5521 34.5349 56.5828 34.4244 56.6523 34.2928L56.7239 34.157L56.6107 34.095L55.4581 36.2798L55.5713 36.3418L55.643 36.2061C55.7103 36.0785 55.7858 35.9926 55.8696 35.9484C55.9525 35.901 56.0268 35.8847 56.0926 35.8995C56.1564 35.9132 56.2851 35.9732 56.4789 36.0794L59.2083 37.5748C59.4 37.6799 59.5211 37.7595 59.5714 37.8136C59.6208 37.8645 59.6495 37.9346 59.6576 38.0239C59.6657 38.1132 59.6351 38.2237 59.5656 38.3554L59.494 38.4911L59.6072 38.5532L60.7598 36.3683Z" fill="white"/>
<path fill-rule="evenodd" clip-rule="evenodd" d="M54.849 43.8186L56.0672 44.3055C56.3047 44.4004 56.4603 44.4463 56.5338 44.4431C56.606 44.4369 56.6746 44.4043 56.7398 44.3451C56.8057 44.2838 56.8772 44.1534 56.9541 43.9537L57.074 44.0016L56.21 46.2449L56.0901 46.197C56.1687 45.9929 56.2034 45.8477 56.1943 45.7614C56.1838 45.6721 56.1538 45.6012 56.1042 45.5489C56.0554 45.4943 55.9123 45.4195 55.6747 45.3246L52.8236 44.1851C52.5861 44.0901 52.4312 44.0457 52.359 44.052C52.2855 44.0551 52.2162 44.0863 52.151 44.1454C52.0859 44.2045 52.0145 44.335 51.9367 44.5369L51.8168 44.489L52.5579 42.5648C52.802 41.931 53.0895 41.5211 53.4203 41.3352C53.751 41.1493 54.0849 41.1237 54.4219 41.2584C54.707 41.3724 54.9167 41.5589 55.0512 41.818C55.1857 42.0772 55.2295 42.3777 55.1825 42.7196C55.1533 42.9509 55.0421 43.3172 54.849 43.8186ZM52.6978 42.9588L54.5963 43.7176C54.6282 43.6477 54.6513 43.5943 54.6655 43.5574C54.7674 43.2926 54.7683 43.0575 54.6679 42.8521C54.5654 42.6458 54.35 42.477 54.0217 42.3458C53.6956 42.2155 53.4294 42.1917 53.223 42.2745C53.0166 42.3574 52.8587 42.541 52.7492 42.8253L52.6978 42.9588Z" fill="white"/>
<path d="M50.8926 47.6632L50.2421 50.039L50.3663 50.0743L50.3931 49.9767C50.4563 49.7456 50.5427 49.6106 50.6523 49.5715C50.7618 49.5325 50.9498 49.5508 51.216 49.6263L54.2603 50.4903C54.4998 50.5582 54.645 50.6442 54.6961 50.7481C54.7456 50.8492 54.7367 51.0316 54.6693 51.2954L54.7935 51.3306L55.4439 48.9548L55.3197 48.9196C55.2528 49.1641 55.1765 49.3238 55.0909 49.3986C55.0059 49.4712 54.8538 49.4764 54.6345 49.4142L53.0939 48.977C53.143 48.8241 53.1956 48.729 53.2516 48.6917C53.306 48.6515 53.4464 48.6055 53.6728 48.5537L55.6752 48.1102L56.0935 46.5824L55.9693 46.5472C55.9306 46.6885 55.8683 46.8014 55.7825 46.8858C55.6951 46.9674 55.58 47.0266 55.4373 47.0635L54.4844 47.2935C54.0498 47.3926 53.778 47.4605 53.669 47.4973C53.5578 47.5335 53.4624 47.5826 53.3827 47.6446C53.3037 47.7043 53.2266 47.8009 53.1515 47.9343C53.0825 47.7987 52.9844 47.6814 52.8572 47.5825C52.7277 47.4828 52.5297 47.3517 52.2631 47.189C51.9905 47.0222 51.8069 46.8867 51.7125 46.7825C51.618 46.6783 51.5846 46.5758 51.6122 46.4748C51.638 46.3806 51.726 46.35 51.8761 46.3829C52.177 46.4465 52.3625 46.3505 52.4325 46.0947C52.4681 45.9646 52.4576 45.8444 52.401 45.734C52.3444 45.6236 52.2468 45.5488 52.108 45.5094C51.929 45.4586 51.7613 45.4811 51.6048 45.577C51.4461 45.6722 51.3373 45.8274 51.2783 46.0428C51.2188 46.2604 51.2194 46.4564 51.2801 46.6308C51.3393 46.8023 51.4425 46.9537 51.5899 47.085C51.7378 47.214 51.9699 47.3705 52.286 47.5546C52.5567 47.7111 52.7324 47.8444 52.8132 47.9544C52.8918 48.0637 52.9294 48.1687 52.9259 48.2693C52.9203 48.3692 52.8745 48.5762 52.7885 48.8903L51.4291 48.5045C51.2009 48.4398 51.0566 48.3589 50.9963 48.262C50.9344 48.1623 50.9342 48.0002 50.9956 47.7759L51.0168 47.6985L50.8926 47.6632Z" fill="white"/>
<path fill-rule="evenodd" clip-rule="evenodd" d="M53.0924 53.4673L52.8287 55.1176L53.2517 55.3891C53.3929 55.4784 53.5129 55.5312 53.6115 55.5475C53.7423 55.5691 53.8472 55.5322 53.926 55.4368C53.9726 55.3808 54.0246 55.2326 54.0818 54.9922L54.2092 55.0132L53.961 56.567L53.8336 56.546C53.8351 56.3742 53.7883 56.225 53.6931 56.0985C53.5956 55.9716 53.3817 55.7995 53.0513 55.5823L49.5936 53.2962L49.604 53.2307L53.7011 52.1781C54.0894 52.0772 54.3388 51.9829 54.4494 51.8951C54.5331 51.8287 54.592 51.7253 54.6262 51.5848L54.7536 51.6058L54.3925 53.8659L54.2651 53.8449L54.28 53.7519C54.309 53.5704 54.3041 53.4388 54.2654 53.3569C54.2367 53.3003 54.188 53.2664 54.1191 53.255C54.0778 53.2482 54.0343 53.248 53.9884 53.2546C53.9671 53.2558 53.8755 53.276 53.7138 53.3153L53.0924 53.4673ZM52.8189 53.5424L51.1001 53.9729L52.5932 54.955L52.8189 53.5424Z" fill="white"/>
<path d="M50.3971 59.8842L48.9453 59.7889L48.9536 59.6601C49.1223 59.6455 49.21 59.5872 49.2165 59.4851C49.2195 59.4386 49.2015 59.3559 49.1625 59.2368C49.0616 58.9201 49.0202 58.6213 49.0382 58.3405C49.0691 57.8577 49.2125 57.493 49.4684 57.2463C49.7244 56.9974 50.008 56.8832 50.319 56.9036C50.4652 56.9132 50.6116 56.9566 50.7581 57.0338C50.9025 57.1085 51.0312 57.2289 51.144 57.3948C51.2548 57.5582 51.3443 57.8159 51.4126 58.1677C51.5285 57.6694 51.7137 57.3261 51.9681 57.1377C52.2203 56.9491 52.4845 56.8639 52.7607 56.882C52.9997 56.8977 53.2203 56.9833 53.4225 57.1387C53.6224 57.2917 53.7696 57.5053 53.8639 57.7796C53.9583 58.0515 53.9925 58.3906 53.9665 58.7968C53.9413 59.1891 53.868 59.4966 53.7465 59.7194C53.6251 59.9399 53.4368 60.1327 53.1815 60.2977L53.0446 60.1419C53.4135 59.8421 53.6093 59.5146 53.632 59.1595C53.6508 58.867 53.5715 58.631 53.3942 58.4516C53.2148 58.2696 52.973 58.1687 52.669 58.1487C52.4369 58.1335 52.2327 58.1737 52.0564 58.2693C51.8778 58.3648 51.757 58.4863 51.6939 58.6337C51.6286 58.7809 51.5829 59.0028 51.5568 59.2995L51.2505 59.2794C51.258 59.1983 51.2635 59.1311 51.2669 59.0777C51.2877 58.7527 51.2131 58.517 51.043 58.3707C50.8708 58.2218 50.6117 58.1361 50.2659 58.1134C49.9363 58.0917 49.6963 58.1459 49.5458 58.2759C49.3929 58.4057 49.3104 58.5658 49.2982 58.7561C49.2817 59.0138 49.3703 59.2306 49.5642 59.4065C49.7558 59.5799 50.0367 59.6881 50.4069 59.731L50.3971 59.8842Z" fill="white"/>
<path d="M105.008 11.9312L105.211 10.016L105.697 10.0691C106.053 10.108 106.293 10.1553 106.418 10.2111C106.633 10.3047 106.793 10.4321 106.897 10.5933C107.004 10.7547 107.073 11.0091 107.104 11.3564L107.236 11.3708L107.383 9.9795L103.447 9.54958L103.433 9.67795L103.589 9.695C103.742 9.71166 103.858 9.75718 103.939 9.83154C103.997 9.8823 104.033 9.94943 104.048 10.0329C104.054 10.0827 104.046 10.2141 104.024 10.4269L103.696 13.5217C103.671 13.7576 103.643 13.902 103.611 13.9547C103.57 14.0298 103.518 14.0803 103.455 14.1061C103.366 14.1456 103.254 14.1579 103.118 14.143L102.961 14.1259L102.948 14.2543L107.013 14.6982L107.383 13.226L107.255 13.2119C107.095 13.6157 106.871 13.9048 106.584 14.0793C106.299 14.254 105.936 14.3174 105.497 14.2695L105.216 14.2388C105.082 14.2241 104.987 14.195 104.931 14.1514C104.874 14.1079 104.838 14.0559 104.821 13.9956C104.806 13.9355 104.813 13.7759 104.84 13.5168L104.98 12.1914C105.205 12.2159 105.373 12.2647 105.484 12.3377C105.596 12.4084 105.687 12.5342 105.756 12.7149C105.829 12.8959 105.864 13.1221 105.863 13.3934L105.995 13.4078L106.256 10.9445L106.125 10.9301C106.049 11.2915 105.934 11.5585 105.78 11.7313C105.626 11.904 105.4 11.974 105.102 11.9415L105.008 11.9312Z" fill="white"/>
<path fill-rule="evenodd" clip-rule="evenodd" d="M109.775 13.0629L109.514 14.3487C109.464 14.5994 109.446 14.761 109.463 14.8333C109.481 14.9038 109.526 14.9666 109.595 15.0215C109.667 15.077 109.808 15.1267 110.017 15.1706L109.992 15.2971L107.639 14.8039L107.664 14.6774C107.878 14.7223 108.027 14.7332 108.11 14.7102C108.196 14.6854 108.26 14.6441 108.302 14.5865C108.347 14.5294 108.395 14.3754 108.446 14.1246L109.055 11.1154C109.106 10.8646 109.122 10.704 109.103 10.6335C109.086 10.5612 109.044 10.4975 108.974 10.4425C108.905 10.3876 108.764 10.3379 108.552 10.2935L108.578 10.167L110.596 10.59C111.261 10.7293 111.714 10.9479 111.955 11.2456C112.196 11.5433 112.28 11.8699 112.208 12.2256C112.147 12.5265 112.002 12.7645 111.772 12.9397C111.542 13.1148 111.255 13.2068 110.911 13.2156C110.68 13.224 110.301 13.1731 109.775 13.0629ZM110.235 10.7923L109.829 12.7962C109.903 12.8165 109.959 12.8307 109.998 12.8388C110.276 12.897 110.506 12.8598 110.69 12.7272C110.874 12.5922 111.001 12.3515 111.071 12.005C111.141 11.6608 111.117 11.3931 110.999 11.202C110.881 11.011 110.673 10.8842 110.375 10.8217L110.235 10.7923Z" fill="white"/>
<path d="M113.675 15.4323L114.114 14.0343L115.703 14.5522L115.264 15.9502C115.193 16.1765 115.136 16.3124 115.095 16.3577C115.038 16.4223 114.976 16.4608 114.909 16.4731C114.817 16.4945 114.705 16.4835 114.572 16.4403L114.426 16.3927L114.387 16.5159L116.736 17.2814L116.775 17.1583L116.629 17.1107C116.503 17.0696 116.409 17.0157 116.347 16.949C116.285 16.8802 116.252 16.8129 116.246 16.7473C116.239 16.6817 116.273 16.5335 116.345 16.3027L117.278 13.3337C117.349 13.1074 117.405 12.9715 117.447 12.9262C117.503 12.8616 117.565 12.8231 117.633 12.8108C117.725 12.7894 117.837 12.8003 117.97 12.8436L118.116 12.8912L118.155 12.768L115.806 12.0025L115.767 12.1256L115.913 12.1732C116.039 12.2143 116.133 12.2693 116.194 12.3382C116.256 12.4048 116.29 12.471 116.296 12.5366C116.303 12.6022 116.269 12.7504 116.197 12.9812L115.795 14.2593L114.206 13.7414L114.608 12.4633C114.679 12.2369 114.735 12.1011 114.776 12.0558C114.833 11.9912 114.895 11.9527 114.962 11.9404C115.057 11.9197 115.169 11.9306 115.299 11.9732L115.449 12.0218L115.487 11.8987L113.136 11.1321L113.097 11.2552L113.246 11.3039C113.372 11.345 113.465 11.3996 113.524 11.4678C113.586 11.5344 113.62 11.6006 113.626 11.6662C113.632 11.7318 113.599 11.88 113.526 12.1108L112.593 15.0798C112.522 15.3061 112.466 15.4419 112.425 15.4873C112.37 15.5526 112.309 15.5915 112.242 15.6038C112.148 15.6244 112.035 15.6135 111.905 15.571L111.756 15.5223L111.717 15.6455L114.069 16.4121L114.108 16.2889L113.958 16.2403C113.832 16.1992 113.738 16.1453 113.676 16.0786C113.617 16.0105 113.584 15.9432 113.575 15.8769C113.569 15.8112 113.602 15.663 113.675 15.4323Z" fill="white"/>
<path fill-rule="evenodd" clip-rule="evenodd" d="M121.334 14.1287C122.028 14.4224 122.492 14.8818 122.726 15.5071C122.962 16.1333 122.935 16.7667 122.647 17.4073C122.401 17.9545 122.025 18.3616 121.52 18.6286C120.85 18.9831 120.13 18.9806 119.361 18.6211C118.59 18.2606 118.112 17.7189 117.928 16.9959C117.782 16.4246 117.837 15.8537 118.094 15.2831C118.382 14.6426 118.839 14.2101 119.462 13.9857C120.089 13.7601 120.713 13.8078 121.334 14.1287ZM121.28 14.3501C120.888 14.1669 120.499 14.229 120.114 14.5365C119.798 14.7895 119.501 15.2257 119.222 15.8451C118.891 16.581 118.775 17.1852 118.873 17.6574C118.941 17.9871 119.137 18.2274 119.459 18.3781C119.676 18.4795 119.881 18.5112 120.075 18.4731C120.321 18.424 120.563 18.2751 120.8 18.0264C121.038 17.7756 121.264 17.4106 121.48 16.9312C121.737 16.3607 121.876 15.9097 121.898 15.5784C121.921 15.245 121.876 14.9815 121.764 14.788C121.654 14.5955 121.493 14.4495 121.28 14.3501Z" fill="white"/>
<path d="M124.865 18.5756L125.843 16.9168L126.26 17.172C126.565 17.3592 126.763 17.5049 126.853 17.609C127.008 17.7858 127.099 17.9699 127.126 18.1613C127.156 18.3539 127.112 18.6151 126.996 18.9449L127.109 19.0141L127.82 17.8091L124.444 15.7398L124.378 15.851L124.512 15.9331C124.643 16.0133 124.729 16.1045 124.772 16.2068C124.803 16.2777 124.808 16.3543 124.786 16.4365C124.771 16.4847 124.709 16.6009 124.601 16.7852L123.019 19.4658C122.899 19.6701 122.814 19.7897 122.763 19.8244C122.695 19.8755 122.627 19.8993 122.559 19.8957C122.463 19.894 122.356 19.8573 122.239 19.7856L122.106 19.7036L122.04 19.8148L125.526 21.9515L126.472 20.7675L126.362 20.7C126.05 20.9999 125.728 21.1681 125.396 21.2046C125.066 21.2423 124.712 21.1457 124.336 20.9148L124.095 20.7671C123.98 20.6966 123.906 20.6296 123.873 20.5659C123.84 20.5022 123.829 20.4393 123.839 20.3771C123.85 20.316 123.922 20.1733 124.055 19.949L124.732 18.801C124.924 18.9189 125.056 19.0349 125.126 19.149C125.198 19.261 125.227 19.4143 125.215 19.6087C125.205 19.8044 125.144 20.0257 125.03 20.2727L125.143 20.3419L126.402 18.2083L126.289 18.139C126.07 18.4361 125.856 18.6306 125.645 18.7224C125.434 18.8141 125.201 18.7816 124.945 18.6248L124.865 18.5756Z" fill="white"/>
<path fill-rule="evenodd" clip-rule="evenodd" d="M132.504 21.2705C133.098 21.735 133.427 22.3003 133.491 22.9663C133.557 23.6338 133.369 24.2402 132.926 24.7856C132.548 25.2514 132.081 25.548 131.525 25.6754C130.788 25.8447 130.096 25.6556 129.447 25.1079C128.796 24.5588 128.475 23.9102 128.483 23.1623C128.49 22.5713 128.69 22.033 129.085 21.5473C129.528 21.0019 130.079 20.7016 130.738 20.6463C131.4 20.5906 131.989 20.7987 132.504 21.2705ZM132.396 21.4709C132.065 21.1918 131.674 21.151 131.223 21.3485C130.854 21.5117 130.456 21.8569 130.027 22.3841C129.519 23.0107 129.251 23.5654 129.224 24.0482C129.205 24.3852 129.332 24.6685 129.604 24.898C129.787 25.0526 129.976 25.1365 130.172 25.1497C130.423 25.1662 130.694 25.0848 130.986 24.9055C131.28 24.7245 131.593 24.4299 131.924 24.0218C132.318 23.5361 132.569 23.1356 132.675 22.8205C132.782 22.5035 132.807 22.2368 132.749 22.0205C132.693 21.8056 132.575 21.6224 132.396 21.4709Z" fill="white"/>
<path fill-rule="evenodd" clip-rule="evenodd" d="M137.901 26.5783L135.088 23.6202L134.996 23.711C135.197 23.9217 135.298 24.0852 135.299 24.2015C135.301 24.3178 135.206 24.47 135.016 24.6581L132.714 26.9351C132.539 27.1084 132.396 27.191 132.285 27.1826C132.178 27.1743 132.022 27.0657 131.816 26.8566L131.725 26.9473L133.473 28.7854C133.782 29.1107 134.051 29.3241 134.279 29.4256C134.508 29.5287 134.746 29.5673 134.99 29.5411C135.237 29.5166 135.456 29.4095 135.647 29.2198C135.929 28.9417 136.048 28.6088 136.007 28.2212C135.966 27.8335 135.713 27.3953 135.248 26.9065L134.818 26.4539L136.127 25.1584L136.724 25.7854C136.929 26.0012 137.06 26.1818 137.118 26.3272C137.178 26.4709 137.19 26.6339 137.155 26.8161C137.121 26.9966 137.035 27.1863 136.897 27.3852L136.988 27.4812L137.901 26.5783ZM133.585 27.6734L134.599 26.6699C134.795 26.8755 134.929 27.0503 135.002 27.1943C135.076 27.3399 135.092 27.522 135.05 27.7406C135.009 27.9576 134.894 28.1593 134.706 28.3458C134.51 28.5388 134.3 28.6494 134.073 28.6775C133.847 28.7072 133.641 28.6235 133.454 28.4263C133.337 28.3033 133.289 28.1871 133.31 28.0778C133.333 27.9669 133.424 27.8321 133.585 27.6734Z" fill="white"/>
<path d="M135.104 30.4022L135.207 30.3246L135.254 30.3896C135.378 30.5612 135.496 30.6284 135.607 30.5915C135.719 30.5531 135.878 30.457 136.083 30.3031L138.539 28.4549C138.764 28.2857 138.892 28.1523 138.925 28.0548C138.961 27.9578 138.929 27.8396 138.828 27.7001L138.781 27.6351L138.884 27.5575L140.148 29.3048L140.044 29.3824L139.995 29.3145C139.894 29.1751 139.793 29.1086 139.692 29.1151C139.59 29.1216 139.428 29.2088 139.205 29.3766L136.649 31.3004C136.491 31.4192 136.409 31.5101 136.402 31.573C136.399 31.6363 136.46 31.7538 136.584 31.9253L136.842 32.2816C137.004 32.5059 137.111 32.617 137.164 32.6149C137.221 32.6133 137.324 32.5559 137.475 32.4426L140.031 30.5188C140.254 30.351 140.384 30.2186 140.42 30.1216C140.456 30.0246 140.423 29.9054 140.32 29.7641L140.273 29.6991L140.377 29.6214L141.64 31.3687L141.537 31.4463L141.488 31.3785C141.387 31.239 141.286 31.1725 141.184 31.179C141.085 31.1841 140.922 31.2713 140.697 31.4405L138.202 33.3182C138.018 33.4566 137.913 33.5507 137.885 33.6003C137.861 33.6504 137.925 33.78 138.076 33.9893L138.401 34.4388C138.528 34.6141 138.621 34.6944 138.679 34.6797C138.739 34.6636 138.844 34.5989 138.995 34.4856L141.523 32.5828C141.743 32.4177 141.871 32.286 141.909 32.1877C141.947 32.0893 141.915 31.9694 141.813 31.828L141.766 31.763L141.869 31.6854L143.13 33.4298L143.027 33.5075L142.98 33.4424C142.878 33.3011 142.775 33.2343 142.672 33.2423C142.57 33.2488 142.409 33.3352 142.188 33.5017L139.693 35.3793C139.481 35.5387 139.352 35.6662 139.306 35.7617C139.262 35.8559 139.296 35.9793 139.406 36.1319L139.453 36.197L138.246 37.1054L138.17 37.0007C138.381 36.7723 138.531 36.5229 138.619 36.2525C138.709 35.9839 138.727 35.7439 138.671 35.5324C138.614 35.3222 138.493 35.0899 138.309 34.8355L135.104 30.4022Z" fill="white"/>
<path d="M142.606 37.0978L144.285 36.1536L144.517 36.5834C144.687 36.8986 144.785 37.1238 144.81 37.2589C144.855 37.4896 144.842 37.6946 144.77 37.874C144.699 38.0555 144.53 38.2597 144.264 38.4866L144.327 38.6033L145.546 37.9174L143.665 34.4331L143.552 34.4964L143.627 34.6345C143.7 34.7696 143.729 34.892 143.714 35.0017C143.705 35.0786 143.671 35.1473 143.611 35.2076C143.574 35.2418 143.462 35.3114 143.276 35.4163L140.563 36.9419C140.357 37.0582 140.223 37.1188 140.162 37.1237C140.077 37.1338 140.007 37.1202 139.95 37.083C139.867 37.0332 139.793 36.948 139.728 36.8272L139.654 36.6891L139.541 36.7524L141.484 40.3503L142.896 39.8004L142.835 39.6868C142.414 39.7897 142.052 39.7737 141.746 39.6387C141.442 39.5057 141.185 39.2448 140.975 38.8559L140.84 38.6073C140.776 38.4886 140.746 38.3935 140.75 38.322C140.753 38.2506 140.775 38.1904 140.815 38.1414C140.855 38.0945 140.989 38.0071 141.216 37.8794L142.378 37.2261C142.485 37.4246 142.541 37.5909 142.544 37.7249C142.55 37.8578 142.499 38.0053 142.391 38.1674C142.284 38.3316 142.119 38.4921 141.898 38.649L141.961 38.7656L144.12 37.5512L144.057 37.4346C143.719 37.582 143.435 37.6425 143.207 37.6162C142.979 37.5899 142.793 37.4447 142.651 37.1807L142.606 37.0978Z" fill="white"/>
<path d="M147.996 43.314L146.488 43.9582L146.437 43.8323C146.791 43.5695 147.021 43.2641 147.124 42.9163C147.228 42.5685 147.213 42.231 147.079 41.9039C146.967 41.6306 146.786 41.4132 146.536 41.2518C146.287 41.0904 146.014 41.0108 145.718 41.0132C145.34 41.0156 144.953 41.1013 144.557 41.2704C144.168 41.4367 143.833 41.6379 143.553 41.874C143.275 42.1091 143.096 42.3673 143.018 42.6486C142.942 42.929 142.973 43.237 143.11 43.5728C143.223 43.8483 143.386 44.0745 143.6 44.2514C143.814 44.4305 144.12 44.5845 144.517 44.7133L144.141 44.8736C143.786 44.737 143.496 44.56 143.271 44.3424C143.049 44.1261 142.866 43.8404 142.72 43.4853C142.529 43.0183 142.451 42.5632 142.488 42.12C142.526 41.6789 142.679 41.2849 142.946 40.9379C143.215 40.5931 143.546 40.3367 143.939 40.1685C144.354 39.9912 144.792 39.9318 145.254 39.9901C145.716 40.0507 146.126 40.2222 146.483 40.5046C146.841 40.7892 147.105 41.1403 147.276 41.5578C147.402 41.8656 147.469 42.2189 147.477 42.6177C147.481 42.8486 147.494 42.991 147.516 43.0448C147.545 43.1136 147.593 43.1623 147.663 43.1908C147.735 43.2205 147.829 43.2196 147.945 43.1881L147.996 43.314Z" fill="white"/>
<path d="M148.253 48.8899L149.477 48.5148L148.28 44.4374L147.055 44.8125L147.093 44.9397C147.441 44.8888 147.734 44.9329 147.972 45.0718C148.141 45.1707 148.271 45.373 148.361 45.6787L148.457 46.0068L144.968 47.0759C144.741 47.1454 144.597 47.176 144.536 47.1678C144.451 47.1575 144.384 47.1281 144.336 47.0796C144.266 47.0136 144.211 46.9147 144.173 46.7831L144.128 46.6324L144.005 46.6702L144.703 49.0471L144.826 49.0092L144.782 48.8586C144.744 48.7292 144.735 48.62 144.755 48.5312C144.778 48.4439 144.814 48.378 144.864 48.3335C144.915 48.2913 145.056 48.2347 145.287 48.1638L148.776 47.0948L148.876 47.4329C148.938 47.6449 148.962 47.7995 148.946 47.8965C148.918 48.0708 148.854 48.2205 148.755 48.3457C148.658 48.4702 148.479 48.6114 148.217 48.7694L148.253 48.8899Z" fill="white"/>
<path fill-rule="evenodd" clip-rule="evenodd" d="M148.074 52.7899C148.054 53.2513 147.987 53.5854 147.874 53.7923C147.715 54.089 147.469 54.2697 147.138 54.3345C146.789 54.4028 146.474 54.3187 146.193 54.0821C145.852 53.7909 145.62 53.316 145.497 52.6576L145.055 50.2947L145.182 50.2699C145.222 50.4848 145.268 50.6262 145.321 50.694C145.377 50.7637 145.44 50.8072 145.509 50.8244C145.579 50.8439 145.739 50.8291 145.991 50.78L149.004 50.1906C149.255 50.1415 149.409 50.0947 149.467 50.0502C149.528 50.0075 149.57 49.9435 149.595 49.8582C149.619 49.7729 149.611 49.6239 149.571 49.4113L149.698 49.3865L150.115 51.6157C150.215 52.1484 150.237 52.535 150.183 52.7755C150.131 53.0156 150.022 53.2182 149.857 53.3833C149.693 53.5479 149.506 53.651 149.293 53.6925C149.07 53.7363 148.855 53.6942 148.649 53.5662C148.445 53.4379 148.253 53.1791 148.074 52.7899ZM147.933 51.5235C147.993 51.8482 148.075 52.0799 148.176 52.2188C148.279 52.36 148.403 52.4588 148.551 52.5152C148.699 52.5716 148.876 52.5797 149.081 52.5396C149.287 52.4994 149.447 52.4254 149.561 52.3176C149.679 52.2117 149.758 52.0766 149.798 51.9123C149.838 51.748 149.826 51.4992 149.761 51.1659L147.933 51.5235ZM147.666 51.5757L146.176 51.8671L146.004 51.8971C145.881 51.9212 145.793 51.9704 145.741 52.0447C145.691 52.1207 145.678 52.2205 145.701 52.344C145.735 52.5269 145.807 52.6871 145.915 52.8246C146.026 52.964 146.166 53.0599 146.335 53.1123C146.505 53.1643 146.685 53.1717 146.875 53.1347C147.092 53.0922 147.276 53.004 147.429 52.8699C147.583 52.7354 147.678 52.5734 147.714 52.3839C147.749 52.1945 147.733 51.9251 147.666 51.5757Z" fill="white"/>
<path fill-rule="evenodd" clip-rule="evenodd" d="M150.405 59.0535C150.836 58.5476 151.009 57.9201 150.924 57.1709C150.899 56.4728 150.634 55.9037 150.129 55.4635C149.627 55.0254 149.026 54.8344 148.325 54.8905C147.702 54.9405 147.177 55.1669 146.75 55.5697C146.21 56.0797 145.973 56.7591 146.037 57.608C146.102 58.4545 146.453 59.0855 147.091 59.5011C147.572 59.8149 148.112 59.9478 148.71 59.8999C149.41 59.8438 149.975 59.5616 150.405 59.0535ZM149.969 56.2989C150.426 56.4885 150.671 56.7991 150.704 57.2304C150.722 57.4647 150.674 57.6762 150.56 57.865C150.446 58.0562 150.238 58.2221 149.937 58.363C149.637 58.5037 149.175 58.599 148.552 58.649C148.028 58.691 147.598 58.6683 147.262 58.5808C146.929 58.4932 146.681 58.3533 146.517 58.1611C146.389 58.0103 146.315 57.8155 146.297 57.5766C146.27 57.2218 146.384 56.935 146.638 56.7163C147.001 56.4025 147.585 56.2134 148.39 56.1489C149.067 56.0946 149.593 56.1446 149.969 56.2989Z" fill="white"/>
<path d="M65.8516 97.817L65.9182 95.4341L68.3025 95.2949L68.5011 95.4859L66.6382 96.1262L66.064 98.0212L65.8516 97.817Z" fill="white"/>
<path d="M64.6074 96.621L64.663 94.2275L67.0445 94.0857L67.2624 94.2952L65.4018 94.9111L64.8254 96.8305L64.6074 96.621Z" fill="white"/>
<path d="M73.8333 97.6615L72.9746 98.7728L72.8656 98.6886C72.9991 98.3823 73.0694 98.1432 73.0765 97.9713C73.0851 97.7975 73.0465 97.6242 72.9607 97.4515C72.9121 97.3559 72.7919 97.234 72.6002 97.0858L72.2943 96.8495L69.8469 100.017C69.6846 100.227 69.5943 100.366 69.576 100.436C69.5596 100.507 69.5692 100.589 69.6046 100.681C69.6436 100.772 69.7216 100.863 69.8387 100.953L69.975 101.059L69.8884 101.171L67.7386 99.5094L67.8252 99.3974L67.9614 99.5027C68.0805 99.5947 68.1928 99.6476 68.2982 99.6614C68.3725 99.6737 68.4513 99.6572 68.5347 99.612C68.5943 99.5807 68.7037 99.4621 68.8628 99.2562L71.3103 96.089L71.0135 95.8597C70.737 95.646 70.4909 95.5493 70.2753 95.5697C69.9733 95.5975 69.6821 95.7449 69.4017 96.0118L69.2866 95.9229L70.1454 94.8116L73.8333 97.6615Z" fill="white"/>
<path fill-rule="evenodd" clip-rule="evenodd" d="M73.8 102.708L74.544 101.477C75.0484 101.781 75.4223 101.972 75.6658 102.047C76.0251 102.163 76.3562 102.172 76.6593 102.075C76.9623 101.978 77.2009 101.785 77.3751 101.497C77.5809 101.156 77.6137 100.789 77.4736 100.394C77.3335 99.9996 76.9446 99.6097 76.307 99.2245L74.3713 98.055L74.2981 98.1762C74.5011 98.2989 74.6286 98.4012 74.6804 98.4832C74.7322 98.5652 74.7532 98.6464 74.7433 98.7269C74.737 98.8065 74.6612 98.9664 74.5161 99.2066L72.7748 102.089C72.6297 102.329 72.5234 102.47 72.4559 102.513C72.3906 102.557 72.3089 102.576 72.2109 102.571C72.1164 102.564 71.9666 102.499 71.7613 102.375L71.6881 102.496L73.9448 103.86L74.018 103.739C73.8171 103.617 73.6897 103.515 73.6357 103.432C73.5839 103.35 73.5612 103.269 73.5675 103.189C73.5774 103.109 73.6549 102.948 73.8 102.708ZM74.6983 101.221L75.8579 99.3019L75.9922 99.383C76.2782 99.5558 76.4471 99.7622 76.4989 100.002C76.5507 100.242 76.477 100.527 76.2778 100.857C76.0773 101.188 75.8568 101.391 75.6164 101.463C75.3773 101.533 75.1245 101.488 74.8581 101.327C74.821 101.304 74.7678 101.269 74.6983 101.221Z" fill="white"/>
<path fill-rule="evenodd" clip-rule="evenodd" d="M81.2934 101.768C82.062 102.074 82.5786 102.565 82.8431 103.242C83.11 103.92 83.088 104.612 82.7771 105.317C82.5114 105.919 82.1015 106.371 81.5473 106.673C80.8127 107.074 80.0195 107.087 79.1676 106.711C78.3133 106.334 77.7804 105.753 77.5689 104.969C77.4019 104.348 77.4569 103.724 77.7338 103.097C78.0448 102.392 78.5429 101.91 79.2284 101.652C79.9172 101.393 80.6055 101.431 81.2934 101.768ZM81.2366 102.011C80.8024 101.819 80.3743 101.895 79.9523 102.239C79.6073 102.522 79.2845 103.004 78.9839 103.686C78.6266 104.496 78.5049 105.157 78.6188 105.67C78.6977 106.028 78.9158 106.286 79.2729 106.444C79.5133 106.55 79.7398 106.58 79.9523 106.534C80.2236 106.476 80.4885 106.308 80.747 106.032C81.0065 105.753 81.2527 105.35 81.4853 104.822C81.7623 104.195 81.9109 103.7 81.9311 103.338C81.9524 102.973 81.9003 102.687 81.7748 102.478C81.6517 102.271 81.4723 102.115 81.2366 102.011Z" fill="white"/>
<path d="M87.9386 104.524C87.9761 104.636 87.9581 104.827 87.8845 105.097L85.3459 107.364L86.1166 104.627C86.1961 104.345 86.2874 104.167 86.3905 104.092C86.4943 104.015 86.6592 104.009 86.8851 104.073L87.0582 104.121L87.0966 103.985L84.4188 103.231L84.3804 103.367L84.5461 103.414C84.8089 103.488 84.9573 103.577 84.9913 103.682C85.0254 103.787 85.0002 103.99 84.9158 104.289L83.9906 107.575C83.9069 107.872 83.8151 108.057 83.7151 108.129C83.6159 108.199 83.4496 108.202 83.2163 108.136L83.0506 108.089L83.0122 108.226L85.69 108.98L85.7284 108.843L85.5553 108.795C85.295 108.721 85.1499 108.625 85.12 108.505C85.0908 108.383 85.1097 108.203 85.1768 107.964L87.7154 105.698L86.952 108.409C86.8683 108.706 86.7765 108.891 86.6765 108.963C86.5797 109.034 86.4147 109.037 86.1814 108.971L86.0157 108.924L85.9773 109.061L88.6551 109.815L88.6935 109.678L88.5204 109.63C88.292 109.565 88.1518 109.479 88.0999 109.372C88.0487 109.262 88.0663 109.054 88.1527 108.747L89.078 105.461C89.1624 105.162 89.2539 104.978 89.3524 104.91C89.4534 104.844 89.6194 104.843 89.8502 104.908L90.0233 104.956L90.0617 104.82L87.3839 104.066L87.3455 104.202L87.5113 104.249C87.7617 104.319 87.9042 104.411 87.9386 104.524Z" fill="white"/>
<path d="M89.8484 110.099L89.8675 109.958L90.004 109.977C90.2618 110.012 90.4303 109.985 90.5095 109.895C90.589 109.803 90.6488 109.609 90.6891 109.313L91.15 105.931C91.1917 105.626 91.1821 105.422 91.1212 105.321C91.0606 105.218 90.9178 105.151 90.6929 105.12L90.5298 105.098L90.549 104.957L93.2372 105.324L93.2181 105.464L93.1157 105.45C92.868 105.416 92.6957 105.434 92.5987 105.503C92.5017 105.572 92.4308 105.771 92.3861 106.1L91.92 109.52C91.8853 109.775 91.8839 109.927 91.916 109.975C91.948 110.023 92.0942 110.065 92.3546 110.1L93.1129 110.204C93.396 110.242 93.5616 110.246 93.6098 110.214C93.6579 110.181 93.6992 110.039 93.7336 109.786L94.2022 106.347C94.2439 106.041 94.2356 105.838 94.1772 105.738C94.1192 105.634 93.9764 105.567 93.7489 105.536L93.5821 105.514L93.6012 105.373L96.2174 105.73L96.1983 105.87L96.0959 105.856C95.8861 105.828 95.7352 105.848 95.6433 105.918C95.5514 105.988 95.4831 106.187 95.4383 106.516L94.9774 109.898C94.9347 110.211 94.9438 110.418 95.0047 110.519C95.0682 110.621 95.2111 110.687 95.4335 110.717L95.5359 110.731L95.3122 112.373L95.1719 112.354C95.1162 111.326 94.6182 110.749 93.6779 110.621L89.8484 110.099Z" fill="white"/>
<path d="M99.5567 105.801L96.8551 105.799L96.8549 105.94L96.9659 105.94C97.2287 105.94 97.397 105.993 97.4709 106.098C97.5448 106.202 97.5816 106.406 97.5813 106.71L97.5782 110.181C97.5779 110.454 97.5306 110.632 97.4361 110.716C97.3442 110.798 97.149 110.841 96.8505 110.846L96.8504 110.987L99.552 110.99L99.5521 110.848C99.2741 110.848 99.0828 110.813 98.9782 110.744C98.8763 110.676 98.8254 110.516 98.8256 110.266L98.8272 108.51C99.0032 108.517 99.1192 108.546 99.1753 108.594C99.234 108.64 99.3244 108.775 99.4466 109L100.512 110.991L102.25 110.992L102.25 110.851C102.089 110.851 101.951 110.817 101.837 110.751C101.725 110.682 101.628 110.577 101.546 110.437L101.019 109.495C100.785 109.064 100.632 108.796 100.56 108.691C100.489 108.584 100.409 108.497 100.32 108.431C100.233 108.364 100.108 108.31 99.9448 108.27C100.067 108.157 100.162 108.02 100.228 107.856C100.295 107.691 100.374 107.443 100.466 107.114C100.561 106.778 100.649 106.544 100.731 106.414C100.813 106.284 100.911 106.219 101.026 106.219C101.133 106.22 101.191 106.304 101.202 106.472C101.224 106.809 101.381 106.977 101.672 106.978C101.82 106.978 101.943 106.932 102.043 106.84C102.143 106.748 102.192 106.624 102.193 106.465C102.193 106.261 102.119 106.09 101.971 105.952C101.823 105.812 101.627 105.742 101.382 105.741C101.135 105.741 100.928 105.798 100.762 105.913C100.599 106.025 100.47 106.178 100.375 106.372C100.283 106.566 100.187 106.856 100.087 107.244C100.003 107.576 99.9146 107.8 99.8226 107.917C99.7307 108.032 99.6311 108.102 99.524 108.128C99.4168 108.15 99.1846 108.162 98.8275 108.161L98.8289 106.612C98.8291 106.351 98.8714 106.175 98.9556 106.084C99.0424 105.989 99.2134 105.942 99.4685 105.942L99.5565 105.943L99.5567 105.801Z" fill="white"/>
<path d="M105.076 108.224L105.29 109.817C105.326 110.08 105.362 110.242 105.398 110.304C105.437 110.366 105.502 110.416 105.592 110.456C105.685 110.492 105.803 110.501 105.947 110.481L106.118 110.458L106.137 110.599L103.448 110.96L103.429 110.82L103.6 110.797C103.749 110.777 103.865 110.734 103.949 110.669C104.01 110.625 104.053 110.557 104.076 110.467C104.096 110.402 104.089 110.241 104.054 109.983L103.598 106.6C103.563 106.337 103.527 106.175 103.49 106.113C103.454 106.051 103.389 106.002 103.297 105.965C103.207 105.926 103.089 105.916 102.945 105.935L102.775 105.958L102.756 105.818L105.445 105.456L105.463 105.596L105.293 105.619C105.144 105.639 105.027 105.682 104.943 105.747C104.882 105.792 104.839 105.859 104.812 105.95C104.793 106.015 104.8 106.176 104.835 106.434L105.031 107.89L106.847 107.646L106.651 106.189C106.616 105.926 106.58 105.764 106.543 105.702C106.507 105.64 106.442 105.591 106.35 105.554C106.257 105.515 106.138 105.505 105.994 105.525L105.827 105.547L105.809 105.407L108.494 105.046L108.513 105.186L108.346 105.208C108.194 105.229 108.077 105.271 107.996 105.336C107.935 105.381 107.891 105.448 107.865 105.539C107.845 105.604 107.853 105.765 107.888 106.023L108.343 109.406C108.378 109.669 108.415 109.831 108.451 109.893C108.488 109.955 108.553 110.006 108.645 110.045C108.738 110.081 108.856 110.09 109 110.07L109.167 110.048L109.186 110.188L106.501 110.55L106.482 110.409L106.649 110.387C106.801 110.366 106.917 110.324 106.998 110.259C107.059 110.214 107.103 110.147 107.129 110.056C107.149 109.991 107.141 109.83 107.107 109.572L106.892 107.979L105.076 108.224Z" fill="white"/>
<path d="M111.578 106.753L111.03 104.713L111.547 104.574C111.927 104.472 112.191 104.425 112.341 104.432C112.598 104.443 112.811 104.51 112.981 104.633C113.154 104.756 113.325 104.988 113.494 105.331L113.634 105.294L113.236 103.812L109.042 104.938L109.078 105.075L109.245 105.03C109.407 104.986 109.545 104.986 109.657 105.03C109.736 105.059 109.799 105.113 109.847 105.193C109.873 105.241 109.917 105.379 109.978 105.606L110.863 108.902C110.93 109.154 110.958 109.312 110.947 109.379C110.935 109.472 110.902 109.544 110.847 109.596C110.772 109.672 110.662 109.729 110.517 109.768L110.35 109.813L110.387 109.949L114.719 108.786L114.516 107.133L114.38 107.17C114.376 107.646 114.261 108.031 114.036 108.324C113.813 108.616 113.468 108.825 113 108.951L112.7 109.031C112.557 109.069 112.449 109.078 112.374 109.055C112.299 109.033 112.241 108.994 112.2 108.939C112.161 108.884 112.105 108.718 112.031 108.442L111.652 107.03C111.891 106.966 112.082 106.949 112.225 106.98C112.367 107.007 112.509 107.1 112.652 107.257C112.797 107.414 112.923 107.631 113.029 107.909L113.169 107.871L112.465 105.247L112.324 105.285C112.389 105.685 112.377 106.004 112.288 106.241C112.199 106.479 111.995 106.641 111.677 106.726L111.578 106.753Z" fill="white"/>
<path fill-rule="evenodd" clip-rule="evenodd" d="M116.02 102.839L118.494 101.804L118.549 101.934C118.278 102.053 118.119 102.162 118.071 102.259C118.022 102.354 118.038 102.52 118.118 102.758C118.659 102.531 119.097 102.421 119.432 102.428C119.766 102.435 120.086 102.522 120.392 102.69C120.699 102.857 120.929 103.121 121.079 103.481C121.268 103.933 121.268 104.402 121.079 104.887C120.889 105.373 120.374 105.792 119.534 106.143C119.604 106.31 119.674 106.425 119.744 106.487C119.817 106.548 119.897 106.578 119.985 106.577C120.072 106.573 120.225 106.535 120.442 106.46L120.497 106.591L118.022 107.626L117.968 107.495C118.257 107.366 118.422 107.245 118.462 107.131C118.502 107.015 118.476 106.846 118.383 106.625C117.828 106.857 117.36 106.962 116.98 106.938C116.602 106.914 116.276 106.807 116.003 106.617C115.732 106.426 115.531 106.173 115.399 105.857C115.258 105.521 115.23 105.172 115.314 104.81C115.397 104.447 115.567 104.147 115.826 103.912C116.083 103.674 116.463 103.45 116.967 103.239C116.877 103.025 116.774 102.9 116.656 102.863C116.541 102.826 116.347 102.861 116.074 102.97L116.02 102.839ZM119.425 105.882C119.658 105.784 119.835 105.669 119.956 105.535C120.076 105.399 120.138 105.198 120.143 104.93C120.146 104.661 120.064 104.327 119.898 103.929C119.765 103.612 119.607 103.363 119.424 103.182C119.243 103.001 119.063 102.902 118.885 102.885C118.708 102.867 118.489 102.912 118.227 103.019L119.425 105.882ZM117.076 103.5C116.772 103.639 116.574 103.787 116.482 103.944C116.389 104.099 116.349 104.3 116.361 104.546C116.373 104.793 116.449 105.084 116.588 105.418C116.749 105.801 116.919 106.075 117.097 106.238C117.275 106.398 117.457 106.484 117.644 106.494C117.833 106.501 118.042 106.458 118.274 106.363L117.076 103.5Z" fill="white"/>
<path d="M125.392 99.6487L124.68 98.4386L120.664 100.804L121.376 102.014L121.501 101.94C121.358 101.581 121.329 101.256 121.416 100.965C121.477 100.757 121.658 100.565 121.959 100.387L122.282 100.197L124.314 103.646C124.446 103.87 124.515 104.016 124.522 104.083C124.533 104.177 124.519 104.256 124.48 104.321C124.428 104.413 124.337 104.498 124.208 104.574L124.059 104.662L124.131 104.784L126.472 103.405L126.4 103.283L126.252 103.37C126.124 103.445 126.011 103.484 125.912 103.486C125.813 103.485 125.734 103.464 125.674 103.422C125.616 103.379 125.52 103.243 125.385 103.015L123.354 99.5658L123.687 99.3696C123.896 99.2466 124.054 99.1803 124.16 99.1707C124.353 99.1552 124.528 99.1838 124.686 99.2564C124.843 99.3268 125.039 99.4809 125.274 99.7186L125.392 99.6487Z" fill="white"/>
<path fill-rule="evenodd" clip-rule="evenodd" d="M128.253 98.7485L128.797 98.3314C129.383 97.8809 129.889 97.657 130.312 97.6599C130.736 97.6628 131.079 97.8362 131.344 98.1802C131.524 98.415 131.611 98.6694 131.606 98.9434C131.603 99.2159 131.531 99.4721 131.391 99.712C131.252 99.9503 130.987 100.219 130.597 100.519L128.39 102.213L128.304 102.101C128.556 101.901 128.693 101.743 128.716 101.626C128.739 101.505 128.668 101.337 128.503 101.123L126.404 98.3882C126.18 98.0968 126.013 97.942 125.903 97.9239C125.794 97.9042 125.61 97.991 125.35 98.1842L125.264 98.0719L127.382 96.4453L127.469 96.5577C127.276 96.7088 127.16 96.8265 127.122 96.9106C127.086 96.9931 127.073 97.0706 127.083 97.1429C127.096 97.2137 127.179 97.3493 127.333 97.5496L128.253 98.7485ZM128.458 99.0156L129.411 100.257C129.562 100.453 129.696 100.571 129.813 100.61C129.928 100.647 130.059 100.609 130.207 100.495C130.444 100.314 130.56 100.097 130.557 99.8454C130.556 99.5923 130.463 99.3464 130.28 99.1076C130.103 98.8769 129.9 98.7256 129.671 98.6537C129.441 98.5798 129.242 98.5746 129.076 98.6382C128.911 98.7003 128.705 98.8261 128.458 99.0156Z" fill="white"/>
<path d="M133.56 95.6115L131.185 95.4412L130.972 95.6448L132.838 96.3015L133.402 98.1872L133.601 97.9969L133.56 95.6115Z" fill="white"/>
<path d="M134.822 94.406L132.433 94.2489L132.214 94.4577L134.105 95.1177L134.644 97.0002L134.862 96.7913L134.822 94.406Z" fill="white"/>
</svg>
