<svg width="20" height="20" viewBox="0 0 20 20" fill="none" xmlns="http://www.w3.org/2000/svg">
<path d="M3.50902 17.168H16.7841C18.2743 17.168 19.1663 16.297 19.1663 14.534V5.46704C19.1663 3.70402 18.2638 2.83301 16.4903 2.83301H3.21518C1.71452 2.83301 0.833008 3.70402 0.833008 5.46704V14.534C0.833008 16.297 1.72501 17.168 3.50902 17.168ZM3.44605 15.7408C2.69047 15.7408 2.27071 15.3316 2.27071 14.534V5.45655C2.27071 4.66949 2.69047 4.26021 3.44605 4.26021H16.5428C17.2983 4.26021 17.7286 4.66949 17.7286 5.46704V14.5444C17.7286 15.3316 17.2983 15.7408 16.5428 15.7408H3.44605ZM10.0049 12.2778C10.6136 12.2778 11.1907 12.0364 11.7889 11.4382L18.4212 4.91085L17.4453 3.9349L10.9914 10.3258C10.6345 10.6826 10.3302 10.84 10.0049 10.84C9.66909 10.84 9.36475 10.6721 9.00796 10.3258L2.51207 3.89292L1.54661 4.86888L8.2104 11.4382C8.80857 12.0364 9.38575 12.2778 10.0049 12.2778ZM17.3718 16.0242L18.3373 15.0587L13.1322 9.86409L12.1667 10.8296L17.3718 16.0242ZM1.66205 15.0482L2.638 16.0242L7.8431 10.8296L6.86715 9.86409L1.66205 15.0482Z" fill="black" fill-opacity="0.6"/>
</svg>
