<svg width="20" height="20" viewBox="0 0 20 20" fill="none" xmlns="http://www.w3.org/2000/svg">
<g clip-path="url(#clip0_937_1503)">
<path d="M14.4624 19.1326C16.08 19.1326 17.1713 18.6696 18.1501 17.5909C18.2222 17.5189 18.2925 17.4392 18.3571 17.3655C18.8967 16.7563 19.1663 16.1217 19.1663 15.5328C19.1663 14.8444 18.7909 14.2203 17.9675 13.6474L15.2261 11.7428C14.3662 11.1449 13.3695 11.0937 12.5921 11.8652L11.9057 12.5532C11.6656 12.795 11.4431 12.8075 11.1774 12.6188C10.6781 12.2872 9.73168 11.4583 9.08294 10.8112C8.42056 10.1563 7.75928 9.40027 7.39068 8.83968C7.21448 8.56633 7.22204 8.35309 7.46385 8.11129L8.1443 7.42495C8.92331 6.64922 8.87376 5.64919 8.27589 4.79255L6.33316 2.01142C5.77675 1.21615 5.12781 0.839992 4.43779 0.832435C3.84396 0.824879 3.22581 1.08548 2.61503 1.6218C2.53541 1.69221 2.46169 1.75506 2.39626 1.81293C1.29929 2.81756 0.833008 3.89389 0.833008 5.55943C0.833008 8.27624 2.40843 11.4815 5.47117 14.5276C8.51714 17.5554 11.6951 19.1326 14.4624 19.1326ZM14.4583 17.5941C12.1101 17.6335 9.1747 15.9501 6.63209 13.4315C4.07434 10.8963 2.33783 7.86119 2.37728 5.51299C2.39239 4.52089 2.74846 3.65374 3.44568 3.04868C3.51516 2.98841 3.57119 2.9357 3.64067 2.8863C3.9022 2.6633 4.1805 2.54423 4.43613 2.54423C4.70171 2.54423 4.94296 2.65058 5.12136 2.92703L6.85934 5.52405C7.07277 5.83957 7.0829 6.19694 6.76904 6.50417L6.02445 7.24212C5.33055 7.92275 5.38824 8.71339 5.83572 9.33909C6.33445 10.0387 7.26333 11.0924 8.04423 11.8591C8.86236 12.6781 9.99897 13.6916 10.6779 14.1813C11.3053 14.6304 12.0976 14.6865 12.7749 13.9926L13.5129 13.2497C13.8201 12.9357 14.1699 12.9476 14.4947 13.1518L17.0518 14.85C17.3257 15.036 17.4346 15.2696 17.4346 15.5411C17.4346 15.7968 17.3172 16.075 17.0926 16.3382C17.0356 16.4077 16.9905 16.4637 16.9302 16.5332C16.3251 17.2304 15.458 17.579 14.4583 17.5941Z" fill="black" fill-opacity="0.6"/>
</g>
<defs>
<clipPath id="clip0_937_1503">
<rect width="20" height="20" fill="white"/>
</clipPath>
</defs>
</svg>
