<svg width="20" height="20" viewBox="0 0 20 20" fill="none" xmlns="http://www.w3.org/2000/svg">
<g clip-path="url(#clip0_937_1494)">
<path d="M18.1522 7.80458C18.1522 3.49418 14.6487 -0.000732422 10.3261 -0.000732422C6.0035 -0.000732422 2.5 3.49418 2.5 7.80458C2.5 10.8763 4.39494 14.584 8.13509 18.9871C9.15852 20.192 10.9691 20.3426 12.1792 19.3235C12.301 19.2209 12.414 19.1084 12.5171 18.9871C16.2572 14.584 18.1522 10.8763 18.1522 7.80458ZM11.0561 18.0014C10.5794 18.4028 9.86614 18.3435 9.46297 17.8688C5.96383 13.7494 4.23913 10.3749 4.23913 7.80458C4.23913 4.44983 6.96472 1.73092 10.3261 1.73092C13.6875 1.73092 16.413 4.44983 16.413 7.80458C16.413 10.3749 14.6883 13.7495 11.1892 17.8688C11.1486 17.9166 11.1041 17.961 11.0561 18.0014ZM6.84783 7.79172C6.84783 5.87948 8.40559 4.32841 10.3261 4.32841C12.2466 4.32841 13.8043 5.87948 13.8043 7.79172C13.8043 9.70397 12.2466 11.255 10.3261 11.255C8.40559 11.255 6.84783 9.70397 6.84783 7.79172ZM8.58696 7.79172C8.58696 8.7476 9.36609 9.52338 10.3261 9.52338C11.2861 9.52338 12.0652 8.7476 12.0652 7.79172C12.0652 6.83585 11.2861 6.06007 10.3261 6.06007C9.36609 6.06007 8.58696 6.83585 8.58696 7.79172Z" fill="black" fill-opacity="0.6"/>
</g>
<defs>
<clipPath id="clip0_937_1494">
<rect width="20" height="20" fill="white"/>
</clipPath>
</defs>
</svg>
